<svg xmlns:vectornator="http://vectornator.io" xmlns="http://www.w3.org/2000/svg" viewBox="0 0 512 512"><path vectornator:layerName="Untitled" d="M0 155h113.3V41.3H0V155zm30-83.6h53.3v53.5H30V71.4zm119.3-30.1V155H512V41.3H149.3zM482 124.9H179.3V71.4H482v53.5zM0 302.6h113.3V188.9H0v113.7zM30 219h53.3v53.5H30V219zm119.3 83.6H512V188.9H149.3v113.7zm30-83.6H482v53.5H179.3V219zM0 450.2h113.3V336.4H0v113.8zm30-83.6h53.3V420H30v-53.4zm119.3 83.6H512V336.4H149.3v113.8zm30-83.6H482V420H179.3v-53.4z" fill-rule="evenodd" clip-rule="evenodd" fill="#fff"/></svg>