<?xml version="1.0" encoding="UTF-8"?>
<svg width="167px" height="21px" viewBox="0 0 167 21" version="1.1" xmlns="http://www.w3.org/2000/svg" xmlns:xlink="http://www.w3.org/1999/xlink">
    <!-- Generator: Sketch 51.3 (57544) - http://www.bohemiancoding.com/sketch -->
    <title>Group 40</title>
    <desc>Created with Sketch.</desc>
    <defs>
        <polygon id="path-1" points="5.67567568e-05 0.326663514 7.12302973 0.326663514 7.12302973 5.67567568 5.67567568e-05 5.67567568"></polygon>
        <polygon id="path-3" points="0 20.5601351 167.020946 20.5601351 167.020946 0 0 0"></polygon>
    </defs>
    <g id="Symbols" stroke="none" stroke-width="1" fill="none" fill-rule="evenodd">
        <g id="Footer-final" transform="translate(-51.000000, -45.000000)">
            <g id="Group-40" transform="translate(51.000000, 45.000000)">
                <path d="M8.44256757,8.55596757 L8.38581081,8.61272432 L8.44256757,8.55596757 Z M6.79662162,8.66948108 L6.85337838,8.72623784 C6.96689189,8.83975135 7.13716216,9.01002162 7.30743243,9.12353514 L8.04527027,9.86137297 L8.21554054,10.0316432 L8.21554054,10.2019135 L7.98851351,10.4289405 L7.53445946,10.8829946 L6.85337838,11.5640757 L6.79662162,11.6208324 L8.72635135,11.6208324 C8.83986486,11.6208324 8.83986486,11.6208324 8.83986486,11.7916703 L8.83986486,13.6073189 L8.83986486,13.7208324 C9.35067568,13.2667784 9.80472973,12.7559676 10.2587838,12.3019135 L10.3722973,12.3592378 C10.4858108,12.4721838 10.5993243,12.6430216 10.7695946,12.7559676 C10.9398649,12.8694811 10.9966216,12.9829946 11.1101351,13.0965081 C11.2236486,13.2105892 11.4506757,13.4370486 11.6777027,13.6640757 L11.7912162,13.7208324 L11.7912162,13.6073189 L11.7912162,11.7343459 C11.7912162,11.6208324 11.7912162,11.6208324 11.9047297,11.6208324 L11.9614865,11.6208324 L12.0182432,11.6208324 L12.1317568,11.6208324 L13.7777027,11.6208324 L13.8344595,11.6208324 L13.7777027,11.5640757 L13.4939189,11.2802919 L12.6425676,10.4289405 L12.4722973,10.2019135 C12.4155405,10.1451568 12.4155405,10.1451568 12.4722973,10.0884 L12.5290541,10.0316432 L13.0398649,9.52083243 L13.1533784,9.40731892 L13.3804054,9.18029189 L13.4371622,9.18029189 L13.4939189,9.06677838 L13.6641892,8.89650811 L13.8912162,8.66948108 L13.7777027,8.66948108 L11.9047297,8.66948108 C11.7912162,8.66948108 11.7912162,8.66948108 11.7912162,8.55596757 L11.7912162,7.81812973 L11.7912162,6.73975135 L11.7912162,6.62623784 L10.3722973,8.04515676 L10.3155405,7.9884 L9.975,7.64785946 L9.23716216,6.91002162 L8.95337838,6.62623784 C8.95337838,6.62623784 8.89662162,6.56948108 8.89662162,6.62623784 L8.89662162,7.25056216 L8.89662162,8.49921081 C8.89662162,8.61272432 8.89662162,8.61272432 8.78310811,8.61272432 L6.79662162,8.66948108 Z M16.4452703,7.64785946 L16.3885135,7.76137297 L15.5939189,8.49921081 L14.7993243,9.29380541 C14.5155405,9.57758919 14.2317568,9.86137297 14.0047297,10.1451568 C13.947973,10.2019135 13.947973,10.2019135 14.0047297,10.2586703 L14.6858108,10.9403189 C14.7425676,10.9965081 14.8560811,11.1100216 14.9128378,11.1667784 L15.8777027,12.0754541 L16.3885135,12.5856973 L16.4452703,12.6430216 L16.3317568,12.6430216 L12.9263514,12.6430216 C12.8695946,12.6430216 12.8695946,12.6430216 12.8695946,12.7559676 L12.8695946,13.494373 L12.8695946,15.4808595 L12.8695946,16.161373 L12.8695946,16.2748865 L12.8128378,16.2181297 L12.5290541,15.9343459 L11.847973,15.2532649 C11.6209459,15.0262378 11.3939189,14.7992108 11.1668919,14.5721838 C10.9398649,14.3457243 10.7695946,14.1748865 10.5993243,14.0046162 L10.3722973,13.7781568 L10.202027,13.9478595 C9.91824324,14.2316432 9.63445946,14.515427 9.35067568,14.8559676 L8.10202703,16.1046162 C8.04527027,16.161373 7.98851351,16.2181297 7.93175676,16.2748865 L7.875,16.3322108 L7.875,16.2181297 L7.875,14.6856973 L7.875,12.8127243 C7.875,12.7559676 7.875,12.7559676 7.81824324,12.7559676 L4.41283784,12.7559676 C4.35608108,12.7559676 4.29932432,12.7559676 4.24256757,12.6992108 C4.35608108,12.5856973 4.46959459,12.4721838 4.58310811,12.3592378 C4.69662162,12.2451568 4.81013514,12.1316432 4.92364865,12.0181297 L5.26418919,11.6775892 L5.60472973,11.3370486 C5.71824324,11.2241027 5.83175676,11.1100216 5.94527027,10.9965081 L6.28581081,10.6559676 L6.62635135,10.315427 C6.51283784,10.2019135 6.39932432,10.0884 6.28581081,9.97488649 C6.1722973,9.86137297 6.05878378,9.74785946 5.94527027,9.63434595 L5.60472973,9.29380541 C5.49121622,9.18029189 5.3777027,9.06677838 5.26418919,8.95326486 L4.92364865,8.61272432 L4.58310811,8.27218378 C4.46959459,8.15867027 4.35608108,8.04515676 4.24256757,7.93164324 C4.12905405,7.81812973 4.01554054,7.70461622 3.95878378,7.5911027 L4.0722973,7.5911027 L4.75337838,7.5911027 L6.51283784,7.5911027 L6.91013514,7.5911027 L7.19391892,7.5911027 L7.42094595,7.5911027 C7.4777027,7.5911027 7.53445946,7.5911027 7.53445946,7.47758919 L7.53445946,6.05867027 L7.53445946,4.52623784 L7.53445946,4.12894054 L7.53445946,4.01542703 C7.59121622,4.01542703 7.59121622,4.07218378 7.64797297,4.07218378 L8.38581081,4.81002162 L8.78310811,5.20731892 C9.01013514,5.43434595 9.23716216,5.66137297 9.46418919,5.8884 L10.0317568,6.45596757 L10.0885135,6.51272432 C10.202027,6.45596757 10.2587838,6.39921081 10.3155405,6.2856973 L10.8831081,5.71812973 L11.7912162,5.09380541 L12.1317568,4.75326486 L12.5858108,4.29921081 L12.8128378,4.12894054 L12.8128378,4.29921081 L12.8128378,5.4911027 L12.8128378,6.11542703 L12.8128378,6.51272432 L12.8128378,7.19380541 L12.8128378,7.64785946 C12.8128378,7.81812973 12.8128378,7.70461622 12.8695946,7.70461622 L16.2182432,7.70461622 L16.4452703,7.64785946 Z" id="Fill-1" fill="#18A4DE"></path>
                <path d="M6.73980811,18.8289405 L6.62629459,18.8289405 L5.60467297,18.8289405 C5.49115946,18.8289405 5.49115946,18.8289405 5.49115946,18.715427 L5.49115946,16.7289405 L5.49115946,15.2532649 L5.49115946,15.0829946 C5.49115946,15.0262378 5.49115946,15.0262378 5.4344027,15.0262378 L4.69656486,15.0262378 C4.63980811,15.0262378 4.63980811,15.0262378 4.63980811,15.0829946 L4.63980811,15.4235351 L4.63980811,16.4451568 L4.63980811,17.6938054 L4.63980811,17.8073189 C4.63980811,17.8640757 4.58305135,17.8640757 4.58305135,17.8640757 L4.52629459,17.8640757 L3.95872703,17.8640757 L3.50467297,17.8640757 C3.39115946,17.8640757 3.39115946,17.8640757 3.39115946,17.7511297 L3.39115946,17.2397514 L3.39115946,16.6159946 L3.39115946,15.7646432 L3.39115946,15.0829946 C3.39115946,15.0262378 3.39115946,14.9694811 3.27764595,14.9694811 L2.59656486,14.9694811 L2.36953784,14.9694811 C2.31278108,14.9694811 2.19926757,14.9132919 2.14251081,14.9132919 C1.91548378,14.8559676 1.80197027,14.7424541 1.68845676,14.5721838 C1.6317,14.4586703 1.6317,14.4019135 1.6317,14.2884 L1.6317,13.8343459 C1.6317,13.6640757 1.6317,13.7208324 1.74521351,13.7208324 L4.69656486,13.7208324 L5.88845676,13.7208324 L6.62629459,13.7208324 C6.68305135,13.7208324 6.68305135,13.7208324 6.68305135,13.7781568 L6.68305135,14.4586703 L6.68305135,16.2748865 L6.68305135,17.9208324 L6.68305135,18.715427 L6.73980811,18.8289405 Z" id="Fill-3" fill="#005489"></path>
                <g id="Group-7" transform="translate(6.810811, 14.884459)">
                    <mask id="mask-2" fill="white">
                        <use xlink:href="#path-1"></use>
                    </mask>
                    <g id="Clip-6"></g>
                    <path d="M6.28586757,4.79583243 L5.94532703,4.45529189 L4.29938108,2.80934595 C4.12911081,2.63907568 3.90208378,2.41204865 3.73181351,2.24177838 L3.67505676,2.18502162 C3.6183,2.12826486 3.6183,2.12826486 3.56154324,2.18502162 L3.2210027,2.52556216 C3.16424595,2.58288649 3.10748919,2.63907568 3.05073243,2.75258919 C2.99397568,2.86667027 2.99397568,2.80934595 3.05073243,2.86667027 L3.6183,3.43423784 C3.95884054,3.77421081 4.24262432,4.05799459 4.58316486,4.39853514 L4.92370541,4.73907568 C4.98046216,4.79583243 4.98046216,4.79583243 4.92370541,4.90934595 L4.69667838,5.13694054 L4.24262432,5.59042703 C4.18586757,5.70450811 4.12911081,5.70450811 4.07235405,5.59042703 L3.2210027,4.73907568 L2.48316486,4.00180541 C2.36965135,3.88772432 2.31289459,3.83096757 2.19938108,3.71802162 C2.08586757,3.60394054 2.14262432,3.6606973 2.08586757,3.71802162 L1.5183,4.28558919 L1.40478649,4.39853514 C1.29127297,4.51204865 1.06424595,4.56937297 0.893975676,4.56937297 C0.780462162,4.56937297 0.610191892,4.51204865 0.496678378,4.45529189 C0.383164865,4.39853514 0.269651351,4.28558919 0.212894595,4.22826486 L0.0426243243,4.05799459 C-0.0141324324,4.00180541 -0.0141324324,3.94448108 0.0426243243,3.88772432 L0.553435135,3.37691351 C0.780462162,3.15045405 1.00748919,2.92285946 1.17775946,2.69583243 L2.14262432,1.73153514 L2.76694865,1.10664324 L3.33451622,0.539075676 L3.50478649,0.368805405 C3.56154324,0.312616216 3.56154324,0.312616216 3.67505676,0.368805405 L3.90208378,0.5964 L4.35613784,1.04988649 L5.49127297,2.18502162 L6.34262432,3.03637297 L7.08046216,3.77421081 C7.13721892,3.83096757 7.13721892,3.83096757 7.08046216,3.94448108 L6.62640811,4.39853514 L6.34262432,4.68231892 L6.28586757,4.79583243 Z" id="Fill-5" fill="#DF1983" mask="url(#mask-2)"></path>
                </g>
                <path d="M3.50484324,10.2020838 L2.82376216,9.5210027 L2.71024865,9.63451622 L2.14268108,10.2020838 L1.29132973,10.9966784 C1.12105946,11.1101919 1.00754595,11.2804622 0.837275676,11.4507324 C0.667005405,11.6210027 0.723762162,11.5074892 0.667005405,11.4507324 C0.610248649,11.3939757 0.439978378,11.2237054 0.326464865,11.1101919 L0.0426810811,10.7696514 C-0.0140756757,10.7128946 -0.0140756757,10.7128946 0.0426810811,10.5993811 L0.553491892,10.145327 L1.63187027,9.12370541 L1.97241081,8.78316486 L2.02916757,8.72640811 L1.74538378,8.49938108 C1.57511351,8.32911081 1.4616,8.15884054 1.29132973,8.04532703 C1.23457297,7.98857027 1.17781622,7.87505676 1.12105946,7.8183 C1.00754595,7.59127297 1.0643027,7.30748919 1.17781622,7.08046216 C1.23457297,6.96694865 1.34808649,6.91019189 1.40484324,6.85343514 L1.68862703,6.56965135 C1.74538378,6.62640811 1.74538378,6.68316486 1.80214054,6.68316486 C1.91565405,6.79667838 2.02916757,6.91019189 2.08592432,6.96694865 C2.36970811,7.19397568 2.59673514,7.47775946 2.82376216,7.70478649 L3.78862703,8.66965135 L4.35619459,9.23721892 C4.52646486,9.40748919 4.63997838,9.5210027 4.75349189,9.63451622 C4.86700541,9.74802973 4.98051892,9.86154324 5.09403243,9.97505676 L5.15078919,10.0318135 C5.20754595,10.0885703 5.20754595,10.0885703 5.15078919,10.145327 C5.09403243,10.2020838 4.98051892,10.3155973 4.92376216,10.4291108 L3.9588973,11.4507324 C3.67511351,11.7345162 3.39132973,12.0183 3.10754595,12.3020838 L1.97241081,13.4372189 L1.68862703,13.6642459 C1.63187027,13.7210027 1.63187027,13.7210027 1.57511351,13.6642459 L1.23457297,13.3804622 C1.12105946,13.2101919 0.950789189,13.0399216 0.837275676,12.9264081 C0.723762162,12.8128946 0.780518919,12.8696514 0.837275676,12.8128946 L1.34808649,12.3020838 C1.51835676,12.1318135 1.68862703,11.9615432 1.8588973,11.791273 L2.36970811,11.2804622 L2.76700541,10.8831649 L3.39132973,10.2588405 L3.50484324,10.2020838 Z" id="Fill-8" fill="#00ACD7"></path>
                <path d="M15.1965081,14.9130649 L15.1965081,15.1968486 L15.1965081,15.7070919 C15.1965081,15.7070919 15.1965081,15.821173 15.3100216,15.821173 L17.9208324,15.821173 L17.9775892,15.8773622 L17.9775892,16.5584432 L17.9775892,16.8995514 C17.9775892,16.8995514 17.9775892,17.0124973 17.8640757,17.0124973 L15.9343459,17.0124973 L15.3100216,17.0124973 C15.1965081,17.0124973 15.1965081,17.0124973 15.1965081,17.1260108 L15.1965081,17.4097946 L15.1965081,18.0346865 C15.1965081,18.1476324 15.1397514,18.2611459 15.0829946,18.375227 C14.9694811,18.5449297 14.7992108,18.7152 14.5721838,18.7725243 L14.515427,18.7725243 L13.9478595,18.7725243 C13.8911027,18.7725243 13.8911027,18.7725243 13.8343459,18.7152 C13.7775892,18.6590108 13.8343459,18.6022541 13.8343459,18.5449297 L13.8343459,16.6725243 L13.8343459,15.7644162 L13.8343459,14.4022541 L13.8343459,13.8346865 C13.8343459,13.7206054 13.8343459,13.7206054 13.9478595,13.7206054 L18.1478595,13.7206054 L18.715427,13.7206054 L18.7721838,13.7206054 C18.8289405,13.7206054 18.8289405,13.7206054 18.8289405,13.7779297 L18.8289405,14.1746595 L18.8289405,14.6860378 L18.8289405,14.7995514 L18.7721838,14.8557405 L15.2532649,14.8557405 L15.1397514,14.8557405" id="Fill-10" fill="#F26D25"></path>
                <path d="M6.73980811,5.60472973 L6.73980811,6.39932432 L6.73980811,6.51283784 L6.68305135,6.56959459 L6.62629459,6.56959459 L6.11548378,6.56959459 L5.15061892,6.56959459 L3.95872703,6.56959459 L1.80197027,6.56959459 C1.68845676,6.56959459 1.68845676,6.56959459 1.68845676,6.45608108 L1.68845676,5.3777027 L1.74521351,5.32094595 L1.97224054,5.32094595 L2.31278108,5.32094595 L3.10737568,5.32094595 L3.61818649,5.32094595 L4.52629459,5.3777027 L4.86683514,5.3777027 L5.37764595,5.3777027 C5.4344027,5.3777027 5.4344027,5.3777027 5.4344027,5.26418919 L5.4344027,4.58310811 C5.4344027,4.46959459 5.4344027,4.46959459 5.32088919,4.46959459 L4.1289973,4.46959459 L2.82359189,4.41283784 L2.76683514,4.41283784 C2.71007838,4.41283784 2.65332162,4.41283784 2.65332162,4.29932432 L2.65332162,3.675 L2.65332162,3.33445946 C2.65332162,3.22094595 2.65332162,3.22094595 2.76683514,3.22094595 L3.50467297,3.22094595 L3.95872703,3.22094595 C4.41278108,3.2777027 4.86683514,3.22094595 5.37764595,3.22094595 L5.4344027,3.22094595 C5.49115946,3.22094595 5.54791622,3.22094595 5.54791622,3.10743243 L5.54791622,2.76689189 L5.54791622,2.25608108 C5.54791622,2.02905405 5.66142973,1.85878378 5.8317,1.68851351 C5.94521351,1.575 6.05872703,1.51824324 6.17224054,1.51824324 L6.2289973,1.51824324 L6.73980811,1.51824324 C6.85332162,1.51824324 6.85332162,1.51824324 6.85332162,1.63175676 L6.85332162,2.88040541 L6.85332162,4.29932432 L6.73980811,5.60472973 Z" id="Fill-12" fill="#F89D25"></path>
                <path d="M19.6805189,8.78316486 L19.7372757,8.83992162 L20.3616,9.46424595 C20.4751135,9.57775946 20.4751135,9.57775946 20.3616,9.69127297 L19.9075459,10.2020838 C19.6237622,10.4858676 19.3967351,10.7696514 19.1129514,10.9966784 L18.6588973,11.4507324 C18.6021405,11.5074892 18.6021405,11.5074892 18.6588973,11.5642459 C18.7156541,11.6210027 18.8291676,11.7345162 18.8859243,11.8480297 C18.9426811,11.9615432 19.1697081,12.1318135 19.3399784,12.3020838 C19.3967351,12.3588405 19.4534919,12.4723541 19.4534919,12.5858676 L19.4534919,12.6426243 L19.4534919,12.8696514 C19.4534919,12.9831649 19.3967351,13.1534351 19.2832216,13.2669486 L19.2832216,13.3237054 C19.1697081,13.4372189 19.0561946,13.5507324 18.9994378,13.6642459 C18.9426811,13.7210027 18.9426811,13.7210027 18.8859243,13.6642459 C18.7156541,13.4939757 18.5453838,13.3237054 18.3751135,13.1534351 L17.9778162,12.7561378 L17.2399784,12.0183 L16.7291676,11.5074892 L16.1616,10.9399216 L15.7643027,10.5426243 L15.4805189,10.2020838 C15.4237622,10.145327 15.4237622,10.0885703 15.4805189,10.0318135 L16.5021405,9.06694865 L17.4102486,8.15884054 L18.1480865,7.4210027 C18.3751135,7.19397568 18.6021405,6.96694865 18.8291676,6.73992162 C18.8859243,6.68316486 18.8859243,6.68316486 18.9994378,6.73992162 L19.6805189,7.36424595 L19.7372757,7.4210027 L19.7372757,7.47775946 L19.6805189,7.53451622 L18.6021405,8.61289459 L17.5805189,9.63451622 C17.4670054,9.74802973 17.2967351,9.9183 17.1832216,10.0318135 C17.0697081,10.145327 17.1264649,10.0885703 17.1832216,10.145327 L17.6940324,10.6561378 C17.7507892,10.7128946 17.7507892,10.7128946 17.8643027,10.6561378 L18.5453838,9.97505676 L19.3967351,9.12370541 C19.5102486,9.06694865 19.5670054,8.95343514 19.6805189,8.83992162 L19.6805189,8.78316486 Z" id="Fill-14" fill="#40AE49"></path>
                <path d="M15.9345162,2.59673514 L15.991273,2.59673514 L17.0128946,2.59673514 C17.0696514,2.59673514 17.1264081,2.59673514 17.1264081,2.71024865 L17.1264081,3.10754595 L17.1264081,4.86700541 L17.1264081,5.20754595 C17.1264081,5.20754595 17.1264081,5.32105946 17.2399216,5.32105946 L17.8642459,5.32105946 L18.1480297,5.32105946 C18.2615432,5.32105946 18.3183,5.37781622 18.4318135,5.43457297 C18.6020838,5.54808649 18.7723541,5.6616 18.8291108,5.88862703 C18.8291108,5.94538378 18.8858676,6.00214054 18.8858676,6.0588973 L18.8858676,6.45619459 L18.8858676,6.51295135 C18.8858676,6.56970811 18.8858676,6.56970811 18.7723541,6.62646486 L14.0047865,6.62646486 C13.9480297,6.62646486 13.891273,6.62646486 13.891273,6.51295135 L13.891273,5.6616 L13.891273,5.15078919 L13.891273,3.10754595 L13.891273,2.08592432 L13.891273,1.68862703 C13.891273,1.51835676 13.891273,1.57511351 14.0047865,1.57511351 L15.0264081,1.57511351 C15.0831649,1.57511351 15.1399216,1.57511351 15.1399216,1.68862703 L15.1399216,2.02916757 L15.1399216,3.73187027 L15.1399216,5.09403243 L15.1399216,5.20754595 C15.1399216,5.32105946 15.1399216,5.32105946 15.2534351,5.32105946 L15.9345162,5.32105946 C16.0480297,5.32105946 16.0480297,5.32105946 16.0480297,5.20754595 L16.0480297,4.29943784 L16.0480297,3.05078919 L15.9345162,2.59673514 Z" id="Fill-16" fill="#FBB615"></path>
                <path d="M11.6777595,1.91554054 L12.1318135,1.46148649 C12.1885703,1.34797297 12.3020838,1.29121622 12.4155973,1.23445946 C12.5291108,1.1777027 12.5858676,1.12094595 12.6993811,1.12094595 L12.7561378,1.12094595 C12.9264081,1.06418919 13.1534351,1.12094595 13.3237054,1.23445946 C13.3804622,1.29121622 13.4372189,1.34797297 13.4939757,1.40472973 L13.7210027,1.63175676 C13.7777595,1.68851351 13.7777595,1.68851351 13.7210027,1.80202703 L13.0399216,2.42635135 L12.245327,3.22094595 C12.0750568,3.39121622 11.9047865,3.61824324 11.6777595,3.78851351 C11.4507324,3.95878378 11.3372189,4.12905405 11.1101919,4.29932432 L10.5993811,4.81013514 L10.3155973,5.09391892 L10.2020838,5.03716216 L9.57775946,4.35608108 L9.06694865,3.84527027 L7.93181351,2.71013514 L7.25073243,2.02905405 C7.19397568,1.9722973 7.13721892,1.91554054 7.08046216,1.85878378 C7.02370541,1.74527027 6.96694865,1.68851351 6.85343514,1.68851351 L6.79667838,1.51824324 L7.02370541,1.29121622 L7.53451622,0.837162162 C7.59127297,0.780405405 7.59127297,0.780405405 7.70478649,0.837162162 L8.04532703,1.12094595 L8.83992162,1.91554054 L9.69127297,2.82364865 L10.2020838,3.33445946 L10.2588405,3.33445946 L10.5993811,2.99391892 L10.8264081,2.82364865 C10.8831649,2.76689189 10.8831649,2.76689189 10.8264081,2.71013514 L10.4858676,2.36959459 L9.46424595,1.34797297 L9.01019189,0.893918919 L8.95343514,0.837162162 C8.89667838,0.780405405 8.89667838,0.780405405 8.95343514,0.666891892 L9.12370541,0.553378378 L9.63451622,0.0425675676 C9.69127297,-0.0141891892 9.74802973,-0.0141891892 9.80478649,0.0425675676 C9.97505676,0.212837838 10.145327,0.383108108 10.3155973,0.553378378 L10.9399216,1.1777027 L11.6210027,1.85878378 L11.6777595,1.91554054 Z" id="Fill-18" fill="#EA1D30"></path>
                <polygon id="Fill-20" fill="#231F20" points="8.44251081 8.55619459 8.44251081 8.55619459 8.38575405 8.55619459"></polygon>
                <path d="M24.3344027,1.34797297 L24.3344027,19.1695946" id="Fill-26" fill="#FFFFFF"></path>
                <mask id="mask-4" fill="white">
                    <use xlink:href="#path-3"></use>
                </mask>
                <g id="Clip-29"></g>
                <polygon id="Fill-28" fill="#FFFFFF" mask="url(#mask-4)" points="24.0506757 19.1695946 24.6182432 19.1695946 24.6182432 1.34797297 24.0506757 1.34797297"></polygon>
                <path d="M39.5453838,13.8909892 C39.5453838,11.2239892 31.7129514,11.5639622 31.7129514,6.22882703 C31.7129514,3.44831351 34.1534919,1.23423243 37.6724108,1.23423243 C40.5102486,1.23423243 42.2697081,2.53963784 42.8372757,3.27747568 L40.5102486,6.00236757 C39.7724108,5.03693514 38.5805189,4.41261081 37.3318703,4.41261081 C36.1399784,4.41261081 35.4588973,5.09369189 35.4588973,5.94504324 C35.4588973,8.66936757 43.234573,8.27263784 43.234573,13.6645297 C43.234573,16.2185838 41.134573,18.6585568 36.8210595,18.6585568 C33.5291676,18.6585568 31.5426811,17.1834486 30.9183568,16.5585568 L33.0183568,13.4942595 C33.7561946,14.2320973 35.2318703,15.5369351 37.2751135,15.5369351 C38.8075459,15.5369351 39.488627,14.7996649 39.5453838,13.8909892" id="Fill-30" fill="#FFFFFF" mask="url(#mask-4)"></path>
                <path d="M48.8534351,15.3670054 L50.2155973,15.3670054 C53.6777595,15.3670054 54.6426243,13.1534919 54.6426243,9.91835676 C54.6426243,5.83187027 52.8264081,4.52646486 50.1588405,4.52646486 L48.8534351,4.52646486 L48.8534351,15.3670054 Z M45.1642459,1.4616 L50.4426243,1.4616 C55.9480297,1.4616 58.445327,4.12916757 58.445327,9.57781622 C58.445327,13.8907622 56.7426243,18.4313027 50.4993811,18.4313027 L45.1642459,18.4313027 L45.1642459,1.4616 Z" id="Fill-31" fill="#FFFFFF" mask="url(#mask-4)"></path>
                <path d="M73.0884,3.1643027 L70.7046162,5.77511351 C69.9100216,4.86700541 68.7748865,4.35619459 67.5829946,4.41295135 C65.3694811,4.41295135 63.4965081,5.6616 63.4965081,9.69132973 C63.4965081,13.8907622 64.8586703,15.7075459 67.6965081,15.7075459 C68.2640757,15.7075459 68.7748865,15.6507892 69.2856973,15.4805189 L69.2856973,9.69132973 L72.9748865,9.69132973 L72.9748865,17.1832216 C71.7262378,18.034573 70.0235351,18.6588973 66.9019135,18.6588973 C62.0775892,18.6588973 59.6938054,15.7643027 59.6938054,10.088627 C59.6938054,3.9588973 63.2694811,1.23457297 67.7532649,1.23457297 C71.1019135,1.23457297 72.6343459,2.65349189 73.0884,3.1643027" id="Fill-32" fill="#FFFFFF" mask="url(#mask-4)"></path>
                <polygon id="Fill-33" fill="#FFFFFF" mask="url(#mask-4)" points="81.7155405 18.4315297 81.7155405 1.46182703 90.3425676 1.46182703 90.3425676 2.82342162 83.1912162 2.82342162 83.1912162 9.57747568 89.4912162 9.57747568 89.4912162 10.9402054 83.1912162 10.9402054 83.1912162 18.4888541 81.7155405 18.4888541"></polygon>
                <path d="M102.31813,12.8694811 L102.31813,1.46137297 L103.794373,1.46137297 L103.794373,12.7559676 C103.794373,16.5019135 101.637049,18.715427 97.8349135,18.715427 C94.1457243,18.715427 92.0451568,16.6159946 92.0451568,12.9268054 L92.0451568,1.46137297 L93.5208324,1.46137297 L93.5208324,12.6992108 C93.5208324,15.8775892 95.3370486,17.2965081 98.0046162,17.2965081 C100.672751,17.2965081 102.31813,16.1046162 102.31813,12.8694811" id="Fill-34" fill="#FFFFFF" mask="url(#mask-4)"></path>
                <polygon id="Fill-35" fill="#FFFFFF" mask="url(#mask-4)" points="110.037389 2.82370541 105.439524 2.82370541 105.439524 1.46154324 116.109795 1.46154324 116.109795 2.82370541 111.513065 2.82370541 111.513065 18.4318135 110.037389 18.4318135"></polygon>
                <path d="M128.028827,12.8694811 L128.028827,1.46137297 L129.50507,1.46137297 L129.50507,12.7559676 C129.50507,16.5019135 127.348314,18.715427 123.545611,18.715427 C119.856422,18.715427 117.755854,16.6159946 117.755854,12.9268054 L117.755854,1.46137297 L119.174773,1.46137297 L119.174773,12.6992108 C119.174773,15.8775892 120.991557,17.2965081 123.659124,17.2965081 C126.326124,17.2965081 128.028827,16.1046162 128.028827,12.8694811" id="Fill-36" fill="#FFFFFF" mask="url(#mask-4)"></path>
                <path d="M134.612951,9.86148649 L136.996735,9.86148649 C139.437276,9.86148649 141.139978,8.89662162 141.139978,6.34256757 C141.139978,3.78851351 139.663735,2.82364865 136.825897,2.82364865 L134.612951,2.82364865 L134.612951,9.86148649 Z M137.053492,1.46148649 C140.515086,1.46148649 142.672411,2.82364865 142.672411,6.1722973 C142.672411,8.89662162 140.856195,10.5993243 138.756195,10.7695946 L138.756195,10.8831081 C139.379951,11.1668919 140.004843,11.6777027 140.742681,12.9831081 L144.034573,18.4317568 L142.275114,18.4317568 L139.096168,13.0398649 C138.358897,11.7912162 137.507546,11.2236486 136.145384,11.2236486 L134.499438,11.2236486 L134.499438,18.4317568 L133.023762,18.4317568 L133.023762,1.46148649 L137.053492,1.46148649 Z" id="Fill-37" fill="#FFFFFF" mask="url(#mask-4)"></path>
                <polygon id="Fill-38" fill="#FFFFFF" mask="url(#mask-4)" points="146.418243 18.4315297 146.418243 1.46182703 155.158784 1.46182703 155.158784 2.82342162 147.893919 2.82342162 147.893919 9.18017838 154.307432 9.18017838 154.307432 10.5429081 147.893919 10.5429081 147.893919 17.1261243 155.499324 17.1261243 155.499324 18.4888541"></polygon>
                <path d="M165.545384,14.174773 C165.545384,10.0315297 157.372411,11.0531514 157.372411,5.66125946 C157.372411,3.16452973 159.472411,1.23423243 162.423762,1.23423243 C163.899438,1.17804324 165.375114,1.63152973 166.567005,2.48288108 L165.715654,3.67477297 C164.750789,2.93693514 163.558897,2.59696216 162.366438,2.59696216 C160.153492,2.59696216 158.848086,3.84504324 158.848086,5.54774595 C158.848086,9.8045027 167.021059,8.84020541 167.021059,14.061827 C167.021059,16.6158811 165.034573,18.6585568 161.572411,18.6585568 C159.699438,18.7153135 157.883222,18.1477459 156.406978,16.9558541 L157.315654,15.8207189 C158.564303,16.7861514 160.096168,17.3537189 161.685924,17.2963946 C164.183222,17.2963946 165.545384,15.9348 165.545384,14.174773" id="Fill-39" fill="#FFFFFF" mask="url(#mask-4)"></path>
            </g>
        </g>
    </g>
</svg>