<?xml version="1.0" encoding="UTF-8"?>
<svg width="171px" height="22px" viewBox="0 0 171 22" version="1.1" xmlns="http://www.w3.org/2000/svg" xmlns:xlink="http://www.w3.org/1999/xlink">
    <!-- Generator: Sketch 51.3 (57544) - http://www.bohemiancoding.com/sketch -->
    <title>Group 50</title>
    <desc>Created with Sketch.</desc>
    <defs>
        <polygon id="path-1" points="0.568667277 0.429967819 7.83351997 0.429967819 7.83351997 5.78947368 0.568667277 5.78947368"></polygon>
        <polygon id="path-3" points="0.566789474 0.490368421 7.72092542 0.490368421 7.72092542 5.70847895 0.566789474 5.70847895"></polygon>
        <polygon id="path-5" points="0.337873684 0.0162684211 11.1771579 0.0162684211 11.1771579 17.8183211 0.337873684 17.8183211"></polygon>
    </defs>
    <g id="Symbols" stroke="none" stroke-width="1" fill="none" fill-rule="evenodd">
        <g id="Footer-final" transform="translate(-51.000000, -44.000000)">
            <g id="Group-50" transform="translate(51.000000, 44.000000)">
                <path d="M12.1819211,6.17447368 L12.1952368,6.16578947 L12.1830789,6.13278947 L12.1500789,6.11484211 L12.1413947,6.12815789 L12.1819211,6.17447368 Z M8.62544737,9.31584211 L8.59939474,9.29210526 L8.55828947,9.34015789 L8.58144737,9.35810526 L8.62544737,9.31584211 Z M6.95171053,9.44436842 L7.02060526,9.53005263 C7.16418421,9.67421053 7.31297368,9.81778947 7.45828947,9.96310526 C7.70260526,10.2114737 7.9475,10.4581053 8.19007895,10.7064737 C8.25318421,10.7695789 8.31571053,10.8326842 8.3765,10.8992632 L8.36723684,11.0081053 C8.29023684,11.0793158 8.21786842,11.1493684 8.14723684,11.2228947 C7.99671053,11.3722632 7.84792105,11.5239474 7.69913158,11.6727368 C7.47102632,11.8956316 7.24292105,12.1179474 7.01655263,12.342 L6.96097368,12.4276842 C7.01307895,12.43 7.04492105,12.4317368 7.07676316,12.4317368 C7.26492105,12.4352105 7.45423684,12.4357895 7.64355263,12.4369474 C7.75123684,12.4398421 7.86123684,12.4398421 7.9695,12.4398421 C8.28676316,12.4392632 8.60576316,12.4352105 8.92418421,12.4352105 C9.05039474,12.4357895 9.06197368,12.4560526 9.06197368,12.5845789 C9.06081579,13.0523684 9.05965789,13.5184211 9.05965789,13.9862105 C9.05965789,14.135 9.06081579,14.2861053 9.06197368,14.4343158 C9.06197368,14.4609474 9.06834211,14.4881579 9.07818421,14.5373684 C9.57955263,14.0504737 10.0485,13.5612632 10.5423421,13.0876842 L10.6407632,13.1710526 C10.7704474,13.3111579 10.8943421,13.4570526 11.0315526,13.5907895 C11.1450263,13.706 11.2776053,13.8021053 11.3922368,13.9132632 C11.5809737,14.0938947 11.7650789,14.2826316 11.9491842,14.4661579 L12.0412368,14.5443158 L12.0539737,14.4493684 C12.0539737,14.1378947 12.0551316,13.8258421 12.0539737,13.5161053 C12.0539737,13.1971053 12.0528158,12.8792632 12.0528158,12.5614211 C12.0528158,12.463 12.0701842,12.4473684 12.1697632,12.4525789 L12.2265,12.4670526 L12.2705,12.4705263 L12.3961316,12.4572105 C12.6294474,12.4572105 12.8616053,12.4601053 13.0926053,12.4601053 C13.2379211,12.4601053 13.3820789,12.4560526 13.5291316,12.4560526 C13.7086053,12.4560526 13.8851842,12.4601053 14.0640789,12.4601053 L14.1347105,12.4392632 L14.0831842,12.3784737 C13.9899737,12.2823684 13.8932895,12.1856842 13.7960263,12.0913158 C13.5030789,11.7972105 13.2072368,11.506 12.9171842,11.2130526 C12.8471316,11.1470526 12.7805526,11.0793158 12.7145526,11.0081053 C12.6728684,10.9588947 12.6792368,10.9316842 12.7243947,10.8876842 L12.7915526,10.8280526 C12.9629211,10.6572632 13.1313947,10.4864737 13.3039211,10.3151053 L13.4110263,10.2132105 C13.4833947,10.1391053 13.5511316,10.065 13.6211842,9.99031579 L13.6680789,10.0175263 L13.7097632,9.91215789 C13.7653421,9.84384211 13.8330789,9.78305263 13.8932895,9.71821053 C13.9621842,9.64063158 14.0322368,9.56247368 14.1103947,9.47852632 L14.0015526,9.46521053 C13.6559211,9.46173684 13.3085526,9.46173684 12.9594474,9.46 C12.6885,9.46 12.4152368,9.46173684 12.1460263,9.46 C12.0516579,9.46 12.0435526,9.44784211 12.0412368,9.35521053 C12.0412368,9.09526316 12.0435526,8.83242105 12.0412368,8.57131579 C12.0395,8.19615789 12.0371842,7.82215789 12.0342895,7.44642105 C12.0342895,7.42442105 12.0279211,7.40068421 12.0198158,7.35089474 C11.5230789,7.85284211 11.0448684,8.33510526 10.5626053,8.82547368 L10.4775,8.75484211 C10.3698158,8.64947368 10.2621316,8.54352632 10.1550263,8.43468421 C9.90897368,8.18863158 9.66407895,7.94084211 9.41744737,7.69594737 C9.32886842,7.60678947 9.24028947,7.51763158 9.14939474,7.42789474 C9.12739474,7.40473684 9.10655263,7.37405263 9.05386842,7.40763158 C9.05386842,7.612 9.05155263,7.82215789 9.05155263,8.03521053 C9.05271053,8.46247368 9.05386842,8.888 9.05734211,9.31526316 C9.05792105,9.41368421 9.04865789,9.44089474 8.94155263,9.44089474 C8.69781579,9.43915789 8.45118421,9.44089474 8.20571053,9.43915789 C7.82071053,9.43915789 7.43107895,9.43568421 7.04260526,9.43452632 L6.95171053,9.44436842 Z M16.7683421,8.393 L16.6838158,8.49026316 C16.4325526,8.74326316 16.1743421,8.99394737 15.9201842,9.24694737 C15.6532895,9.51326316 15.3852368,9.77842105 15.1183421,10.0470526 C14.8398684,10.3255263 14.5642895,10.6080526 14.2887105,10.8888421 C14.2209737,10.9565789 14.2209737,10.967 14.2887105,11.033 C14.5202895,11.2663158 14.7559211,11.4990526 14.9898158,11.7312105 C15.0679737,11.8099474 15.1420789,11.8886842 15.2196579,11.9627895 C15.5427105,12.2777368 15.8657632,12.5921053 16.1882368,12.9082105 C16.3682895,13.0865263 16.5500789,13.2665789 16.7289737,13.4501053 L16.8013421,13.5381053 C16.7411316,13.5438947 16.7046579,13.5508421 16.6652895,13.5508421 C16.1494474,13.5508421 15.6330263,13.5491053 15.1160263,13.5479474 C14.5399737,13.5456316 13.9621842,13.5444737 13.3867105,13.5444737 L13.2483421,13.5496842 C13.1690263,13.5566316 13.1586053,13.5699474 13.1586053,13.6504211 C13.1586053,13.904 13.1586053,14.1541053 13.1603421,14.4059474 C13.1649737,15.0746316 13.1690263,15.7450526 13.1748158,16.4131579 C13.1759737,16.6412632 13.1817632,16.8716842 13.1829211,17.0997895 C13.1829211,17.1374211 13.1782895,17.1756316 13.1748158,17.2283158 L13.1053421,17.1837368 C13.0005526,17.0841579 12.8934474,16.9816842 12.7903947,16.8803684 C12.5524474,16.6435789 12.3156579,16.4067895 12.0806053,16.1711579 C11.8536579,15.9430526 11.6290263,15.7114737 11.4009211,15.4845263 C11.1977105,15.2813158 10.9933421,15.0781053 10.7883947,14.8737368 C10.7108158,14.7984737 10.6332368,14.7220526 10.5475526,14.6398421 C10.4809737,14.7035263 10.4178684,14.7562105 10.3599737,14.8141053 C10.0606579,15.114 9.76018421,15.4133158 9.46434211,15.7166842 C9.04402632,16.1451053 8.62602632,16.5752632 8.20918421,17.0054211 C8.14607895,17.0679474 8.08644737,17.1345263 8.02218421,17.1970526 L7.95444737,17.2462632 C7.94923684,17.1877895 7.94460526,17.1472632 7.94460526,17.1067368 C7.94634211,16.5804737 7.9475,16.0530526 7.9475,15.5250526 C7.94923684,14.9756316 7.9475,14.4250526 7.9475,13.8744737 C7.9475,13.7905263 7.94923684,13.7094737 7.9475,13.6261053 C7.9475,13.5577895 7.93476316,13.5479474 7.86413158,13.5479474 C7.36971053,13.5456316 6.87644737,13.5479474 6.38434211,13.5456316 C5.98834211,13.5456316 5.59581579,13.5427368 5.20213158,13.5404211 C4.94044737,13.5404211 4.67992105,13.5456316 4.4165,13.5456316 C4.36902632,13.5456316 4.3175,13.5531579 4.26713158,13.508 C4.37655263,13.3719474 4.51086842,13.2654211 4.62955263,13.1415263 C4.74997368,13.0135789 4.87676316,12.8925789 5.00239474,12.7692632 C5.12513158,12.6476842 5.24786842,12.5284211 5.37060526,12.4091579 C5.49507895,12.2881579 5.62244737,12.1717895 5.74692105,12.0519474 C5.86965789,11.9309474 5.98834211,11.8076316 6.11223684,11.6866316 C6.23555263,11.5621579 6.36234211,11.4394211 6.48681579,11.3161053 C6.60839474,11.1939474 6.72881579,11.0712105 6.85328947,10.9438421 C6.76007895,10.8153158 6.63965789,10.7221053 6.53371053,10.6132632 C6.42892105,10.5015263 6.32239474,10.3944211 6.21413158,10.2855789 C6.10702632,10.1778947 5.99760526,10.0731053 5.88934211,9.96542105 C5.78281579,9.85657895 5.67744737,9.74426316 5.57092105,9.63773684 C5.46323684,9.53005263 5.34976316,9.42584211 5.24323684,9.317 C5.13323684,9.21047368 5.03018421,9.10047368 4.92307895,8.99394737 C4.81713158,8.88510526 4.70307895,8.77973684 4.59828947,8.67031579 C4.49986842,8.56031579 4.37481579,8.47115789 4.28681579,8.32178947 C4.34065789,8.31889474 4.37655263,8.30963158 4.41071053,8.30963158 C4.63939474,8.31542105 4.86518421,8.32294737 5.09444737,8.32815789 C5.22297368,8.32989474 5.35323684,8.32989474 5.48060526,8.32989474 L6.13771053,8.32989474 C6.39592105,8.32989474 6.65355263,8.32989474 6.91176316,8.33336842 C7.03797368,8.33510526 7.16765789,8.34552632 7.29618421,8.349 C7.39865789,8.349 7.50055263,8.33742105 7.60302632,8.33626316 C7.68292105,8.33510526 7.76744737,8.33626316 7.85023684,8.33742105 C7.92897368,8.33742105 7.96081579,8.31078947 7.96081579,8.23378947 C7.95618421,7.74921053 7.94923684,7.26 7.94923684,6.77426316 C7.94923684,6.25031579 7.95213158,5.72636842 7.95213158,5.20242105 C7.95444737,5.07621053 7.94923684,4.95 7.94923684,4.82494737 L7.95734211,4.71494737 C8.01755263,4.71957895 8.04128947,4.75894737 8.07023684,4.78673684 C8.32207895,5.04089474 8.57507895,5.29736842 8.82402632,5.54863158 C8.95660526,5.68468421 9.08744737,5.82189474 9.22176316,5.95505263 C9.45565789,6.19242105 9.69534211,6.42805263 9.93213158,6.66426316 C10.1162368,6.84894737 10.3003421,7.03594737 10.4844474,7.22236842 L10.5382895,7.271 C10.6407632,7.21021053 10.7108158,7.12336842 10.7907105,7.04463158 C10.9771316,6.86110526 11.1600789,6.67526316 11.3453421,6.49173684 C11.5844474,6.25147368 11.8229737,6.01236842 12.0620789,5.775 C12.1859737,5.65342105 12.3092895,5.53415789 12.4314474,5.41257895 C12.5825526,5.26089474 12.7342368,5.10921053 12.8870789,4.95694737 C12.9530789,4.89210526 13.0202368,4.83247368 13.1053421,4.752 C13.1198158,4.81915789 13.1348684,4.86315789 13.1348684,4.90484211 C13.1313947,5.30489474 13.1273421,5.70031579 13.1250263,6.09921053 C13.1244474,6.31052632 13.1221316,6.52068421 13.1221316,6.73373684 C13.1198158,6.87326316 13.1250263,7.01163158 13.1273421,7.15 C13.1273421,7.37752632 13.1296579,7.60678947 13.1308158,7.83431579 C13.1313947,7.98368421 13.1313947,8.13305263 13.1348684,8.28357895 C13.1348684,8.35131579 13.1528158,8.36810526 13.2257632,8.371 C13.3282368,8.371 13.4318684,8.36810526 13.5343421,8.36810526 C13.9482895,8.36984211 14.3622368,8.371 14.7767632,8.371 C15.0957632,8.37331579 15.4176579,8.37794737 15.7401316,8.37794737 C16.0406053,8.37794737 16.3428158,8.37621053 16.6444474,8.37621053 C16.6786053,8.37621053 16.7127632,8.38663158 16.7683421,8.393 Z" id="Fill-1" fill="#FEFEFE"></path>
                <path d="M6.87638947,19.8122737 L6.75538947,19.8267474 C6.42191579,19.8290632 6.08554737,19.8302211 5.75323158,19.8308 C5.65365263,19.8308 5.6496,19.8238526 5.65075789,19.7231158 C5.65249474,19.0503789 5.65365263,18.3770632 5.65712632,17.7049053 C5.65944211,17.1971684 5.66349474,16.6917474 5.66812632,16.1828526 C5.66812632,16.1272737 5.66696842,16.0716947 5.66696842,16.0149579 C5.66349474,15.9524316 5.65249474,15.9420105 5.58938947,15.9368 L5.47012632,15.9368 C5.26865263,15.9368 5.06717895,15.9385368 4.86396842,15.9396947 L4.8136,15.9425895 C4.76496842,15.9449053 4.74354737,15.9703789 4.74296842,16.0184316 C4.74007368,16.1382737 4.73544211,16.2569579 4.73544211,16.3762211 C4.73254737,16.7096947 4.73428421,17.0391158 4.73254737,17.3685368 C4.73138947,17.8010105 4.72675789,18.2323263 4.72444211,18.6624842 L4.72328421,18.7614842 C4.71981053,18.8124316 4.6926,18.8402211 4.64107368,18.8460105 L4.61270526,18.8471684 C4.42686316,18.8460105 4.24102105,18.8413789 4.05575789,18.8448526 C3.90754737,18.8448526 3.75875789,18.8535368 3.60881053,18.8587474 L3.57002105,18.8599053 C3.48549474,18.8587474 3.47391579,18.8460105 3.47391579,18.7591684 C3.47391579,18.5906947 3.47681053,18.4210632 3.47681053,18.2525895 C3.47912632,18.0395368 3.47681053,17.8276421 3.47912632,17.6145895 C3.4826,17.3175895 3.48838947,17.0211684 3.49302105,16.7218526 C3.49649474,16.4943263 3.49649474,16.2644842 3.49649474,16.0363789 C3.49649474,15.9518526 3.49070526,15.9437474 3.4056,15.9437474 C3.15549474,15.9425895 2.90365263,15.9449053 2.64949474,15.9449053 C2.56554737,15.9449053 2.47928421,15.9535895 2.3936,15.9437474 C2.31949474,15.9350632 2.24249474,15.9159579 2.17533684,15.8823789 C1.99238947,15.7880105 1.84070526,15.6594842 1.75038947,15.4672737 C1.70581053,15.3717474 1.6786,15.2779579 1.68265263,15.1714316 C1.69017895,15.0214842 1.68265263,14.8732737 1.68265263,14.7221684 C1.68265263,14.6196947 1.71623158,14.6000105 1.80481053,14.6011684 C2.08270526,14.6029053 2.36291579,14.6000105 2.63965263,14.5988526 C3.00786316,14.5959579 3.37665263,14.5948 3.74486316,14.5936421 C4.10496842,14.5936421 4.46507368,14.5988526 4.82633684,14.5988526 C5.23565263,14.5959579 5.64265263,14.5907474 6.04907368,14.5907474 C6.24128421,14.5895895 6.43233684,14.5948 6.62570526,14.5959579 C6.68881053,14.5988526 6.75191579,14.5959579 6.81502105,14.5988526 C6.88738947,14.6011684 6.90012632,14.6168 6.90012632,14.6885895 C6.89723158,14.9138 6.89491579,15.1390105 6.89491579,15.3659579 C6.89375789,15.6635368 6.89491579,15.9599579 6.89491579,16.2581158 C6.89375789,16.5875368 6.89375789,16.9158 6.89375789,17.2434842 C6.89144211,17.7934842 6.89144211,18.3434842 6.89144211,18.8940632 L6.89144211,19.7190632 L6.87638947,19.8122737 Z" id="Fill-3" fill="#CE3481"></path>
                <g id="Group-7" transform="translate(6.368421, 15.720158)">
                    <mask id="mask-2" fill="white">
                        <use xlink:href="#path-1"></use>
                    </mask>
                    <g id="Clip-6"></g>
                    <path d="M6.99628947,4.93708947 C6.86660526,4.8103 6.74792105,4.69451053 6.63213158,4.57756316 C6.08271053,4.02524737 5.53386842,3.47351053 4.98271053,2.91945789 C4.78760526,2.72261579 4.59423684,2.52403684 4.39681579,2.32603684 L4.34181579,2.2693 C4.29028947,2.22645789 4.25960526,2.22414211 4.21271053,2.27219474 C4.09634211,2.38451053 3.98113158,2.50087895 3.86823684,2.61608947 C3.80339474,2.68498421 3.73623684,2.75619474 3.67255263,2.82914211 C3.62797368,2.88066842 3.62797368,2.89456316 3.67834211,2.94493158 C3.86765789,3.13135263 4.05465789,3.31777368 4.2405,3.50361579 C4.56586842,3.83072105 4.88776316,4.15898421 5.21255263,4.48666842 C5.33239474,4.60535263 5.45339474,4.72345789 5.57034211,4.84561579 C5.63518421,4.91161579 5.63518421,4.92493158 5.57265789,4.99266842 C5.49507895,5.07545789 5.41518421,5.15419474 5.33702632,5.23640526 C5.1865,5.39851053 5.03539474,5.56177368 4.88544737,5.72561579 C4.80728947,5.81014211 4.78239474,5.81014211 4.70076316,5.72966842 C4.41997368,5.44540526 4.13628947,5.15998421 3.85492105,4.87340526 C3.60886842,4.62098421 3.36281579,4.36451053 3.11792105,4.10861579 C3.02355263,4.01019474 2.92918421,3.91293158 2.83307895,3.81798421 C2.77518421,3.76066842 2.75144737,3.75835263 2.69239474,3.81856316 C2.49207895,4.02061579 2.29176316,4.22324737 2.09318421,4.42703684 L2.00055263,4.51851053 C1.86044737,4.66151053 1.67634211,4.71824737 1.48760526,4.72056316 C1.35792105,4.72114211 1.21955263,4.68756316 1.09507895,4.62503684 C0.974078947,4.56772105 0.889552632,4.47335263 0.805026316,4.37666842 C0.745394737,4.30893158 0.681710526,4.24640526 0.619763158,4.18214211 C0.552026316,4.11440526 0.552026316,4.09414211 0.617447368,4.02640526 C0.788236842,3.85156316 0.958447368,3.67498421 1.13213158,3.50072105 C1.35386842,3.27435263 1.57792105,3.04624737 1.80081579,2.82045789 C2.12097368,2.49740526 2.44055263,2.17551053 2.76128947,1.85477368 C2.96913158,1.64461579 3.17523684,1.43445789 3.38192105,1.2243 C3.57876316,1.02340526 3.77444737,0.821352632 3.97360526,0.621615789 C4.02397368,0.571247368 4.07897368,0.523194737 4.13339474,0.473405263 C4.19592105,0.414931579 4.21965789,0.414352632 4.28218421,0.478615789 C4.36323684,0.560826316 4.43965789,0.645931579 4.52360526,0.728142105 C4.68281579,0.887352632 4.84376316,1.04424737 5.00413158,1.20345789 C5.39086842,1.59019474 5.77413158,1.97751053 6.16086842,2.36598421 C6.45381579,2.66240526 6.75139474,2.95651053 7.0455,3.25119474 C7.29213158,3.49724737 7.53818421,3.74561579 7.78365789,3.99051053 C7.84907895,4.05824737 7.85197368,4.07561579 7.78134211,4.14393158 C7.64413158,4.28345789 7.50286842,4.42066842 7.3645,4.56019474 C7.27765789,4.64819474 7.19313158,4.74256316 7.10513158,4.83345789 L6.99628947,4.93708947 Z" id="Fill-5" fill="#962B45" mask="url(#mask-2)"></path>
                </g>
                <path d="M3.56897895,10.9954842 C3.34724211,10.7737474 3.13418947,10.5601158 2.91129474,10.3366421 L2.80418947,10.4281158 C2.61255789,10.6156947 2.41976842,10.8026947 2.22813684,10.9902737 C1.94329474,11.2664316 1.66250526,11.5391158 1.38113684,11.8152737 C1.23061053,11.9617474 1.0824,12.1082211 0.935347368,12.2564316 C0.848505263,12.3421158 0.843294737,12.3444316 0.751242105,12.2587474 C0.637189474,12.1533789 0.527768421,12.0433789 0.417189474,11.9316421 C0.295031579,11.8100632 0.172294737,11.6884842 0.0507157895,11.5669053 C-0.0158631579,11.5009053 -0.0181789474,11.4829579 0.0524526316,11.4152211 C0.215136842,11.2560105 0.380715789,11.0991158 0.544557895,10.9393263 C0.908715789,10.5850105 1.27345263,10.2324316 1.63761053,9.87927368 C1.74761053,9.77043158 1.86050526,9.66216842 1.97050526,9.55216842 L2.04229474,9.47632632 C1.95834737,9.39064211 1.88076842,9.30958947 1.79971579,9.23143158 C1.64282105,9.07453684 1.48650526,8.91764211 1.32671579,8.76422105 C1.25724211,8.69648421 1.20976842,8.62064211 1.17155789,8.53495789 C1.05113684,8.26401053 1.08587368,8.00348421 1.23871579,7.75858947 C1.30182105,7.65901053 1.39908421,7.58258947 1.48245263,7.49806316 C1.55424211,7.42569474 1.63008421,7.35737895 1.72155789,7.27053684 C1.7644,7.3238 1.79624211,7.3678 1.83676842,7.40890526 C1.93808421,7.51485263 2.03476842,7.62369474 2.14650526,7.71864211 C2.42324211,7.95311579 2.66408421,8.22001053 2.91824211,8.47474737 C3.25634737,8.81285263 3.59908421,9.14574737 3.93487368,9.48269474 C4.1294,9.6778 4.31755789,9.87927368 4.51034737,10.0743789 C4.62787368,10.1959579 4.75003158,10.3111684 4.86929474,10.4310105 C4.99145263,10.5514316 5.10897895,10.6770632 5.23171579,10.7998 L5.2954,10.8605895 C5.35966316,10.9231158 5.36082105,10.9439579 5.30003158,11.0076421 C5.21145263,11.0956421 5.12750526,11.1830632 5.03892632,11.2687474 C4.70255789,11.5975895 4.36445263,11.9241158 4.02866316,12.2564316 C3.74324211,12.5354842 3.46245263,12.8185895 3.17645263,13.1011158 C2.78797895,13.4820632 2.39776842,13.8601158 2.00987368,14.2387474 C1.91782105,14.3296421 1.8304,14.4234316 1.73950526,14.5172211 C1.67987368,14.5751158 1.65787368,14.5739579 1.59766316,14.5172211 C1.48997895,14.4101158 1.38113684,14.3059053 1.27345263,14.1947474 C1.13624211,14.0558 1.00192632,13.9139579 0.868189474,13.7738526 C0.816663158,13.7171158 0.815505263,13.7009053 0.876873684,13.6418526 C1.04303158,13.4745368 1.20976842,13.3112737 1.3794,13.1456947 C1.55424211,12.9749053 1.72734737,12.8035368 1.90392632,12.6321684 C2.08224211,12.4579053 2.2594,12.2853789 2.43771579,12.1116947 C2.57376842,11.9796947 2.70924211,11.8488526 2.84297895,11.7168526 C3.06182105,11.4997474 3.28355789,11.2832211 3.5024,11.0690105 L3.56897895,10.9954842 Z" id="Fill-8" fill="#5BBCE2"></path>
                <path d="M15.5362842,15.8331105 C15.5362842,15.9297947 15.5362842,16.0183737 15.5380211,16.1075316 C15.5403368,16.2864263 15.5414947,16.4664789 15.5467053,16.6442158 C15.5501789,16.7501632 15.5634947,16.7576895 15.6648105,16.7576895 C16.0393895,16.7576895 16.4128105,16.7588474 16.7856526,16.7588474 C17.1405474,16.7576895 17.4960211,16.7542158 17.8480211,16.7542158 C17.9777053,16.7542158 18.1079684,16.7542158 18.2347579,16.7576895 L18.3233368,16.7669526 L18.3806526,16.8404789 C18.3806526,17.0685842 18.3818105,17.2961105 18.3835474,17.5247947 C18.3841263,17.6347947 18.3910737,17.7442158 18.3933895,17.8536368 C18.3939684,17.9561105 18.3910737,17.9647947 18.2897579,17.9665316 C18.1207053,17.9694263 17.9533895,17.9665316 17.7849158,17.9665316 C17.2864421,17.9647947 16.7879684,17.9613211 16.2918105,17.9613211 C16.0793368,17.9613211 15.8686,17.9665316 15.6578632,17.9705842 C15.5675474,17.9729 15.5565474,17.9879526 15.5565474,18.0782684 C15.5588632,18.1790053 15.5588632,18.2826368 15.5588632,18.3845316 C15.5623368,18.5999 15.5669684,18.8152684 15.5658105,19.0323737 C15.5634947,19.1464263 15.5304947,19.2500579 15.4714421,19.3496368 C15.3539158,19.5482158 15.1767579,19.6709526 14.9712316,19.7531632 L14.8826526,19.7716895 C14.7008632,19.7740053 14.5196526,19.7740053 14.3378632,19.7740053 C14.2683895,19.7740053 14.2469684,19.7566368 14.2434947,19.6877421 C14.2377053,19.6321632 14.2377053,19.5742684 14.2377053,19.5181105 C14.2377053,18.8812684 14.2359684,18.2450053 14.2313368,17.6093211 C14.2301789,17.2914789 14.2220737,16.9730579 14.2203368,16.6546368 C14.2168632,16.1903211 14.2157053,15.7271632 14.2116526,15.2616895 C14.2116526,15.0770053 14.2070211,14.8929 14.2052842,14.7053211 C14.2023895,14.6063211 14.2139684,14.5906895 14.3187579,14.5906895 C14.4872316,14.5906895 14.6562842,14.5930053 14.8247579,14.5930053 L15.8882842,14.5930053 C16.2866,14.5930053 16.6843368,14.5906895 17.0826526,14.5906895 C17.5793895,14.5906895 18.0767053,14.5930053 18.5717053,14.5953211 C18.7720211,14.5987947 18.9700211,14.6011105 19.1691789,14.6040053 L19.2392316,14.6063211 C19.2907579,14.6092158 19.3127579,14.6381632 19.3150737,14.6896895 C19.3162316,14.8396368 19.3208632,14.9884263 19.3220211,15.1377947 C19.3254947,15.3056895 19.3266526,15.4735842 19.3278105,15.6432158 L19.3289684,15.7537947 L19.2704947,15.8163211 C19.2068105,15.8186368 19.1425474,15.8232684 19.0806,15.8221105 C18.8860737,15.8215316 18.6956,15.8163211 18.5028105,15.8163211 C18.1953895,15.8151632 17.8879684,15.8163211 17.5793895,15.8163211 C17.2048105,15.8163211 16.8319684,15.8134263 16.4573895,15.8134263 C16.1957053,15.8134263 15.9328632,15.8134263 15.6706,15.8163211 C15.6300737,15.8174789 15.5883895,15.8255842 15.5362842,15.8331105" id="Fill-10" fill="#F2C444"></path>
                <path d="M4.42043684,4.71413684 L4.39612105,4.70197895 L4.38106842,4.71761053 L4.40248947,4.73324211 L4.42043684,4.71413684 Z M6.90238421,6.30971579 L6.90238421,7.09245263 L6.90991053,7.21287368 L6.84680526,7.28524211 L6.76748947,7.28987368 C6.59901579,7.28524211 6.42938421,7.27887368 6.26322632,7.27771579 C5.92280526,7.27655789 5.58817368,7.28003158 5.24833158,7.27771579 C4.84827895,7.27482105 4.44880526,7.26555789 4.04875263,7.26150526 C3.81196316,7.25687368 3.57864737,7.25803158 3.34417368,7.25629474 C3.04080526,7.25513684 2.73396316,7.24934737 2.43001579,7.24761053 C2.24475263,7.24471579 2.06006842,7.24761053 1.87480526,7.24587368 L1.84296316,7.24587368 C1.74338421,7.24124211 1.72948947,7.22618947 1.72948947,7.12834737 C1.73122632,6.81745263 1.73238421,6.50771579 1.73354211,6.19797895 L1.73701579,6.08566316 L1.79664737,6.02487368 C1.8667,6.02371579 1.93791053,6.02082105 2.00738421,6.02487368 C2.11912105,6.03008421 2.23259474,6.05845263 2.34201579,6.04455789 C2.61354211,6.01445263 2.88506842,6.04571579 3.15659474,6.04108421 C3.33491053,6.03761053 3.51322632,6.04571579 3.69154211,6.04803158 C4.00880526,6.05324211 4.32722632,6.05497895 4.64564737,6.05961053 C4.76085789,6.06076842 4.87722632,6.07061053 4.99127895,6.07176842 C5.16554211,6.07292632 5.33748947,6.07061053 5.50885789,6.0654 C5.56848947,6.0654 5.58354211,6.04803158 5.58585789,5.97508421 C5.58933158,5.85871579 5.5847,5.74350526 5.5847,5.62829474 C5.5847,5.50787368 5.58585789,5.38745263 5.58585789,5.26818947 C5.58585789,5.16745263 5.57138421,5.15355789 5.47354211,5.15182105 C5.07059474,5.14661053 4.66417368,5.14255789 4.26006842,5.13676842 C3.79748947,5.12982105 3.33259474,5.12403158 2.86943684,5.11592632 L2.81154211,5.11418947 C2.74033158,5.10550526 2.72296316,5.09218947 2.72296316,5.02097895 C2.72296316,4.80850526 2.73106842,4.59487368 2.73106842,4.38471579 C2.73106842,4.27587368 2.72527895,4.16587368 2.72527895,4.05529474 L2.72296316,4.00666316 C2.72527895,3.91229474 2.74148947,3.89782105 2.83527895,3.89955789 C3.08133158,3.90708421 3.3297,3.91461053 3.57864737,3.91866316 C3.72280526,3.92155789 3.86638421,3.91229474 4.0117,3.91982105 C4.48817368,3.94761053 4.96580526,3.91461053 5.43996316,3.94297895 L5.48917368,3.94471579 C5.55806842,3.94297895 5.57891053,3.92561053 5.58122632,3.85671579 C5.58585789,3.7444 5.58585789,3.63092632 5.58585789,3.51976842 C5.58585789,3.31945263 5.5847,3.12203158 5.58933158,2.92287368 C5.59164737,2.69592632 5.69991053,2.51761053 5.86375263,2.37345263 C5.96796316,2.28255789 6.09127895,2.22871579 6.2227,2.19571579 L6.27191053,2.19050526 C6.45138421,2.19050526 6.62796316,2.1934 6.80801579,2.19861053 C6.89891053,2.20208421 6.90238421,2.20903158 6.90238421,2.30629474 C6.90354211,2.73066316 6.9047,3.15561053 6.9047,3.58171579 C6.9047,4.06282105 6.90354211,4.54682105 6.90238421,5.03024211 C6.90238421,5.35445263 6.90354211,5.67866316 6.90354211,6.00287368 L6.90354211,6.30971579 L6.90238421,6.30971579 Z" id="Fill-12" fill="#31699B"></path>
                <path d="M20.0994895,9.56027368 L20.1811211,9.6338 C20.3924368,9.84395789 20.6025947,10.0564316 20.8150684,10.2665895 C20.9407,10.3933789 20.9407,10.3904842 20.8150684,10.5138 C20.6477526,10.6816947 20.4804368,10.8507474 20.3113842,11.0226947 C20.0427526,11.2988526 19.7723842,11.5779053 19.5008579,11.8523263 C19.3497526,12.0098 19.1951737,12.1655368 19.0417526,12.3224316 C18.9855947,12.3797474 18.9786474,12.3907474 19.0359632,12.4555895 C19.1164368,12.5459053 19.2084895,12.6286947 19.2930158,12.7166947 C19.4435421,12.8672211 19.5975421,13.0189053 19.7434368,13.1763789 C19.8146474,13.2528 19.8522789,13.3494842 19.8731211,13.4525368 L19.8945421,13.5278 C19.9223316,13.5990105 19.9182789,13.6690632 19.9061211,13.7425895 C19.8806474,13.8879053 19.8354895,14.0239579 19.7480684,14.1443789 L19.7162263,14.1843263 C19.5963842,14.2758 19.5043316,14.3996947 19.4041737,14.5137474 C19.3457,14.5797474 19.3225421,14.5809053 19.2652263,14.5224316 C19.0967526,14.3580105 18.9305947,14.1918526 18.7644368,14.0239579 C18.6278053,13.8890632 18.4940684,13.7518526 18.3574368,13.6163789 C18.1027,13.3633789 17.8485421,13.1132737 17.5932263,12.8608526 C17.4149105,12.6842737 17.2354368,12.5094316 17.0559632,12.3305368 C16.8730158,12.1458526 16.6883316,11.9600105 16.5024895,11.7747474 C16.3687526,11.6404316 16.2350158,11.5095895 16.1012789,11.3770105 C15.9924368,11.2693263 15.8841737,11.1616421 15.7770684,11.0562737 C15.6977526,10.9804316 15.6977526,10.9549579 15.7770684,10.8762211 C16.1255947,10.5248 16.4793316,10.1756947 16.8301737,9.82195789 C17.1393316,9.5128 17.4432789,9.20074737 17.7530158,8.88927368 C17.9961737,8.64495789 18.2375947,8.4018 18.4836474,8.15864211 C18.7198579,7.92474737 18.9531737,7.69085263 19.1899632,7.46043158 C19.2640684,7.38806316 19.2675421,7.39095789 19.3399105,7.46564211 C19.5622263,7.68969474 19.7839632,7.91143158 20.0074368,8.13664211 L20.0554895,8.18527368 L20.0520158,8.27385263 L19.9727,8.35085263 C19.6033316,8.72311579 19.2368579,9.09537895 18.8669105,9.46474737 C18.5554368,9.77795789 18.2375947,10.0888526 17.9238053,10.4038 C17.7871737,10.5386947 17.6517,10.6759053 17.5168053,10.8136947 C17.4641211,10.8658 17.4641211,10.8872211 17.5144895,10.9364316 C17.6893316,11.1095368 17.8635947,11.2838 18.0349632,11.4557474 C18.1142789,11.5327474 18.1189105,11.5350632 18.1947526,11.4580632 C18.4228579,11.2276421 18.6527,10.9978 18.8819632,10.7673789 C19.1720158,10.4744316 19.4643842,10.1820632 19.7590684,9.88853684 C19.8488053,9.7988 19.9391211,9.70501053 20.0311737,9.61469474 L20.0994895,9.56027368 Z" id="Fill-14" fill="#50A44C"></path>
                <path d="M16.2718947,3.24864737 L16.3546842,3.23648947 C16.6910526,3.23764737 17.0245263,3.24112105 17.3608947,3.24343684 L17.3794211,3.24343684 C17.4552632,3.24864737 17.4726316,3.26601579 17.4726316,3.34301579 C17.4726316,3.48485789 17.4714737,3.62727895 17.4714737,3.77085789 C17.4726316,4.37006842 17.4737895,4.96985789 17.4766842,5.56964737 C17.4766842,5.68891053 17.4737895,5.80817368 17.4766842,5.92627895 C17.4801579,6.02701579 17.4888421,6.03743684 17.5837895,6.03743684 C17.8037895,6.04264737 18.0214737,6.04264737 18.2397368,6.04496316 C18.3393158,6.04496316 18.4412105,6.03454211 18.5378947,6.05191053 C18.6334211,6.06927895 18.7243158,6.11096316 18.8163684,6.15148947 C19.0097368,6.24122632 19.1272632,6.40391053 19.2025263,6.5967 C19.2256842,6.65691053 19.2332105,6.72522632 19.2366842,6.78891053 C19.2430526,6.92785789 19.2418947,7.06738421 19.2430526,7.20691053 L19.2430526,7.25727895 C19.2401579,7.33543684 19.2256842,7.34933158 19.1469474,7.34991053 C18.9489474,7.35106842 18.7497895,7.35106842 18.5512105,7.35106842 C18.1870526,7.35106842 17.8228947,7.35106842 17.457,7.34933158 C17.3018421,7.34933158 17.1472632,7.34296316 16.9915263,7.34296316 C16.4814737,7.34064737 15.9708421,7.34006842 15.4619474,7.33543684 C15.1504737,7.33543684 14.8395789,7.33138421 14.5275263,7.32675263 C14.4389474,7.32675263 14.3503684,7.33485789 14.2606316,7.33485789 C14.1842105,7.33485789 14.1674211,7.31922632 14.1674211,7.23933158 C14.1662632,6.94696316 14.1708947,6.65459474 14.1685789,6.36512105 C14.1685789,6.18564737 14.1651053,6.00675263 14.1645263,5.82785789 C14.1633684,5.13196316 14.1610526,4.43606842 14.1610526,3.73959474 L14.1610526,2.73685789 C14.1610526,2.61122632 14.1546842,2.48559474 14.1552632,2.35996316 C14.1575789,2.27775263 14.1674211,2.26791053 14.2484737,2.26791053 C14.5877368,2.27022632 14.9258421,2.27196316 15.2627895,2.27717368 C15.3432632,2.27891053 15.3536842,2.29048947 15.3536842,2.37327895 C15.3583158,2.48964737 15.3536842,2.60601579 15.3536842,2.72238421 C15.3536842,2.97306842 15.356,3.22664737 15.356,3.47733158 C15.356,3.80212105 15.3536842,4.12633158 15.3536842,4.45054211 C15.356,4.90385789 15.3623684,5.35948947 15.3658421,5.81222632 L15.3681579,5.93091053 C15.3722105,6.02991053 15.3733684,6.02991053 15.4677368,6.02991053 C15.7010526,6.03106842 15.9314737,6.03454211 16.1653684,6.03512105 C16.2603158,6.03512105 16.2695789,6.02817368 16.2695789,5.93612105 C16.2718947,5.62754211 16.2742105,5.31838421 16.2742105,5.01154211 C16.2742105,4.58022632 16.2707368,4.15006842 16.2695789,3.71759474 C16.2695789,3.60122632 16.2655263,3.48717368 16.2655263,3.37022632 L16.2718947,3.24864737 Z" id="Fill-16" fill="#DFA550"></path>
                <g id="Group-20" transform="translate(6.368421, 0.088579)">
                    <mask id="mask-4" fill="white">
                        <use xlink:href="#path-3"></use>
                    </mask>
                    <g id="Clip-19"></g>
                    <path d="M5.58510526,2.46579474 C5.75068421,2.30600526 5.90931579,2.14968947 6.06563158,1.99395263 C6.15363158,1.90826842 6.23121053,1.80926842 6.33078947,1.73863684 C6.41589474,1.67726842 6.523,1.64716316 6.622,1.60432105 L6.68163158,1.59737368 C6.80552632,1.55105789 6.93289474,1.57595263 7.05389474,1.60142632 C7.12857895,1.61821579 7.20268421,1.65468947 7.26868421,1.69811053 C7.33178947,1.73863684 7.38273684,1.79711053 7.43715789,1.84979474 C7.51473684,1.92563684 7.59,2.00437368 7.66642105,2.08253158 C7.73821053,2.15258421 7.73878947,2.16126842 7.66989474,2.23363684 C7.42847368,2.47737368 7.19052632,2.72284737 6.95026316,2.96311053 C6.68742105,3.22884737 6.42052632,3.49284737 6.15421053,3.75742632 C5.96373684,3.94732105 5.77789474,4.13779474 5.58510526,4.32537368 C5.40621053,4.50021579 5.21978947,4.67158421 5.03973684,4.84526842 C4.87010526,5.00968947 4.70510526,5.17758421 4.54010526,5.3449 C4.41968421,5.46300526 4.30157895,5.58226842 4.17363158,5.70847895 L4.07173684,5.63032105 C3.84652632,5.40279474 3.61842105,5.17353158 3.39089474,4.94484737 C3.21373684,4.76826842 3.03831579,4.58705789 2.85826316,4.40758421 C2.46863158,4.01563684 2.07784211,3.62658421 1.68821053,3.23232105 C1.45431579,2.99726842 1.21926316,2.76105789 0.988842105,2.52542632 C0.936157895,2.47332105 0.874210526,2.4299 0.837736842,2.36853158 C0.785052632,2.28053158 0.724263158,2.20642632 0.629315789,2.16242632 L0.566789474,2.07500526 C0.649578947,1.98816316 0.727157895,1.90363684 0.810526316,1.82432105 C0.984210526,1.65874211 1.15789474,1.49547895 1.33215789,1.33337368 C1.40163158,1.26621579 1.41436842,1.26968947 1.48384211,1.34263684 C1.59268421,1.45321579 1.70673684,1.55858421 1.81673684,1.66858421 C2.08536842,1.93837368 2.35342105,2.20642632 2.62089474,2.47737368 C2.926,2.78653158 3.22994737,3.09742632 3.53447368,3.40600526 C3.70468421,3.57968947 3.87778947,3.74758421 4.05089474,3.91779474 L4.08910526,3.94732105 C4.20663158,3.83674211 4.323,3.72558421 4.43936842,3.61326842 C4.52042105,3.53453158 4.60031579,3.45347895 4.68021053,3.37242632 C4.73289474,3.32032105 4.73578947,3.30642632 4.68136842,3.24968947 C4.57136842,3.13505789 4.46078947,3.02042632 4.34847368,2.90868947 C4.00515789,2.56421579 3.66242105,2.21684737 3.31968421,1.87063684 C3.168,1.71779474 3.014,1.56668947 2.86231579,1.41500526 L2.82294737,1.36868947 C2.76042105,1.29747895 2.75868421,1.28474211 2.82584211,1.21179474 C2.87157895,1.16258421 2.91963158,1.11626842 2.96710526,1.06937368 C3.14368421,0.896847368 3.322,0.722005263 3.49915789,0.5489 C3.58021053,0.470163158 3.60105263,0.470163158 3.67747368,0.551215789 C3.84305263,0.718531579 4.00515789,0.890478947 4.16957895,1.05779474 C4.378,1.26968947 4.58757895,1.47984737 4.79889474,1.69347895 C5.02931579,1.92563684 5.26089474,2.15721579 5.49189474,2.38821579 L5.58510526,2.46579474 Z" id="Fill-18" fill="#D23B44" mask="url(#mask-4)"></path>
                </g>
                <polygon id="Fill-21" fill="#231F20" points="8.62567895 9.31630526 8.58167895 9.35798947 8.55852105 9.34062105 8.59904737 9.29198947"></polygon>
                <polygon id="Fill-23" fill="#231F20" points="12.1819211 6.17447368 12.1413947 6.12815789 12.1500789 6.11484211 12.1830789 6.13278947 12.1952368 6.16578947"></polygon>
                <polygon id="Fill-25" fill="#231F20" points="4.42043684 4.71413684 4.40248947 4.73324211 4.38106842 4.71761053 4.39612105 4.70197895"></polygon>
                <path d="M24.8345263,1.95991053 L24.8345263,20.1284368" id="Stroke-27" stroke="#FEFEFE"></path>
                <path d="M40.3253053,14.7798316 C40.3253053,12.0390947 32.3503053,12.4096211 32.3503053,6.95246316 C32.3503053,4.08841053 34.8681474,1.84151579 38.4489368,1.84151579 C41.3373053,1.84151579 43.1395684,3.17483158 43.7080947,3.91530526 L41.3622,6.70583158 C40.9424632,6.18709474 39.9547789,5.10098947 38.1276211,5.10098947 C36.8933053,5.10098947 36.2020421,5.79225263 36.2020421,6.65662105 C36.2020421,9.44656842 44.1521474,9.02683158 44.1521474,14.5326211 C44.1521474,17.1251474 42.0042526,19.6435684 37.6094632,19.6435684 C34.2758842,19.6435684 32.2020947,18.1626211 31.6092526,17.4956737 L33.7571474,14.3844105 C34.4982,15.1254632 36.0040421,16.4587789 38.1027263,16.4587789 C39.6091474,16.4587789 40.3253053,15.6934105 40.3253053,14.7798316" id="Fill-29" fill="#FEFEFE"></path>
                <path d="M49.8576158,16.2860211 L51.2401421,16.2860211 C54.7711421,16.2860211 55.7831421,14.0391263 55.7831421,10.7055474 C55.7831421,6.53307368 53.9559842,5.19975789 51.2158263,5.19975789 L49.8576158,5.19975789 L49.8576158,16.2860211 Z M46.1048789,2.08849474 L51.4867737,2.08849474 C57.1164579,2.08849474 59.6603526,4.82923158 59.6603526,10.3599158 C59.6603526,14.7796 57.9067211,19.3972842 51.5359842,19.3972842 L46.1048789,19.3972842 L46.1048789,2.08849474 Z" id="Fill-31" fill="#FEFEFE"></path>
                <path d="M74.5753684,3.84148947 L72.1553684,6.48322632 C71.5133158,5.79254211 70.6003158,5.1007 68.9948947,5.1007 C66.7231053,5.1007 64.7975263,6.36048947 64.7975263,10.4588579 C64.7975263,14.7303316 66.1800526,16.5823842 69.069,16.5823842 C69.5877368,16.5823842 70.3531053,16.4833842 70.6987368,16.3351737 L70.6987368,10.4837526 L74.4763684,10.4837526 L74.4763684,18.1131211 C73.2171579,18.9774895 71.489,19.6438579 68.2787368,19.6438579 C63.3657895,19.6438579 60.9208947,16.6808053 60.9208947,10.9034895 C60.9208947,4.65664737 64.5508947,1.84180526 69.1431053,1.84180526 C72.5507895,1.84180526 74.1058421,3.29843684 74.5753684,3.84148947" id="Fill-33" fill="#FEFEFE"></path>
                <polygon id="Fill-35" fill="#FEFEFE" points="83.3432368 19.3969947 83.3432368 2.08878421 92.1577105 2.08878421 92.1577105 3.47131053 84.8739737 3.47131053 84.8739737 10.3353105 91.3182368 10.3353105 91.3182368 11.7178368 84.8739737 11.7178368 84.8739737 19.3969947"></polygon>
                <path d="M104.380968,13.7426474 L104.380968,2.08843684 L105.862495,2.08843684 L105.862495,13.5944368 C105.862495,17.4461737 103.665389,19.6438579 99.7881789,19.6438579 C96.0354421,19.6438579 93.8875474,17.5202789 93.8875474,13.7426474 L93.8875474,2.08843684 L95.3690737,2.08843684 L95.3690737,13.5701211 C95.3690737,16.8290158 97.2205474,18.2364368 99.9363895,18.2364368 C102.627916,18.2364368 104.380968,17.0264368 104.380968,13.7426474" id="Fill-37" fill="#FEFEFE"></path>
                <polygon id="Fill-39" fill="#FEFEFE" points="112.258995 3.47113684 107.542889 3.47113684 107.542889 2.08861053 118.431732 2.08861053 118.431732 3.47113684 113.740521 3.47113684 113.740521 19.3968211 112.258995 19.3968211"></polygon>
                <path d="M130.606068,13.7426474 L130.606068,2.08843684 L132.087595,2.08843684 L132.087595,13.5944368 C132.087595,17.4461737 129.889911,19.6438579 126.013279,19.6438579 C122.260542,19.6438579 120.112068,17.5202789 120.112068,13.7426474 L120.112068,2.08843684 L121.593595,2.08843684 L121.593595,13.5701211 C121.593595,16.8290158 123.445647,18.2364368 126.161489,18.2364368 C128.853016,18.2364368 130.606068,17.0264368 130.606068,13.7426474" id="Fill-41" fill="#FEFEFE"></path>
                <path d="M137.323305,10.6562789 L139.767621,10.6562789 C142.261147,10.6562789 144.014779,9.69348947 144.014779,7.07606842 C144.014779,4.43433158 142.459147,3.47096316 139.595095,3.47096316 L137.323305,3.47096316 L137.323305,10.6562789 Z M139.841726,2.08843684 C143.372726,2.08843684 145.545516,3.49585789 145.545516,6.90354211 C145.545516,9.69348947 143.669147,11.3973316 141.569884,11.5947526 L141.569884,11.6937526 C142.211937,11.9652789 142.853989,12.5083316 143.619358,13.8167526 L146.952937,19.3972263 L145.175568,19.3972263 L141.965305,13.8908579 C141.224253,12.6316474 140.360463,12.0144895 138.977358,12.0144895 L137.323305,12.0144895 L137.323305,19.3972263 L135.841779,19.3972263 L135.841779,2.08843684 L139.841726,2.08843684 Z" id="Fill-43" fill="#FEFEFE"></path>
                <polygon id="Fill-45" fill="#FEFEFE" points="149.399221 19.3969947 149.399221 2.08878421 158.288379 2.08878421 158.288379 3.47131053 150.880747 3.47131053 150.880747 9.94046842 157.423432 9.94046842 157.423432 11.3229947 150.880747 11.3229947 150.880747 18.0144684 158.658326 18.0144684 158.658326 19.3969947"></polygon>
                <g id="Group-49" transform="translate(159.210526, 1.825421)">
                    <mask id="mask-6" fill="white">
                        <use xlink:href="#path-5"></use>
                    </mask>
                    <g id="Clip-48"></g>
                    <path d="M9.67108421,13.2012158 C9.67108421,8.97895263 1.35045263,9.99153158 1.35045263,4.53495263 C1.35045263,1.96674211 3.49834737,0.0162684211 6.51061053,0.0162684211 C8.18955789,0.0162684211 9.67108421,0.4609 10.7577684,1.29979474 L9.84418947,2.50979474 C8.85650526,1.76932105 7.7704,1.42368947 6.43650526,1.42368947 C4.18961053,1.42368947 2.85629474,2.6829 2.85629474,4.46026842 C2.85629474,8.78153158 11.1775053,7.81874211 11.1775053,13.1271105 C11.1775053,15.7445316 9.12861053,17.8183211 5.59761053,17.8183211 C3.17761053,17.8183211 1.44945263,17.0280579 0.337873684,16.0901632 L1.25145263,14.9050579 C2.26403158,15.6953211 3.62224211,16.4109 5.69603158,16.4109 C8.26366316,16.4109 9.67108421,15.0034789 9.67108421,13.2012158" id="Fill-47" fill="#FEFEFE" mask="url(#mask-6)"></path>
                </g>
            </g>
        </g>
    </g>
</svg>