<?xml version="1.0" encoding="UTF-8"?>
<svg width="282px" height="36px" viewBox="0 0 282 36" version="1.1" xmlns="http://www.w3.org/2000/svg" xmlns:xlink="http://www.w3.org/1999/xlink">
    <!-- Generator: Sketch 51.3 (57544) - http://www.bohemiancoding.com/sketch -->
    <title>Group 58</title>
    <desc>Created with Sketch.</desc>
    <defs>
        <path d="M0.508777778,11.6670556 C0.508777778,18.088 5.71477778,23.2918889 12.1357222,23.2918889 C18.5556111,23.2918889 23.7616111,18.088 23.7616111,11.6670556 C23.7616111,5.24611111 18.5556111,0.0411666667 12.1357222,0.0411666667 C5.71477778,0.0411666667 0.508777778,5.24611111 0.508777778,11.6670556 Z M8.02433333,11.6670556 C8.02433333,9.39655556 9.86522222,7.55672222 12.1357222,7.55672222 C14.4051667,7.55672222 16.2460556,9.39655556 16.2460556,11.6670556 C16.2460556,13.9365 14.4051667,15.7763333 12.1357222,15.7763333 C9.86522222,15.7763333 8.02433333,13.9365 8.02433333,11.6670556 Z" id="path-1"></path>
        <polygon id="path-3" points="8.52572222 0.0411666667 0.239611111 0.0411666667 0.239611111 23.2918889 8.54472222 23.2918889 8.54472222 0.0411666667"></polygon>
        <polygon id="path-5" points="18.1439444 0.0411666667 12.331 5.85411111 6.51911111 0.0411666667 0.705111111 0.0411666667 0.705111111 5.85411111 6.51911111 11.6670556 0.705111111 17.4789444 0.705111111 23.2918889 6.51911111 23.2918889 12.331 17.4789444 18.1439444 23.2918889 23.9579444 23.2918889 23.9579444 17.4789444 18.1439444 11.6670556 23.9579444 5.85411111 23.9579444 0.0411666667"></polygon>
        <path d="M0.239611111,4.78377778 C0.239611111,7.07644444 2.0995,8.93527778 4.39216667,8.93527778 C6.68588889,8.93527778 8.54472222,7.07644444 8.54472222,4.78377778 C8.54472222,2.49005556 6.68588889,0.631222222 4.39216667,0.631222222 C2.0995,0.631222222 0.239611111,2.49005556 0.239611111,4.78377778 Z" id="path-7"></path>
    </defs>
    <g id="SDG-Futures-Flow" stroke="none" stroke-width="1" fill="none" fill-rule="evenodd">
        <g id="Home-:-All-SDG" transform="translate(-27.000000, -19.000000)">
            <g id="Group-58" transform="translate(27.000000, 18.000000)">
                <g id="Group-45" transform="translate(0.000000, 8.798161)">
                    <path d="M203.275828,8.04428333 L203.292717,8.03267222 L203.276883,7.99045 L203.234661,7.96828333 L203.22305,7.98517222 L203.275828,8.04428333 Z M198.699994,12.0860056 L198.666217,12.0553944 L198.614494,12.1166167 L198.642994,12.1398389 L198.699994,12.0860056 Z M196.546661,12.2506722 L196.635328,12.3615056 C196.821106,12.5472833 197.011106,12.73095 197.197939,12.9177833 C197.512494,13.2376167 197.828106,13.5553389 198.14055,13.8741167 C198.220772,13.9553944 198.30205,14.0377278 198.379106,14.1221722 L198.36855,14.2625611 C198.269328,14.3543944 198.176439,14.4430611 198.085661,14.5380611 C197.890383,14.7312278 197.700383,14.9265056 197.508272,15.1175611 C197.214828,15.4046722 196.920328,15.6896722 196.63005,15.9788944 L196.559328,16.0886722 C196.625828,16.0907833 196.666994,16.09395 196.707106,16.09395 C196.949883,16.0981722 197.193717,16.0992278 197.43755,16.1013389 C197.575828,16.1045056 197.716217,16.1045056 197.85555,16.1045056 C198.265106,16.10345 198.674661,16.0981722 199.084217,16.0981722 C199.247828,16.0992278 199.26155,16.1245611 199.26155,16.2902833 C199.260494,16.8930056 199.259439,17.4915056 199.259439,18.0942278 C199.259439,18.2852833 199.260494,18.4795056 199.26155,18.6695056 C199.26155,18.7043389 199.269994,18.7391722 199.282661,18.8025056 C199.927606,18.1765611 200.530328,17.54745 201.165772,16.9383944 L201.292439,17.0450056 C201.459217,17.22445 201.619661,17.4123389 201.795939,17.5843944 C201.941606,17.7332278 202.11155,17.8567278 202.259328,18.0002833 C202.503161,18.23145 202.739606,18.4752833 202.97605,18.7106722 L203.094272,18.81095 L203.111161,18.6895611 C203.111161,18.28845 203.113272,17.8873389 203.111161,17.4883389 C203.111161,17.0787833 203.110106,16.6692278 203.110106,16.2607278 C203.110106,16.1340611 203.131217,16.1150611 203.258939,16.1203389 L203.333883,16.1393389 L203.389828,16.1435611 L203.551328,16.1266722 C203.852161,16.1266722 204.149828,16.1308944 204.446439,16.1308944 C204.634328,16.1308944 204.820106,16.1245611 205.00905,16.1245611 C205.239161,16.1245611 205.466106,16.1308944 205.697272,16.1308944 L205.786994,16.10345 L205.720494,16.0253389 C205.601217,15.9007833 205.476661,15.7772833 205.352106,15.6558944 C204.974217,15.2780056 204.595272,14.9032833 204.221606,14.52645 C204.131883,14.4420056 204.045328,14.3543944 203.959828,14.2625611 C203.90705,14.1992278 203.914439,14.1643944 203.97355,14.1073944 L204.05905,14.0313944 C204.279661,13.8107833 204.49605,13.5922833 204.718772,13.3716722 L204.855994,13.2397278 C204.949939,13.1436722 205.03755,13.0486722 205.127272,12.9526167 L205.187439,12.9885056 L205.240217,12.8533944 C205.31305,12.7657833 205.399606,12.6855611 205.476661,12.6021722 C205.566383,12.5040056 205.656106,12.4026722 205.756383,12.29395 L205.61705,12.2781167 C205.171606,12.2738944 204.725106,12.2738944 204.275439,12.2707278 C203.927106,12.2707278 203.575606,12.2738944 203.229383,12.2707278 C203.10905,12.2707278 203.097439,12.2548944 203.094272,12.1366722 C203.094272,11.8020611 203.097439,11.4632278 203.094272,11.1275611 C203.092161,10.6451722 203.088994,10.1638389 203.085828,9.68039444 C203.085828,9.65189444 203.078439,9.62128333 203.066828,9.55795 C202.427161,10.20395 201.812828,10.8246167 201.192161,11.4537278 L201.082383,11.3640056 C200.944106,11.2288944 200.804772,11.0927278 200.66755,10.9523389 C200.350883,10.6356722 200.037383,10.3158389 199.718606,10.0012833 C199.605661,9.88622778 199.491661,9.77222778 199.374494,9.65611667 C199.344939,9.62656111 199.31855,9.58750556 199.250994,9.63078333 C199.250994,9.89361667 199.248883,10.1638389 199.248883,10.4382833 C199.249939,10.9871722 199.250994,11.5350056 199.255217,12.0838944 C199.256272,12.2105611 199.244661,12.24645 199.107439,12.24645 C198.793939,12.2443389 198.475161,12.24645 198.15955,12.2443389 C197.66555,12.2443389 197.164161,12.2401167 196.663828,12.2380056 L196.546661,12.2506722 Z M209.176383,10.8985056 L209.067661,11.0230611 C208.743606,11.3492278 208.411106,11.6722278 208.084939,11.9962833 C207.740828,12.3393389 207.396717,12.6802833 207.053661,13.0265056 C206.694772,13.3843389 206.340106,13.74745 205.984383,14.10845 C205.898883,14.1960611 205.898883,14.2097833 205.984383,14.2942278 C206.284161,14.5950611 206.587106,14.8937833 206.886883,15.1925056 C206.989272,15.2938389 207.083217,15.3951722 207.183494,15.4912278 C207.599383,15.8955056 208.014217,16.2997833 208.430106,16.7072278 C208.661272,16.9373389 208.89455,17.1685056 209.125717,17.4038944 L209.218606,17.5178944 C209.140494,17.5231722 209.09405,17.5337278 209.043383,17.5337278 C208.379439,17.5337278 207.715494,17.5305611 207.050494,17.5295056 C206.309494,17.5263389 205.566383,17.5252833 204.825383,17.5252833 L204.64805,17.5316167 C204.545661,17.5411167 204.530883,17.5580056 204.530883,17.66145 C204.530883,17.9876167 204.530883,18.3095611 204.53405,18.6336167 C204.539328,19.4938944 204.545661,20.3562833 204.551994,21.2165611 C204.554106,21.50895 204.561494,21.8055611 204.56255,22.0990056 C204.56255,22.1475611 204.557272,22.1971722 204.551994,22.2647278 L204.463328,22.2066722 C204.328217,22.07895 204.190994,21.9470056 204.057994,21.8171722 C203.751883,21.5121167 203.447883,21.2081167 203.144939,20.9051722 C202.853606,20.6106722 202.564383,20.3130056 202.270939,20.0216722 C202.009161,19.7598944 201.747383,19.4991722 201.482439,19.2363389 C201.383217,19.1392278 201.282939,19.0400056 201.173161,18.9333944 C201.086606,19.0167833 201.006383,19.0843389 200.930383,19.1582278 C200.547217,19.5445611 200.159828,19.9298389 199.778772,20.3203944 C199.239383,20.8703389 198.702106,21.4245056 198.163772,21.9776167 C198.08355,22.0578389 198.006494,22.1433389 197.925217,22.2246167 L197.837606,22.2868944 C197.831272,22.21195 197.823883,22.1602278 197.823883,22.10745 C197.82705,21.4318944 197.828106,20.7521167 197.828106,20.0733944 C197.831272,19.3672278 197.828106,18.65895 197.828106,17.9496167 C197.828106,17.84195 197.831272,17.73745 197.828106,17.6297833 C197.828106,17.5432278 197.811217,17.5295056 197.720439,17.5295056 C197.08605,17.5263389 196.450606,17.5295056 195.817272,17.5263389 C195.307439,17.5263389 194.802883,17.5221167 194.296217,17.5200056 C193.959494,17.5200056 193.623828,17.5263389 193.284994,17.5263389 C193.224828,17.5263389 193.158328,17.5368944 193.093939,17.4788389 C193.233272,17.3025611 193.407439,17.1663944 193.559439,17.0070056 C193.714606,16.8433944 193.878217,16.6871722 194.038661,16.5277833 C194.196994,16.3715611 194.355328,16.2185056 194.513661,16.0643944 C194.674106,15.9092278 194.836661,15.7603944 194.99605,15.6052278 C195.155439,15.4500611 195.307439,15.2906722 195.467883,15.1355056 C195.626217,14.9740056 195.788772,14.8167278 195.949217,14.6583944 C196.105439,14.5021722 196.260606,14.3438389 196.42105,14.1791722 C196.300717,14.0145056 196.14555,13.8941722 196.009383,13.7537833 C195.875328,13.6102278 195.73705,13.4740611 195.598772,13.3336722 C195.460494,13.1943389 195.320106,13.0592278 195.179717,12.92095 C195.04355,12.7805611 194.907383,12.6370056 194.770161,12.4997833 C194.632939,12.3615056 194.486217,12.22745 194.348994,12.0870611 C194.20755,11.9498389 194.075606,11.8083944 193.936272,11.6722278 C193.801161,11.5318389 193.654439,11.3967278 193.520383,11.2552833 C193.393717,11.1127833 193.231161,10.9987833 193.119272,10.8066722 C193.187883,10.80245 193.233272,10.7918944 193.278661,10.7918944 C193.572106,10.7982278 193.863439,10.8077278 194.156883,10.8151167 C194.324717,10.8172278 194.490439,10.8172278 194.655106,10.8172278 L195.49955,10.8172278 C195.83205,10.8172278 196.163494,10.8172278 196.495994,10.82145 C196.65855,10.8246167 196.825328,10.8372833 196.989994,10.8415056 C197.121939,10.8415056 197.252828,10.8267278 197.384772,10.8256722 C197.488217,10.8246167 197.595883,10.8256722 197.702494,10.8267278 C197.803828,10.8267278 197.844994,10.79295 197.844994,10.6937278 C197.839717,10.0698944 197.831272,9.44078333 197.831272,8.81589444 C197.831272,8.14139444 197.834439,7.46795 197.834439,6.79345 C197.837606,6.63089444 197.831272,6.46939444 197.831272,6.30789444 L197.841828,6.16750556 C197.917828,6.17278333 197.948439,6.22239444 197.986439,6.25933889 C198.310494,6.58550556 198.635606,6.91589444 198.955439,7.23889444 C199.125383,7.41411667 199.295328,7.59039444 199.467383,7.76139444 C199.768217,8.06645 200.076439,8.37150556 200.381494,8.67550556 C200.617939,8.91195 200.855439,9.15261667 201.092939,9.39222778 L201.16155,9.45450556 C201.292439,9.37639444 201.383217,9.26450556 201.485606,9.16422778 C201.725217,8.92778333 201.961661,8.68817222 202.198106,8.45278333 C202.506328,8.14350556 202.813494,7.83528333 203.121717,7.53022778 C203.281106,7.37295 203.439439,7.22095 203.596717,7.06367222 C203.790939,6.86945 203.986217,6.67311667 204.18255,6.47889444 C204.266994,6.39445 204.35355,6.31739444 204.463328,6.21500556 C204.482328,6.30050556 204.500272,6.35645 204.500272,6.41028333 C204.49605,6.92433889 204.491828,7.43417222 204.488661,7.94717222 C204.487606,8.21950556 204.485494,8.48972778 204.485494,8.76417222 C204.482328,8.94361667 204.488661,9.12200556 204.491828,9.29933889 C204.491828,9.59172778 204.493939,9.88622778 204.49605,10.1786167 C204.49605,10.3717833 204.49605,10.5638944 204.502383,10.7570611 C204.502383,10.8446722 204.52455,10.8657833 204.617439,10.8700056 C204.749383,10.8700056 204.882383,10.8657833 205.014328,10.8657833 C205.547383,10.86895 206.080439,10.8700056 206.613494,10.8700056 C207.024106,10.8731722 207.437883,10.8795056 207.853772,10.8795056 C208.23905,10.8795056 208.62855,10.8763389 209.015939,10.8763389 C209.059217,10.8763389 209.10355,10.8900611 209.176383,10.8985056 Z" id="Fill-1" fill="#202020"></path>
                    <path d="M196.449867,25.5887778 L196.295756,25.6077778 C195.865089,25.6109444 195.433367,25.6109444 195.004811,25.612 C194.877089,25.612 194.871811,25.6035556 194.872867,25.4747778 C194.876033,24.6081667 194.877089,23.7415556 194.881311,22.8781111 C194.885533,22.2236667 194.889756,21.5734444 194.896089,20.919 C194.896089,20.8482778 194.893978,20.7754444 194.893978,20.7036667 C194.889756,20.6234444 194.876033,20.6086667 194.795811,20.6023333 L194.6417,20.6023333 C194.382033,20.6023333 194.123422,20.6044444 193.861644,20.6065556 L193.7962,20.6107778 C193.733922,20.6128889 193.706478,20.6456111 193.705422,20.7078889 C193.7012,20.862 193.696978,21.0150556 193.696978,21.1691667 C193.692756,21.5966667 193.694867,22.021 193.692756,22.4442778 C193.690644,23.0016111 193.685367,23.5557778 193.6822,24.1099444 L193.681144,24.2366111 C193.675867,24.3020556 193.641033,24.3368889 193.574533,24.3453333 L193.537589,24.3463889 C193.299033,24.3453333 193.060478,24.339 192.820867,24.3432222 C192.630867,24.3432222 192.439811,24.3548333 192.2477,24.3622222 L192.197033,24.3632778 C192.088311,24.3622222 192.073533,24.3453333 192.073533,24.2334444 C192.073533,24.0170556 192.0767,23.7985556 192.0767,23.5821667 C192.079867,23.3087778 192.0767,23.0353889 192.079867,22.7609444 C192.084089,22.3798889 192.092533,21.9988333 192.097811,21.6125 C192.103089,21.3190556 192.103089,21.0245556 192.103089,20.7300556 C192.103089,20.6223889 192.094644,20.6118333 191.985922,20.6118333 C191.663978,20.6107778 191.338867,20.6128889 191.013756,20.6128889 C190.903978,20.6128889 190.7942,20.6245 190.683367,20.6118333 C190.587311,20.6002222 190.489144,20.5759444 190.402589,20.5326667 C190.168256,20.4123333 189.971922,20.2455556 189.855811,19.9985556 C189.798811,19.8761111 189.763978,19.7557778 189.769256,19.6185556 C189.778756,19.4253889 189.769256,19.2343333 189.769256,19.0411667 C189.769256,18.9081667 189.812533,18.8828333 189.926533,18.8838889 C190.283311,18.8870556 190.644311,18.8828333 191.000033,18.8817778 C191.473978,18.8786111 191.947922,18.8765 192.421867,18.8754444 C192.885256,18.8754444 193.348644,18.8817778 193.813089,18.8817778 C194.339811,18.8786111 194.863367,18.8712222 195.385867,18.8712222 C195.633922,18.8701667 195.878811,18.8765 196.127922,18.8786111 C196.208144,18.8817778 196.290478,18.8786111 196.3707,18.8817778 C196.464644,18.8838889 196.480478,18.905 196.480478,18.9978889 C196.476256,19.2871111 196.474144,19.5763333 196.474144,19.8687222 C196.472033,20.2508333 196.474144,20.6329444 196.474144,21.0161111 C196.472033,21.4404444 196.472033,21.8626667 196.472033,22.2838333 C196.470978,22.9921111 196.470978,23.6993333 196.470978,24.4076111 L196.470978,25.4684444 L196.449867,25.5887778 Z" id="Fill-3" fill="#CE3481"></path>
                    <path d="M204.797411,26.6752611 C204.630633,26.5127056 204.477578,26.3628167 204.328744,26.2139833 C203.621522,25.5025389 202.915356,24.7932056 202.207078,24.07965 C201.955856,23.8273722 201.706744,23.5719278 201.453411,23.3164833 L201.382689,23.24365 C201.315133,23.1877056 201.277133,23.1855944 201.215911,23.2478722 C201.067078,23.3924833 200.918244,23.5413167 200.772578,23.69015 C200.689189,23.7788167 200.602633,23.87065 200.521356,23.9645944 C200.464356,24.0300389 200.464356,24.0479833 200.528744,24.1123722 C200.772578,24.3519833 201.013244,24.5915944 201.252856,24.8312056 C201.6698,25.2513167 202.084633,25.6745944 202.502633,26.0957611 C202.6578,26.2488167 202.811911,26.4008167 202.963911,26.5580944 C203.046244,26.6435944 203.046244,26.6594278 202.966022,26.7470389 C202.865744,26.85365 202.7623,26.9560389 202.663078,27.0605389 C202.468856,27.2684833 202.274633,27.4795944 202.082522,27.68965 C201.981189,27.7983722 201.949522,27.7983722 201.843967,27.6949278 C201.481911,27.3297056 201.117744,26.9613167 200.755689,26.5929278 C200.439022,26.2678167 200.122356,25.9395389 199.8078,25.6102056 C199.686411,25.4835389 199.565022,25.3579278 199.441522,25.2354833 C199.366578,25.1615944 199.335967,25.1584278 199.261022,25.2375944 C199.002411,25.4972611 198.745911,25.7569278 198.489411,26.0197611 L198.371189,26.1369278 C198.189633,26.3205944 197.953189,26.3934278 197.710411,26.3965944 C197.543633,26.39765 197.3663,26.3543722 197.205856,26.27415 C197.049633,26.2002611 196.941967,26.0788722 196.832189,25.9543167 C196.756189,25.8667056 196.673856,25.7864833 196.594689,25.70415 C196.507078,25.6165389 196.507078,25.5922611 196.592578,25.50465 C196.811078,25.2798167 197.030633,25.0518167 197.253356,24.8269833 C197.538356,24.5367056 197.826522,24.2432611 198.113633,23.9529833 C198.5253,23.5370944 198.935911,23.1233167 199.348633,22.7105944 C199.616744,22.4393167 199.881689,22.1690944 200.147689,21.8999278 C200.399967,21.6402611 200.651189,21.3805944 200.908744,21.1240944 C200.974189,21.0597056 201.043856,20.9974278 201.113522,20.9330389 C201.1948,20.8580944 201.225411,20.8570389 201.304578,20.9393722 C201.410133,21.0459833 201.5083,21.1557611 201.615967,21.2613167 C201.8218,21.4650389 202.027633,21.6677056 202.233467,21.8724833 C202.731689,22.36965 203.224633,22.8689278 203.7218,23.36715 C204.099689,23.7492611 204.4818,24.12715 204.860744,24.5060944 C205.176356,24.8227611 205.493022,25.1425944 205.810744,25.4582056 C205.893078,25.5458167 205.8973,25.5669278 205.807578,25.6555944 C205.6313,25.8350389 205.448689,26.0113167 205.2703,26.1907611 C205.159467,26.3037056 205.049689,26.4250944 204.9378,26.5422611 L204.797411,26.6752611 Z" id="Fill-5" fill="#962B45"></path>
                    <path d="M192.195661,14.2456722 C191.909606,13.9606722 191.636217,13.6862278 191.349106,13.3980611 L191.210828,13.5162833 C190.964883,13.75695 190.716828,13.9986722 190.469828,14.2393389 C190.104606,14.5950611 189.743606,14.9455056 189.380494,15.3001722 C189.187328,15.4901722 188.997328,15.6770056 188.807328,15.8680611 C188.696494,15.9788944 188.689106,15.9810056 188.569828,15.8712278 C188.423106,15.7350611 188.283772,15.5936167 188.140217,15.4500611 C187.983994,15.2938389 187.824606,15.1376167 187.669439,14.9813944 C187.583939,14.8958944 187.580772,14.8737278 187.67155,14.7861167 C187.88055,14.5813389 188.093772,14.3797278 188.303828,14.1738944 C188.77355,13.7178944 189.242217,13.2640056 189.710883,12.8111722 C189.852328,12.6707833 189.997994,12.5303944 190.139439,12.38895 L190.232328,12.2918389 C190.12255,12.1820611 190.023328,12.0775611 189.919883,11.9772833 C189.717217,11.7746167 189.516661,11.5730056 189.310828,11.3756167 C189.221106,11.2880056 189.159883,11.1908944 189.111328,11.0811167 C188.957217,10.7327833 189.00155,10.3971167 189.197883,10.0825611 C189.278106,9.95378333 189.403717,9.85561667 189.511383,9.74689444 C189.603217,9.65295 189.702439,9.56639444 189.81855,9.45450556 C189.874494,9.52206111 189.915661,9.57906111 189.967383,9.63289444 C190.097217,9.76800556 190.221772,9.90839444 190.366383,10.0308389 C190.72105,10.3327278 191.030328,10.6757833 191.35755,11.0040611 C191.792439,11.43895 192.233661,11.86645 192.665383,12.3002833 C192.916606,12.5515056 193.158328,12.8111722 193.406383,13.0613389 C193.557328,13.2165056 193.714606,13.3653389 193.868717,13.5205056 C194.024939,13.6756722 194.176939,13.8361167 194.334217,13.99445 L194.41655,14.0725611 C194.498883,14.1527833 194.500994,14.1802278 194.421828,14.2625611 C194.308883,14.3755056 194.200161,14.4873944 194.086161,14.5982278 C193.654439,15.02045 193.21955,15.4405611 192.786772,15.8680611 C192.419439,16.22695 192.058439,16.5921722 191.69005,16.9542278 C191.190772,17.4450611 190.688328,17.9306167 190.18905,18.4182833 C190.071883,18.53545 189.958939,18.6568389 189.841772,18.7761167 C189.764717,18.8510611 189.737272,18.84895 189.660217,18.7761167 C189.520883,18.6388944 189.380494,18.5048389 189.242217,18.3612833 C189.065939,18.1818389 188.893883,18.0013389 188.720772,17.8208389 C188.655328,17.74695 188.654272,17.7268944 188.732383,17.6508944 C188.945606,17.4345056 189.159883,17.22445 189.378383,17.0122833 C189.603217,16.7927278 189.826994,16.5721167 190.053939,16.3515056 C190.282994,16.1277278 190.510994,15.9050056 190.74005,15.6812278 C190.915272,15.5123389 191.088383,15.34345 191.261494,15.1745611 C191.543328,14.8948389 191.827272,14.6172278 192.109106,14.3406722 L192.195661,14.2456722 Z" id="Fill-7" fill="#5BBCE2"></path>
                    <path d="M207.590833,20.46965 C207.590833,20.59315 207.590833,20.7082056 207.592944,20.8222056 C207.596111,21.0533722 207.597167,21.2834833 207.604556,21.5135944 C207.609833,21.6487056 207.625667,21.6592611 207.7555,21.6592611 C208.237889,21.6592611 208.717111,21.6603167 209.197389,21.6603167 C209.654444,21.6592611 210.1115,21.6550389 210.564333,21.6550389 C210.731111,21.6550389 210.9,21.6550389 211.062556,21.6592611 L211.176556,21.6708722 L211.250444,21.7658722 C211.250444,22.0593167 211.2515,22.3517056 211.253611,22.6462056 C211.254667,22.7865944 211.263111,22.9280389 211.265222,23.0694833 C211.266278,23.2003722 211.263111,23.2119833 211.132222,23.2140944 C210.914778,23.2183167 210.699444,23.2140944 210.483056,23.2140944 C209.842333,23.2119833 209.200556,23.2077611 208.563,23.2077611 C208.289611,23.2077611 208.018333,23.2140944 207.746,23.2183167 C207.630944,23.2214833 207.617222,23.2415389 207.617222,23.35765 C207.619333,23.4874833 207.619333,23.6204833 207.619333,23.7513722 C207.623556,24.0289833 207.629889,24.3065944 207.627778,24.5852611 C207.625667,24.7319833 207.583444,24.8649833 207.507444,24.9937611 C207.355444,25.2492056 207.1285,25.4064833 206.864611,25.5120389 L206.749556,25.5363167 C206.515222,25.5394833 206.283,25.5394833 206.048667,25.5394833 C205.96,25.5394833 205.932556,25.5162611 205.927278,25.4275944 C205.919889,25.3568722 205.919889,25.2829833 205.919889,25.21015 C205.919889,24.3910389 205.917778,23.5719278 205.911444,22.7549278 C205.910389,22.3453722 205.899833,21.9368722 205.897722,21.5262611 C205.8935,20.9288167 205.892444,20.3334833 205.887167,19.7349833 C205.887167,19.4974833 205.880833,19.2599833 205.878722,19.0182611 C205.8745,18.8915944 205.889278,18.8704833 206.024389,18.8704833 C206.240778,18.8704833 206.459278,18.8747056 206.676722,18.8747056 L208.044722,18.8747056 C208.555611,18.8747056 209.067556,18.8704833 209.5795,18.8704833 C210.219167,18.8704833 210.858833,18.8747056 211.495333,18.8768167 C211.752889,18.8810389 212.008333,18.8842056 212.264833,18.8884278 L212.355611,18.8915944 C212.421056,18.8958167 212.449556,18.9317056 212.451667,18.9982056 C212.452722,19.1913722 212.459056,19.3834833 212.461167,19.5745389 C212.465389,19.7909278 212.466444,20.0083722 212.4675,20.2258167 L212.469611,20.3672611 L212.394667,20.4474833 C212.312333,20.45065 212.231056,20.4569833 212.149778,20.4548722 C211.899611,20.4548722 211.655778,20.4474833 211.406667,20.4474833 C211.010833,20.4474833 210.616056,20.4474833 210.219167,20.4474833 C209.736778,20.4474833 209.257556,20.4443167 208.775167,20.4443167 C208.438444,20.4443167 208.100667,20.4443167 207.763944,20.4474833 C207.711167,20.4485389 207.657333,20.4590944 207.590833,20.46965" id="Fill-9" fill="#F2C444"></path>
                    <path d="M193.290378,6.16613333 L193.259767,6.14924444 L193.239711,6.17035556 L193.268211,6.18935556 L193.290378,6.16613333 Z M196.483433,8.21813333 L196.483433,9.22513333 L196.492933,9.3803 L196.411656,9.47318889 L196.309267,9.47952222 C196.092878,9.47318889 195.874378,9.46474444 195.661156,9.46368889 C195.2231,9.46263333 194.792433,9.46685556 194.356489,9.46368889 C193.841378,9.45946667 193.327322,9.44785556 192.813267,9.44257778 C192.508211,9.4373 192.208433,9.43835556 191.905489,9.43624444 C191.514933,9.43413333 191.121211,9.4278 190.730656,9.42568889 C190.4921,9.42146667 190.253544,9.42568889 190.014989,9.42252222 L189.973822,9.42252222 C189.847156,9.41724444 189.829211,9.39824444 189.829211,9.27052222 C189.832378,8.87152222 189.833433,8.47357778 189.835544,8.07457778 L189.838711,7.92996667 L189.915767,7.85185556 C190.005489,7.8508 190.097322,7.84657778 190.187044,7.85185556 C190.3306,7.85924444 190.476267,7.89513333 190.617711,7.87718889 C190.966044,7.83813333 191.315433,7.87824444 191.665878,7.87191111 C191.894933,7.86768889 192.123989,7.87824444 192.353044,7.88141111 C192.760489,7.8888 193.1711,7.89091111 193.5796,7.89724444 C193.728433,7.8983 193.878322,7.91096667 194.025044,7.91202222 C194.249878,7.91307778 194.470489,7.91096667 194.6911,7.90357778 C194.768156,7.90357778 194.787156,7.88141111 194.789267,7.78746667 C194.793489,7.63863333 194.788211,7.4898 194.788211,7.34096667 C194.788211,7.18685556 194.789267,7.03168889 194.789267,6.87863333 C194.789267,6.7488 194.771322,6.73085556 194.645711,6.72768889 C194.127433,6.72135556 193.604933,6.71607778 193.084544,6.70974444 C192.489211,6.70024444 191.891767,6.69285556 191.295378,6.6823 L191.220433,6.68018889 C191.1286,6.66963333 191.107489,6.65168889 191.107489,6.55985556 C191.107489,6.28646667 191.116989,6.01202222 191.116989,5.7418 C191.116989,5.60141111 191.110656,5.45996667 191.110656,5.31746667 L191.107489,5.25624444 C191.110656,5.1338 191.129656,5.11585556 191.251044,5.11796667 C191.567711,5.12746667 191.887544,5.13696667 192.208433,5.14224444 C192.393156,5.14541111 192.577878,5.1338 192.764711,5.1433 C193.377989,5.17918889 193.992322,5.13696667 194.601378,5.17391111 L194.665767,5.17602222 C194.754433,5.17391111 194.780822,5.15174444 194.783989,5.06202222 C194.789267,4.91741111 194.789267,4.7728 194.789267,4.62924444 C194.789267,4.37168889 194.788211,4.1173 194.793489,3.8608 C194.797711,3.56841111 194.937044,3.33935556 195.148156,3.15357778 C195.281156,3.03746667 195.439489,2.96885556 195.609433,2.92557778 L195.672767,2.91924444 C195.903933,2.91924444 196.130878,2.92346667 196.362044,2.9298 C196.479211,2.93296667 196.483433,2.94246667 196.483433,3.06807778 C196.484489,3.6138 196.4866,4.16057778 196.4866,4.70841111 C196.4866,5.32802222 196.484489,5.9508 196.483433,6.57252222 C196.483433,6.98946667 196.484489,7.40641111 196.484489,7.82335556 L196.484489,8.21813333 L196.483433,8.21813333 Z" id="Fill-11" fill="#31699B"></path>
                    <path d="M213.461411,12.3994 L213.565911,12.4944 C213.837189,12.7646222 214.108467,13.0380111 214.381856,13.3082333 C214.543356,13.4718444 214.543356,13.4676222 214.381856,13.6259556 C214.166522,13.8423444 213.951189,14.0597889 213.733744,14.2814556 C213.388578,14.6361222 213.040244,14.9950111 212.690856,15.3486222 C212.496633,15.5502333 212.297133,15.7518444 212.1008,15.9534556 C212.029022,16.0273444 212.019522,16.0410667 212.092356,16.1244556 C212.196856,16.2405667 212.315078,16.3471778 212.4238,16.4611778 C212.616967,16.6543444 212.815411,16.8496222 213.002244,17.0512333 C213.094078,17.1504556 213.142633,17.2750111 213.170078,17.4069556 L213.196467,17.5040667 C213.233411,17.5959 213.227078,17.6856222 213.2123,17.7806222 C213.179578,17.9664 213.121522,18.1416222 213.008578,18.2978444 L212.967411,18.3485111 C212.8133,18.4656778 212.694022,18.6250667 212.5663,18.7717889 C212.491356,18.8572889 212.4618,18.8583444 212.386856,18.7834 C212.170467,18.5722889 211.957244,18.3580111 211.744022,18.1416222 C211.567744,17.9685111 211.394633,17.7911778 211.220467,17.6180667 C210.892189,17.2929556 210.566022,16.9710111 210.236689,16.6459 C210.008689,16.4189556 209.776467,16.1941222 209.5453,15.9629556 C209.309911,15.7254556 209.073467,15.4869 208.8328,15.2483444 C208.660744,15.0752333 208.489744,14.9074 208.317689,14.7364 C208.1773,14.5981222 208.036911,14.4598444 207.899689,14.3236778 C207.799411,14.2265667 207.799411,14.1938444 207.899689,14.0925111 C208.3483,13.6407333 208.8043,13.1910667 209.255022,12.7361222 C209.652967,12.3381778 210.044578,11.9381222 210.443578,11.5370111 C210.756022,11.2224556 211.0653,10.9089556 211.381967,10.5965111 C211.685967,10.2956778 211.9868,9.99484444 212.2908,9.69717778 C212.3858,9.60534444 212.390022,9.60851111 212.483967,9.70456667 C212.770022,9.99378889 213.055022,10.2787889 213.342133,10.5690667 L213.404411,10.6302889 L213.400189,10.7453444 L213.298856,10.8435111 C212.8228,11.3216778 212.350967,11.8019556 211.875967,12.2769556 C211.4738,12.6801778 211.0653,13.0802333 210.662078,13.4845111 C210.486856,13.6586778 210.312689,13.8349556 210.139578,14.0112333 C210.070967,14.0798444 210.070967,14.1062333 210.136411,14.1706222 C210.360189,14.3933444 210.583967,14.6171222 210.804578,14.8387889 C210.908022,14.9369556 210.9133,14.9401222 211.011467,14.8409 C211.304911,14.5442889 211.599411,14.2487333 211.894967,13.9531778 C212.267578,13.5752889 212.645467,13.1995111 213.023356,12.8216222 C213.138411,12.7065667 213.255578,12.5862333 213.3738,12.4701222 L213.461411,12.3994 Z" id="Fill-13" fill="#50A44C"></path>
                    <path d="M208.537139,4.27975 L208.64375,4.26391667 C209.075472,4.26602778 209.505083,4.27025 209.937861,4.27341667 L209.962139,4.27341667 C210.058194,4.27975 210.081417,4.30297222 210.081417,4.40113889 C210.081417,4.58375 210.080361,4.76741667 210.080361,4.95319444 C210.081417,5.72269444 210.083528,6.49430556 210.08775,7.26591667 C210.08775,7.42002778 210.083528,7.57308333 210.08775,7.72508333 C210.091972,7.85491667 210.101472,7.86758333 210.224972,7.86758333 C210.506806,7.87497222 210.787583,7.87497222 211.068361,7.87708333 C211.197139,7.87708333 211.328028,7.86441667 211.452583,7.88658333 C211.575028,7.90875 211.692194,7.96258333 211.810417,8.01430556 C212.058472,8.13041667 212.209417,8.33941667 212.306528,8.58747222 C212.337139,8.66452778 212.346639,8.75213889 212.350861,8.83447222 C212.359306,9.01391667 212.35825,9.19336111 212.359306,9.37175 L212.359306,9.43719444 C212.355083,9.53747222 212.337139,9.55541667 212.23475,9.55647222 C211.981417,9.55752778 211.724917,9.55752778 211.468417,9.55752778 C210.99975,9.55752778 210.532139,9.55752778 210.061361,9.55541667 C209.862917,9.55541667 209.662361,9.54697222 209.462861,9.54697222 C208.807361,9.54486111 208.150806,9.54275 207.495306,9.53747222 C207.09525,9.53747222 206.695194,9.53325 206.293028,9.52691667 C206.179028,9.52691667 206.063972,9.53641667 205.949972,9.53641667 C205.85075,9.53641667 205.830694,9.51636111 205.830694,9.41397222 C205.829639,9.03819444 205.833861,8.66136111 205.83175,8.28980556 C205.83175,8.05863889 205.827528,7.82852778 205.826472,7.59841667 C205.824361,6.70330556 205.821194,5.80713889 205.821194,4.91202778 L205.821194,3.62213889 C205.821194,3.46063889 205.81275,3.29808333 205.813806,3.13658333 C205.816972,3.03102778 205.830694,3.01836111 205.934139,3.01836111 C206.370083,3.02152778 206.804972,3.02469444 207.238806,3.02997222 C207.34225,3.03208333 207.355972,3.04791667 207.355972,3.15452778 C207.362306,3.30336111 207.355972,3.45325 207.355972,3.60313889 C207.355972,3.92613889 207.359139,4.25230556 207.359139,4.57319444 C207.359139,4.99225 207.355972,5.40919444 207.355972,5.82613889 C207.359139,6.40986111 207.367583,6.99569444 207.371806,7.57836111 L207.373917,7.73141667 C207.38025,7.85913889 207.381306,7.85913889 207.50375,7.85913889 C207.802472,7.86019444 208.099083,7.86441667 208.399917,7.86441667 C208.522361,7.86441667 208.533972,7.85702778 208.533972,7.73669444 C208.537139,7.34086111 208.540306,6.94186111 208.540306,6.54813889 C208.540306,5.99291667 208.536083,5.44086111 208.533972,4.88352778 C208.533972,4.73469444 208.528694,4.58691667 208.528694,4.43597222 L208.537139,4.27975 Z" id="Fill-15" fill="#DFA550"></path>
                    <path d="M202.982067,3.38706667 C203.194233,3.18123333 203.399011,2.98067778 203.599567,2.78012222 C203.712511,2.66928889 203.812789,2.54262222 203.940511,2.45184444 C204.050289,2.37267778 204.188567,2.33467778 204.315233,2.27873333 L204.392289,2.26923333 C204.551678,2.21012222 204.715289,2.24284444 204.871511,2.27451111 C204.967567,2.29667778 205.063622,2.34417778 205.148067,2.39906667 C205.228289,2.45184444 205.293733,2.52678889 205.364456,2.59434444 C205.464733,2.69251111 205.559733,2.79384444 205.658956,2.89412222 C205.750789,2.9849 205.751844,2.99545556 205.663178,3.08834444 C205.352844,3.40184444 205.047789,3.71745556 204.737456,4.02673333 C204.400733,4.36978889 204.057678,4.70862222 203.713567,5.04851111 C203.469733,5.2934 203.229067,5.53828889 202.982067,5.78001111 C202.7509,6.00378889 202.512344,6.2244 202.280122,6.44817778 C202.061622,6.66034444 201.850511,6.87567778 201.638344,7.09101111 C201.482122,7.24301111 201.331178,7.39606667 201.165456,7.55862222 L201.034567,7.45834444 C200.745344,7.1649 200.4519,6.8704 200.158456,6.5759 C199.930456,6.34895556 199.705622,6.11567778 199.4734,5.88556667 C198.973067,5.38101111 198.470622,4.88067778 197.968178,4.37401111 C197.667344,4.07106667 197.365456,3.76706667 197.067789,3.46412222 C197.000233,3.39762222 196.922122,3.34062222 196.874622,3.26251111 C196.807067,3.14851111 196.728956,3.05456667 196.606511,2.99756667 L196.526289,2.88462222 C196.631844,2.77273333 196.732122,2.66401111 196.839789,2.56267778 C197.063567,2.34945556 197.286289,2.13834444 197.510067,1.9304 C197.599789,1.84384444 197.616678,1.84806667 197.705344,1.94201111 C197.845733,2.08556667 197.9914,2.22067778 198.1339,2.36106667 C198.479067,2.70834444 198.825289,3.05456667 199.168344,3.40184444 C199.561011,3.79978889 199.951567,4.19984444 200.343178,4.59673333 C200.562733,4.81945556 200.785456,5.03584444 201.008178,5.2554 L201.057789,5.2934 C201.207678,5.1509 201.358622,5.00734444 201.508511,4.86273333 C201.611956,4.76245556 201.714344,4.6569 201.816733,4.5524 C201.885344,4.48695556 201.889567,4.46795556 201.818844,4.39617778 C201.678456,4.24734444 201.5349,4.10167778 201.391344,3.95706667 C200.949067,3.51373333 200.507844,3.06617778 200.066622,2.62073333 C199.8724,2.4244 199.673956,2.23017778 199.479733,2.03595556 L199.428011,1.97578889 C199.347789,1.88395556 199.345678,1.86917778 199.432233,1.77417778 C199.491344,1.70978889 199.552567,1.65067778 199.613789,1.59156667 C199.840733,1.36884444 200.069789,1.14401111 200.298844,0.921288889 C200.403344,0.819955556 200.429733,0.819955556 200.5279,0.924455556 C200.741122,1.13978889 200.949067,1.3604 201.160178,1.57573333 C201.428289,1.84806667 201.698511,2.11828889 201.969789,2.39378889 C202.2664,2.69251111 202.564067,2.99017778 202.861733,3.28678889 L202.982067,3.38706667 Z" id="Fill-17" fill="#D23B44"></path>
                    <polygon id="Fill-19" fill="#231F20" points="198.7001 12.0861111 198.644156 12.1399444 198.6146 12.1167222 198.667378 12.0555"></polygon>
                    <polygon id="Fill-21" fill="#231F20" points="203.275828 8.04428333 203.22305 7.98517222 203.234661 7.96828333 203.276883 7.99045 203.292717 8.03267222"></polygon>
                    <polygon id="Fill-23" fill="#231F20" points="193.290378 6.16613333 193.268211 6.18935556 193.239711 6.17035556 193.259767 6.14924444"></polygon>
                    <path d="M11.2122167,20.1707167 C11.2122167,16.6451611 0.952216667,17.1212167 0.952216667,10.1017722 C0.952216667,6.41788333 4.19277222,3.52671667 8.79816111,3.52671667 C12.5137167,3.52671667 14.8338278,5.24199444 15.5632167,6.19516111 L12.5464389,9.78405 C12.0059944,9.11693889 10.7361611,7.71938333 8.38543889,7.71938333 C6.79682778,7.71938333 5.90805,8.60921667 5.90805,9.72177222 C5.90805,13.3096056 16.1353278,12.7702167 16.1353278,19.8529944 C16.1353278,23.1874944 13.3718833,26.42805 7.71832778,26.42805 C3.43066111,26.42805 0.763272222,24.5217167 0.000105555556,23.6646056 L2.76355,19.6629944 C3.71566111,20.6151056 5.65366111,22.3303833 8.35377222,22.3303833 C10.2907167,22.3303833 11.2122167,21.34555 11.2122167,20.1707167" id="Fill-25" fill="#202020"></path>
                    <path d="M23.4748167,22.1076611 L25.2544833,22.1076611 C29.7954833,22.1076611 31.0980389,19.21755 31.0980389,14.9298833 C31.0980389,9.56132778 28.7473167,7.84710556 25.2217611,7.84710556 L23.4748167,7.84710556 L23.4748167,22.1076611 Z M18.6477611,3.84443889 L25.57115,3.84443889 C32.8133167,3.84443889 36.0844833,7.36999444 36.0844833,14.4844389 C36.0844833,20.1707167 33.8298167,26.1103278 25.6355389,26.1103278 L18.6477611,26.1103278 L18.6477611,3.84443889 Z" id="Fill-27" fill="#202020"></path>
                    <path d="M55.2723722,6.10016111 L52.1595389,9.49905 C51.3340944,8.60921667 50.1582056,7.71938333 48.0935389,7.71938333 C45.1717611,7.71938333 42.6943722,9.33966111 42.6943722,14.6121611 C42.6943722,20.1073833 44.4729833,22.4887167 48.1885389,22.4887167 C48.8567056,22.4887167 49.8404833,22.36205 50.2848722,22.17205 L50.2848722,14.6438278 L55.14465,14.6438278 L55.14465,24.4594389 C53.5254278,25.5698833 51.3013722,26.42805 47.1720389,26.42805 C40.8524278,26.42805 37.7068722,22.6153833 37.7068722,15.1832167 C37.7068722,7.14832778 42.37665,3.52671667 48.2845944,3.52671667 C52.6672611,3.52671667 54.6685944,5.40138333 55.2723722,6.10016111" id="Fill-29" fill="#202020"></path>
                    <polygon id="Fill-31" fill="#202020" points="66.5525667 26.1103278 66.5525667 3.84443889 77.8913444 3.84443889 77.8913444 5.62410556 68.5211778 5.62410556 68.5211778 14.4538278 76.8115111 14.4538278 76.8115111 16.2324389 68.5211778 16.2324389 68.5211778 26.1103278"></polygon>
                    <path d="M93.6166944,18.8369167 L93.6166944,3.84486111 L95.5219722,3.84486111 L95.5219722,18.6458611 C95.5219722,23.6016944 92.6951944,26.4274167 87.7076944,26.4274167 C82.8806389,26.4274167 80.1171944,23.6966944 80.1171944,18.8369167 L80.1171944,3.84486111 L82.0235278,3.84486111 L82.0235278,18.6141944 C82.0235278,22.8068611 84.4048611,24.6181944 87.89875,24.6181944 C91.3609722,24.6181944 93.6166944,23.06125 93.6166944,18.8369167" id="Fill-33" fill="#202020"></path>
                    <polygon id="Fill-35" fill="#202020" points="103.751611 5.62389444 97.6842778 5.62389444 97.6842778 3.84422778 111.6915 3.84422778 111.6915 5.62389444 105.656889 5.62389444 105.656889 26.1101167 103.751611 26.1101167"></polygon>
                    <path d="M127.3532,18.8369167 L127.3532,3.84486111 L129.258478,3.84486111 L129.258478,18.6458611 C129.258478,23.6016944 126.4317,26.4274167 121.4442,26.4274167 C116.617144,26.4274167 113.8537,23.6966944 113.8537,18.8369167 L113.8537,3.84486111 L115.760033,3.84486111 L115.760033,18.6141944 C115.760033,22.8068611 118.141367,24.6181944 121.635256,24.6181944 C125.097478,24.6181944 127.3532,23.06125 127.3532,18.8369167" id="Fill-37" fill="#202020"></path>
                    <path d="M135.994506,14.8662333 L139.139006,14.8662333 C142.347894,14.8662333 144.602561,13.6270111 144.602561,10.2608444 C144.602561,6.86195556 142.601228,5.62378889 138.917339,5.62378889 L135.994506,5.62378889 L135.994506,14.8662333 Z M139.234006,3.84517778 C143.776061,3.84517778 146.572228,5.65545556 146.572228,10.0391778 C146.572228,13.6270111 144.157117,15.8194 141.458061,16.0737889 L141.458061,16.2004556 C142.283506,16.5498444 143.10895,17.2486222 144.094839,18.9322333 L148.38145,26.1100111 L146.095117,26.1100111 L141.965783,19.0272333 C141.013672,17.4069556 139.901117,16.6131778 138.123561,16.6131778 L135.994506,16.6131778 L135.994506,26.1100111 L134.089228,26.1100111 L134.089228,3.84517778 L139.234006,3.84517778 Z" id="Fill-39" fill="#202020"></path>
                    <polygon id="Fill-41" fill="#202020" points="151.529961 26.1103278 151.529961 3.84443889 162.963739 3.84443889 162.963739 5.62410556 153.435239 5.62410556 153.435239 13.9461056 161.852239 13.9461056 161.852239 15.7236611 153.435239 15.7236611 153.435239 24.3306611 163.439794 24.3306611 163.439794 26.1103278"></polygon>
                    <path d="M176.592228,20.4882278 C176.592228,15.0563389 165.887839,16.3588944 165.887839,9.33945 C165.887839,6.03661667 168.652339,3.52756111 172.526228,3.52756111 C174.685894,3.52756111 176.592228,4.09967222 177.989783,5.17845 L176.81495,6.73539444 C175.544061,5.78222778 174.147561,5.33678333 172.432283,5.33678333 C169.541117,5.33678333 167.825839,6.95811667 167.825839,9.24445 C167.825839,14.8030056 178.530228,13.5637833 178.530228,20.3932278 C178.530228,23.76045 175.89345,26.4278389 171.351394,26.4278389 C168.238561,26.4278389 166.015561,25.4113389 164.586339,24.2048389 L165.761172,22.6795611 C167.063728,23.6960611 168.810672,24.6175611 171.478061,24.6175611 C174.78195,24.6175611 176.592228,22.8062278 176.592228,20.4882278" id="Fill-43" fill="#202020"></path>
                </g>
                <g id="Group-48" transform="translate(257.555556, 10.909272)">
                    <mask id="mask-2" fill="white">
                        <use xlink:href="#path-1"></use>
                    </mask>
                    <g id="Clip-47"></g>
                    <polygon id="Fill-46" fill="#41C6F1" mask="url(#mask-2)" points="-3.64272222 27.4444444 27.9141667 27.4444444 27.9141667 -4.11138889 -3.64272222 -4.11138889"></polygon>
                </g>
                <g id="Group-51" transform="translate(223.777778, 10.909272)">
                    <mask id="mask-4" fill="white">
                        <use xlink:href="#path-3"></use>
                    </mask>
                    <g id="Clip-50"></g>
                    <polygon id="Fill-49" fill="#41C6F1" mask="url(#mask-4)" points="-3.91083333 27.4444444 12.6962222 27.4444444 12.6962222 -4.11138889 -3.91083333 -4.11138889"></polygon>
                </g>
                <g id="Group-54" transform="translate(233.277778, 10.909272)">
                    <mask id="mask-6" fill="white">
                        <use xlink:href="#path-5"></use>
                    </mask>
                    <g id="Clip-53"></g>
                    <polygon id="Fill-52" fill="#41C6F1" mask="url(#mask-6)" points="-3.44638889 27.4444444 28.1094444 27.4444444 28.1094444 -4.11138889 -3.44638889 -4.11138889"></polygon>
                </g>
                <g id="Group-57" transform="translate(223.777778, 0.353717)">
                    <mask id="mask-8" fill="white">
                        <use xlink:href="#path-7"></use>
                    </mask>
                    <g id="Clip-56"></g>
                    <polygon id="Fill-55" fill="#41C6F1" mask="url(#mask-8)" points="-3.91083333 13.0878333 12.6962222 13.0878333 12.6962222 -3.52027778 -3.91083333 -3.52027778"></polygon>
                </g>
            </g>
        </g>
    </g>
</svg>