<?xml version="1.0" encoding="UTF-8"?>
<svg width="215px" height="28px" viewBox="0 0 215 28" version="1.1" xmlns="http://www.w3.org/2000/svg" xmlns:xlink="http://www.w3.org/1999/xlink">
    <!-- Generator: Sketch 51.3 (57544) - http://www.bohemiancoding.com/sketch -->
    <title>Group 58</title>
    <desc>Created with Sketch.</desc>
    <defs>
        <path d="M0.388277778,8.90380556 C0.388277778,13.804 4.36127778,17.7753889 9.26147222,17.7753889 C14.1608611,17.7753889 18.1338611,13.804 18.1338611,8.90380556 C18.1338611,4.00361111 14.1608611,0.0314166667 9.26147222,0.0314166667 C4.36127778,0.0314166667 0.388277778,4.00361111 0.388277778,8.90380556 Z M6.12383333,8.90380556 C6.12383333,7.17105556 7.52872222,5.76697222 9.26147222,5.76697222 C10.9934167,5.76697222 12.3983056,7.17105556 12.3983056,8.90380556 C12.3983056,10.63575 10.9934167,12.0398333 9.26147222,12.0398333 C7.52872222,12.0398333 6.12383333,10.63575 6.12383333,8.90380556 Z" id="path-1"></path>
        <polygon id="path-3" points="6.50647222 0.0314166667 0.182861111 0.0314166667 0.182861111 17.7753889 6.52097222 17.7753889 6.52097222 0.0314166667"></polygon>
        <polygon id="path-5" points="13.8466944 0.0314166667 9.4105 4.46761111 4.97511111 0.0314166667 0.538111111 0.0314166667 0.538111111 4.46761111 4.97511111 8.90380556 0.538111111 13.3391944 0.538111111 17.7753889 4.97511111 17.7753889 9.4105 13.3391944 13.8466944 17.7753889 18.2836944 17.7753889 18.2836944 13.3391944 13.8466944 8.90380556 18.2836944 4.46761111 18.2836944 0.0314166667"></polygon>
        <path d="M0.182861111,3.65077778 C0.182861111,5.40044444 1.60225,6.81902778 3.35191667,6.81902778 C5.10238889,6.81902778 6.52097222,5.40044444 6.52097222,3.65077778 C6.52097222,1.90030556 5.10238889,0.481722222 3.35191667,0.481722222 C1.60225,0.481722222 0.182861111,1.90030556 0.182861111,3.65077778 Z" id="path-7"></path>
    </defs>
    <g id="Symbols" stroke="none" stroke-width="1" fill="none" fill-rule="evenodd">
        <g id="Footer-final" transform="translate(-54.000000, -37.000000)">
            <g id="Group-58" transform="translate(54.000000, 37.000000)">
                <g id="Group-45" transform="translate(0.000000, 6.714386)">
                    <path d="M155.131553,6.13905833 L155.144442,6.13019722 L155.132358,6.097975 L155.100136,6.08105833 L155.091275,6.09394722 L155.131553,6.13905833 Z M151.639469,9.22353056 L151.613692,9.20016944 L151.574219,9.24689167 L151.595969,9.26461389 L151.639469,9.22353056 Z M149.996136,9.34919722 L150.063803,9.43378056 C150.205581,9.57555833 150.350581,9.715725 150.493164,9.85830833 C150.733219,10.1023917 150.974081,10.3448639 151.212525,10.5881417 C151.273747,10.6501694 151.335775,10.7130028 151.394581,10.7774472 L151.386525,10.8845861 C151.310803,10.9546694 151.239914,11.0223361 151.170636,11.0948361 C151.021608,11.2422528 150.876608,11.3912806 150.729997,11.5370861 C150.506053,11.7561972 150.281303,11.9736972 150.059775,12.1944194 L150.005803,12.2781972 C150.056553,12.2798083 150.087969,12.282225 150.118581,12.282225 C150.303858,12.2854472 150.489942,12.2862528 150.676025,12.2878639 C150.781553,12.2902806 150.888692,12.2902806 150.995025,12.2902806 C151.307581,12.289475 151.620136,12.2854472 151.932692,12.2854472 C152.057553,12.2862528 152.068025,12.3055861 152.068025,12.4320583 C152.067219,12.8920306 152.066414,13.3487806 152.066414,13.8087528 C152.066414,13.9545583 152.067219,14.1027806 152.068025,14.2477806 C152.068025,14.2743639 152.074469,14.3009472 152.084136,14.3492806 C152.576331,13.8715861 153.036303,13.391475 153.521247,12.9266694 L153.617914,13.0080306 C153.745192,13.144975 153.867636,13.2883639 154.002164,13.4196694 C154.113331,13.5332528 154.243025,13.6275028 154.355803,13.7370583 C154.541886,13.913475 154.722331,14.0995583 154.902775,14.2791972 L154.992997,14.355725 L155.005886,14.2630861 C155.005886,13.956975 155.007497,13.6508639 155.005886,13.3463639 C155.005886,13.0338083 155.005081,12.7212528 155.005081,12.4095028 C155.005081,12.3128361 155.021192,12.2983361 155.118664,12.3023639 L155.175858,12.3168639 L155.218553,12.3200861 L155.341803,12.3071972 C155.571386,12.3071972 155.798553,12.3104194 156.024914,12.3104194 C156.168303,12.3104194 156.310081,12.3055861 156.454275,12.3055861 C156.629886,12.3055861 156.803081,12.3104194 156.979497,12.3104194 L157.047969,12.289475 L156.997219,12.2298639 C156.906192,12.1348083 156.811136,12.0405583 156.716081,11.9479194 C156.427692,11.6595306 156.138497,11.3735583 155.853331,11.085975 C155.784858,11.0215306 155.718803,10.9546694 155.653553,10.8845861 C155.613275,10.8362528 155.618914,10.8096694 155.664025,10.7661694 L155.729275,10.7081694 C155.897636,10.5398083 156.062775,10.3730583 156.232747,10.2046972 L156.337469,10.1040028 C156.409164,10.0306972 156.476025,9.95819722 156.544497,9.88489167 L156.590414,9.91228056 L156.630692,9.80916944 C156.686275,9.74230833 156.752331,9.68108611 156.811136,9.61744722 C156.879608,9.54253056 156.948081,9.46519722 157.024608,9.382225 L156.918275,9.37014167 C156.578331,9.36691944 156.237581,9.36691944 155.894414,9.36450278 C155.628581,9.36450278 155.360331,9.36691944 155.096108,9.36450278 C155.004275,9.36450278 154.995414,9.35241944 154.992997,9.26219722 C154.992997,9.00683611 154.995414,8.74825278 154.992997,8.49208611 C154.991386,8.12394722 154.988969,7.75661389 154.986553,7.38766944 C154.986553,7.36591944 154.980914,7.34255833 154.972053,7.294225 C154.483886,7.787225 154.015053,8.26089167 153.541386,8.74100278 L153.457608,8.67253056 C153.352081,8.56941944 153.245747,8.46550278 153.141025,8.35836389 C152.899358,8.11669722 152.660108,7.87261389 152.416831,7.63255833 C152.330636,7.54475278 152.243636,7.45775278 152.154219,7.36914167 C152.131664,7.34658611 152.111525,7.31678056 152.059969,7.34980833 C152.059969,7.55039167 152.058358,7.75661389 152.058358,7.96605833 C152.059164,8.38494722 152.059969,8.80303056 152.063192,9.22191944 C152.063997,9.31858611 152.055136,9.345975 151.950414,9.345975 C151.711164,9.34436389 151.467886,9.345975 151.227025,9.34436389 C150.850025,9.34436389 150.467386,9.34114167 150.085553,9.33953056 L149.996136,9.34919722 Z M159.634608,8.31728056 L159.551636,8.41233611 C159.304331,8.66125278 159.050581,8.90775278 158.801664,9.15505833 C158.539053,9.41686389 158.276442,9.67705833 158.014636,9.94128056 C157.740747,10.2143639 157.470081,10.491475 157.198608,10.766975 C157.133358,10.8338361 157.133358,10.8443083 157.198608,10.9087528 C157.427386,11.1383361 157.658581,11.3663083 157.887358,11.5942806 C157.965497,11.6716139 158.037192,11.7489472 158.113719,11.8222528 C158.431108,12.1307806 158.747692,12.4393083 159.065081,12.7502528 C159.241497,12.9258639 159.419525,13.1022806 159.595942,13.2819194 L159.666831,13.3689194 C159.607219,13.3729472 159.571775,13.3810028 159.533108,13.3810028 C159.026414,13.3810028 158.519719,13.3785861 158.012219,13.3777806 C157.446719,13.3753639 156.879608,13.3745583 156.314108,13.3745583 L156.178775,13.3793917 C156.100636,13.3866417 156.089358,13.3995306 156.089358,13.478475 C156.089358,13.7273917 156.089358,13.9730861 156.091775,14.2203917 C156.095803,14.8769194 156.100636,15.5350583 156.105469,16.1915861 C156.107081,16.414725 156.112719,16.6410861 156.113525,16.8650306 C156.113525,16.9020861 156.109497,16.9399472 156.105469,16.9915028 L156.037803,16.9471972 C155.934692,16.849725 155.829969,16.7490306 155.728469,16.6499472 C155.494858,16.4171417 155.262858,16.1851417 155.031664,15.9539472 C154.809331,15.7291972 154.588608,15.5020306 154.364664,15.2796972 C154.164886,15.0799194 153.965108,14.8809472 153.762914,14.6803639 C153.687192,14.6062528 153.610664,14.5305306 153.526886,14.4491694 C153.460831,14.5128083 153.399608,14.5643639 153.341608,14.6207528 C153.049192,14.9155861 152.753553,15.2096139 152.462747,15.5076694 C152.051108,15.9273639 151.641081,16.3502806 151.230247,16.7723917 C151.169025,16.8336139 151.110219,16.8988639 151.048192,16.9608917 L150.981331,17.0084194 C150.976497,16.951225 150.970858,16.9117528 150.970858,16.871475 C150.973275,16.3559194 150.974081,15.8371417 150.974081,15.3191694 C150.976497,14.7802528 150.974081,14.239725 150.974081,13.6983917 C150.974081,13.616225 150.976497,13.536475 150.974081,13.4543083 C150.974081,13.3882528 150.961192,13.3777806 150.891914,13.3777806 C150.407775,13.3753639 149.922831,13.3777806 149.439497,13.3753639 C149.050414,13.3753639 148.665358,13.3721417 148.278692,13.3705306 C148.021719,13.3705306 147.765553,13.3753639 147.506969,13.3753639 C147.461053,13.3753639 147.410303,13.3834194 147.361164,13.3391139 C147.467497,13.2045861 147.600414,13.1006694 147.716414,12.9790306 C147.834831,12.8541694 147.959692,12.7349472 148.082136,12.6133083 C148.202969,12.4940861 148.323803,12.3772806 148.444636,12.2596694 C148.567081,12.1412528 148.691136,12.0276694 148.812775,11.9092528 C148.934414,11.7908361 149.050414,11.6691972 149.172858,11.5507806 C149.293692,11.4275306 149.417747,11.3075028 149.540192,11.1866694 C149.659414,11.0674472 149.777831,10.9466139 149.900275,10.8209472 C149.808442,10.6952806 149.690025,10.6034472 149.586108,10.4963083 C149.483803,10.3867528 149.378275,10.2828361 149.272747,10.1756972 C149.167219,10.0693639 149.060081,9.96625278 148.952942,9.860725 C148.849025,9.75358611 148.745108,9.64403056 148.640386,9.53930833 C148.535664,9.43378056 148.423692,9.331475 148.318969,9.22433611 C148.211025,9.11961389 148.110331,9.01166944 148.003997,8.90775278 C147.900886,8.80061389 147.788914,8.69750278 147.686608,8.58955833 C147.589942,8.48080833 147.465886,8.39380833 147.380497,8.24719722 C147.432858,8.243975 147.467497,8.23591944 147.502136,8.23591944 C147.726081,8.24075278 147.948414,8.24800278 148.172358,8.25364167 C148.300442,8.25525278 148.426914,8.25525278 148.552581,8.25525278 L149.197025,8.25525278 C149.450775,8.25525278 149.703719,8.25525278 149.957469,8.258475 C150.081525,8.26089167 150.208803,8.27055833 150.334469,8.27378056 C150.435164,8.27378056 150.535053,8.26250278 150.635747,8.26169722 C150.714692,8.26089167 150.796858,8.26169722 150.878219,8.26250278 C150.955553,8.26250278 150.986969,8.236725 150.986969,8.16100278 C150.982942,7.68491944 150.976497,7.20480833 150.976497,6.72791944 C150.976497,6.21316944 150.978914,5.699225 150.978914,5.184475 C150.981331,5.06041944 150.976497,4.93716944 150.976497,4.81391944 L150.984553,4.70678056 C151.042553,4.71080833 151.065914,4.74866944 151.094914,4.77686389 C151.342219,5.02578056 151.590331,5.27791944 151.834414,5.52441944 C151.964108,5.65814167 152.093803,5.79266944 152.225108,5.92316944 C152.454692,6.155975 152.689914,6.38878056 152.922719,6.62078056 C153.103164,6.801225 153.284414,6.98489167 153.465664,7.16775278 L153.518025,7.21528056 C153.617914,7.15566944 153.687192,7.07028056 153.765331,6.99375278 C153.948192,6.81330833 154.128636,6.63044722 154.309081,6.45080833 C154.544303,6.21478056 154.778719,5.97955833 155.013942,5.74675278 C155.135581,5.626725 155.256414,5.510725 155.376442,5.39069722 C155.524664,5.242475 155.673692,5.09264167 155.823525,4.94441944 C155.887969,4.879975 155.954025,4.82116944 156.037803,4.74303056 C156.052303,4.80828056 156.065997,4.850975 156.065997,4.89205833 C156.062775,5.28436389 156.059553,5.67344722 156.057136,6.06494722 C156.056331,6.27278056 156.054719,6.47900278 156.054719,6.68844722 C156.052303,6.82539167 156.057136,6.96153056 156.059553,7.09686389 C156.059553,7.32000278 156.061164,7.54475278 156.062775,7.76789167 C156.062775,7.91530833 156.062775,8.06191944 156.067608,8.20933611 C156.067608,8.27619722 156.084525,8.29230833 156.155414,8.29553056 C156.256108,8.29553056 156.357608,8.29230833 156.458303,8.29230833 C156.865108,8.294725 157.271914,8.29553056 157.678719,8.29553056 C157.992081,8.29794722 158.307858,8.30278056 158.625247,8.30278056 C158.919275,8.30278056 159.216525,8.30036389 159.512164,8.30036389 C159.545192,8.30036389 159.579025,8.31083611 159.634608,8.31728056 Z" id="Fill-1" fill="#FFFFFF"></path>
                    <path d="M149.922267,19.5282778 L149.804656,19.5427778 C149.475989,19.5451944 149.146517,19.5451944 148.819461,19.546 C148.721989,19.546 148.717961,19.5395556 148.718767,19.4412778 C148.721183,18.7799167 148.721989,18.1185556 148.725211,17.4596111 C148.728433,16.9601667 148.731656,16.4639444 148.736489,15.9645 C148.736489,15.9105278 148.734878,15.8549444 148.734878,15.8001667 C148.731656,15.7389444 148.721183,15.7276667 148.659961,15.7228333 L148.54235,15.7228333 C148.344183,15.7228333 148.146822,15.7244444 147.947044,15.7260556 L147.8971,15.7292778 C147.849572,15.7308889 147.828628,15.7558611 147.827822,15.8033889 C147.8246,15.921 147.821378,16.0378056 147.821378,16.1554167 C147.818156,16.4816667 147.819767,16.8055 147.818156,17.1285278 C147.816544,17.5538611 147.812517,17.9767778 147.8101,18.3996944 L147.809294,18.4963611 C147.805267,18.5463056 147.778683,18.5728889 147.727933,18.5793333 L147.699739,18.5801389 C147.517683,18.5793333 147.335628,18.5745 147.152767,18.5777222 C147.007767,18.5777222 146.861961,18.5865833 146.71535,18.5922222 L146.676683,18.5930278 C146.593711,18.5922222 146.582433,18.5793333 146.582433,18.4939444 C146.582433,18.3288056 146.58485,18.1620556 146.58485,17.9969167 C146.587267,17.7882778 146.58485,17.5796389 146.587267,17.3701944 C146.590489,17.0793889 146.596933,16.7885833 146.600961,16.49375 C146.604989,16.2698056 146.604989,16.0450556 146.604989,15.8203056 C146.604989,15.7381389 146.598544,15.7300833 146.515572,15.7300833 C146.269878,15.7292778 146.021767,15.7308889 145.773656,15.7308889 C145.689878,15.7308889 145.6061,15.73975 145.521517,15.7300833 C145.448211,15.7212222 145.373294,15.7026944 145.307239,15.6696667 C145.128406,15.5778333 144.978572,15.4505556 144.889961,15.2620556 C144.846461,15.1686111 144.819878,15.0767778 144.823906,14.9720556 C144.831156,14.8246389 144.823906,14.6788333 144.823906,14.5314167 C144.823906,14.4299167 144.856933,14.4105833 144.943933,14.4113889 C145.216211,14.4138056 145.491711,14.4105833 145.763183,14.4097778 C146.124878,14.4073611 146.486572,14.40575 146.848267,14.4049444 C147.201906,14.4049444 147.555544,14.4097778 147.909989,14.4097778 C148.311961,14.4073611 148.711517,14.4017222 149.110267,14.4017222 C149.299572,14.4009167 149.486461,14.40575 149.676572,14.4073611 C149.737794,14.4097778 149.800628,14.4073611 149.86185,14.4097778 C149.933544,14.4113889 149.945628,14.4275 149.945628,14.4983889 C149.942406,14.7191111 149.940794,14.9398333 149.940794,15.1629722 C149.939183,15.4545833 149.940794,15.7461944 149.940794,16.0386111 C149.939183,16.3624444 149.939183,16.6846667 149.939183,17.0060833 C149.938378,17.5466111 149.938378,18.0863333 149.938378,18.6268611 L149.938378,19.4364444 L149.922267,19.5282778 Z" id="Fill-3" fill="#CE3481"></path>
                    <path d="M156.292761,20.3574361 C156.165483,20.2333806 156.048678,20.1189917 155.935094,20.0054083 C155.395372,19.4624639 154.856456,18.9211306 154.315928,18.376575 C154.124206,18.1840472 153.934094,17.9891028 153.740761,17.7941583 L153.686789,17.738575 C153.635233,17.6958806 153.606233,17.6942694 153.559511,17.7417972 C153.445928,17.8521583 153.332344,17.9657417 153.221178,18.079325 C153.157539,18.1469917 153.091483,18.217075 153.029456,18.2887694 C152.985956,18.3387139 152.985956,18.3524083 153.035094,18.4015472 C153.221178,18.5844083 153.404844,18.7672694 153.587706,18.9501306 C153.9059,19.2707417 154.222483,19.5937694 154.541483,19.9151861 C154.6599,20.0319917 154.777511,20.1479917 154.893511,20.2680194 C154.956344,20.3332694 154.956344,20.3453528 154.895122,20.4122139 C154.818594,20.493575 154.73965,20.5717139 154.663928,20.6514639 C154.515706,20.8101583 154.367483,20.9712694 154.220872,21.131575 C154.143539,21.2145472 154.119372,21.2145472 154.038817,21.1356028 C153.762511,20.8568806 153.484594,20.5757417 153.208289,20.2946028 C152.966622,20.0464917 152.724956,19.7959639 152.4849,19.5446306 C152.392261,19.4479639 152.299622,19.3521028 152.205372,19.2586583 C152.148178,19.2022694 152.124817,19.1998528 152.067622,19.2602694 C151.870261,19.4584361 151.674511,19.6566028 151.478761,19.8571861 L151.388539,19.9466028 C151.249983,20.0867694 151.069539,20.1423528 150.884261,20.1447694 C150.756983,20.145575 150.62165,20.1125472 150.499206,20.051325 C150.379983,19.9949361 150.297817,19.9022972 150.214039,19.8072417 C150.156039,19.7403806 150.093206,19.6791583 150.032789,19.616325 C149.965928,19.5494639 149.965928,19.5309361 150.031178,19.464075 C150.197928,19.2924917 150.365483,19.1184917 150.535456,18.9469083 C150.752956,18.7253806 150.972872,18.5014361 151.191983,18.2799083 C151.50615,17.9625194 151.819511,17.6467417 152.134483,17.3317694 C152.339094,17.1247417 152.541289,16.9185194 152.744289,16.7131028 C152.936817,16.5149361 153.128539,16.3167694 153.325094,16.1210194 C153.375039,16.0718806 153.428206,16.0243528 153.481372,15.9752139 C153.5434,15.9180194 153.566761,15.9172139 153.627178,15.9800472 C153.707733,16.0614083 153.78265,16.1451861 153.864817,16.2257417 C154.0219,16.3812139 154.178983,16.5358806 154.336067,16.6921583 C154.716289,17.071575 155.092483,17.4526028 155.4719,17.832825 C155.760289,18.1244361 156.0519,18.412825 156.341094,18.7020194 C156.581956,18.9436861 156.823622,19.1877694 157.066094,19.4286306 C157.128928,19.4954917 157.13215,19.5116028 157.063678,19.5792694 C156.92915,19.7162139 156.789789,19.8507417 156.65365,19.9876861 C156.569067,20.0738806 156.485289,20.1665194 156.3999,20.2559361 L156.292761,20.3574361 Z" id="Fill-5" fill="#962B45"></path>
                    <path d="M146.675636,10.8716972 C146.457331,10.6541972 146.248692,10.4447528 146.029581,10.2248361 L145.924053,10.3150583 C145.736358,10.498725 145.547053,10.6831972 145.358553,10.8668639 C145.079831,11.1383361 144.804331,11.4057806 144.527219,11.6764472 C144.379803,11.8214472 144.234803,11.9640306 144.089803,12.1098361 C144.005219,12.1944194 143.999581,12.1960306 143.908553,12.1122528 C143.796581,12.0083361 143.690247,11.9003917 143.580692,11.7908361 C143.461469,11.6716139 143.339831,11.5523917 143.221414,11.4331694 C143.156164,11.3679194 143.153747,11.3510028 143.223025,11.2841417 C143.382525,11.1278639 143.545247,10.9740028 143.705553,10.8169194 C144.064025,10.4689194 144.421692,10.1225306 144.779358,9.77694722 C144.887303,9.66980833 144.998469,9.56266944 145.106414,9.454725 L145.177303,9.38061389 C145.093525,9.29683611 145.017803,9.21708611 144.938858,9.14055833 C144.784192,8.98589167 144.631136,8.83203056 144.474053,8.68139167 C144.405581,8.61453056 144.358858,8.54041944 144.321803,8.45664167 C144.204192,8.19080833 144.238025,7.93464167 144.387858,7.69458611 C144.449081,7.59630833 144.544942,7.52139167 144.627108,7.43841944 C144.697192,7.366725 144.772914,7.30066944 144.861525,7.21528056 C144.904219,7.26683611 144.935636,7.31033611 144.975108,7.35141944 C145.074192,7.45453056 145.169247,7.56166944 145.279608,7.65511389 C145.550275,7.88550278 145.786303,8.14730833 146.036025,8.39783611 C146.367914,8.729725 146.704636,9.055975 147.034108,9.38705833 C147.225831,9.57878056 147.410303,9.77694722 147.599608,9.96786389 C147.714803,10.0862806 147.834831,10.1998639 147.952442,10.3182806 C148.071664,10.4366972 148.187664,10.5591417 148.307692,10.679975 L148.370525,10.7395861 C148.433358,10.8008083 148.434969,10.8217528 148.374553,10.8845861 C148.288358,10.9707806 148.205386,11.0561694 148.118386,11.1407528 C147.788914,11.462975 147.457025,11.7835861 147.126747,12.1098361 C146.846414,12.383725 146.570914,12.6624472 146.289775,12.9387528 C145.908747,13.3133361 145.525303,13.6838917 145.144275,14.0560583 C145.054858,14.145475 144.968664,14.2381139 144.879247,14.3291417 C144.820442,14.3863361 144.799497,14.384725 144.740692,14.3291417 C144.634358,14.2244194 144.527219,14.1221139 144.421692,14.0125583 C144.287164,13.8756139 144.155858,13.7378639 144.023747,13.6001139 C143.973803,13.543725 143.972997,13.5284194 144.032608,13.4704194 C144.195331,13.3052806 144.358858,13.144975 144.525608,12.9830583 C144.697192,12.8155028 144.867969,12.6471417 145.041164,12.4787806 C145.215969,12.3080028 145.389969,12.1380306 145.564775,11.9672528 C145.698497,11.8383639 145.830608,11.709475 145.962719,11.5805861 C146.177803,11.3671139 146.394497,11.1552528 146.609581,10.9441972 L146.675636,10.8716972 Z" id="Fill-7" fill="#5BBCE2"></path>
                    <path d="M158.424583,15.621575 C158.424583,15.715825 158.424583,15.8036306 158.426194,15.8906306 C158.428611,16.0670472 158.429417,16.2426583 158.435056,16.4182694 C158.439083,16.5213806 158.451167,16.5294361 158.55025,16.5294361 C158.918389,16.5294361 159.284111,16.5302417 159.650639,16.5302417 C159.999444,16.5294361 160.34825,16.5262139 160.693833,16.5262139 C160.821111,16.5262139 160.95,16.5262139 161.074056,16.5294361 L161.161056,16.5382972 L161.217444,16.6107972 C161.217444,16.8347417 161.21825,17.0578806 161.219861,17.2826306 C161.220667,17.3897694 161.227111,17.4977139 161.228722,17.6056583 C161.229528,17.7055472 161.227111,17.7144083 161.127222,17.7160194 C160.961278,17.7192417 160.796944,17.7160194 160.631806,17.7160194 C160.142833,17.7144083 159.653056,17.7111861 159.1665,17.7111861 C158.957861,17.7111861 158.750833,17.7160194 158.543,17.7192417 C158.455194,17.7216583 158.444722,17.7369639 158.444722,17.825575 C158.446333,17.9246583 158.446333,18.0261583 158.446333,18.1260472 C158.449556,18.3379083 158.454389,18.5497694 158.452778,18.7624361 C158.451167,18.8744083 158.418944,18.9759083 158.360944,19.0741861 C158.244944,19.2691306 158.07175,19.3891583 157.870361,19.4697139 L157.782556,19.4882417 C157.603722,19.4906583 157.4265,19.4906583 157.247667,19.4906583 C157.18,19.4906583 157.159056,19.4729361 157.155028,19.4052694 C157.149389,19.3512972 157.149389,19.2949083 157.149389,19.239325 C157.149389,18.6142139 157.147778,17.9891028 157.142944,17.3656028 C157.142139,17.0530472 157.134083,16.7412972 157.132472,16.4279361 C157.12925,15.9719917 157.128444,15.5176583 157.124417,15.0609083 C157.124417,14.8796583 157.119583,14.6984083 157.117972,14.5139361 C157.11475,14.4172694 157.126028,14.4011583 157.229139,14.4011583 C157.394278,14.4011583 157.561028,14.4043806 157.726972,14.4043806 L158.770972,14.4043806 C159.160861,14.4043806 159.551556,14.4011583 159.94225,14.4011583 C160.430417,14.4011583 160.918583,14.4043806 161.404333,14.4059917 C161.600889,14.4092139 161.795833,14.4116306 161.991583,14.4148528 L162.060861,14.4172694 C162.110806,14.4204917 162.132556,14.4478806 162.134167,14.4986306 C162.134972,14.6460472 162.139806,14.7926583 162.141417,14.9384639 C162.144639,15.1036028 162.145444,15.2695472 162.14625,15.4354917 L162.147861,15.5434361 L162.090667,15.6046583 C162.027833,15.607075 161.965806,15.6119083 161.903778,15.6102972 C161.712861,15.6102972 161.526778,15.6046583 161.336667,15.6046583 C161.034583,15.6046583 160.733306,15.6046583 160.430417,15.6046583 C160.062278,15.6046583 159.696556,15.6022417 159.328417,15.6022417 C159.071444,15.6022417 158.813667,15.6022417 158.556694,15.6046583 C158.516417,15.6054639 158.475333,15.6135194 158.424583,15.621575" id="Fill-9" fill="#F2C444"></path>
                    <path d="M147.511078,4.70573333 L147.487717,4.69284444 L147.472411,4.70895556 L147.494161,4.72345556 L147.511078,4.70573333 Z M149.947883,6.27173333 L149.947883,7.04023333 L149.955133,7.15865 L149.893106,7.22953889 L149.814967,7.23437222 C149.649828,7.22953889 149.483078,7.22309444 149.320356,7.22228889 C148.98605,7.22148333 148.657383,7.22470556 148.324689,7.22228889 C147.931578,7.21906667 147.539272,7.21020556 147.146967,7.20617778 C146.914161,7.20215 146.685383,7.20295556 146.454189,7.20134444 C146.156133,7.19973333 145.855661,7.1949 145.557606,7.19328889 C145.37555,7.19006667 145.193494,7.19328889 145.011439,7.19087222 L144.980022,7.19087222 C144.883356,7.18684444 144.869661,7.17234444 144.869661,7.07487222 C144.872078,6.77037222 144.872883,6.46667778 144.874494,6.16217778 L144.876911,6.05181667 L144.935717,5.99220556 C145.004189,5.9914 145.074272,5.98817778 145.142744,5.99220556 C145.2523,5.99784444 145.363467,6.02523333 145.471411,6.01153889 C145.737244,5.98173333 146.003883,6.01234444 146.271328,6.00751111 C146.446133,6.00428889 146.620939,6.01234444 146.795744,6.01476111 C147.106689,6.0204 147.42005,6.02201111 147.7318,6.02684444 C147.845383,6.02765 147.959772,6.03731667 148.071744,6.03812222 C148.243328,6.03892778 148.411689,6.03731667 148.58005,6.03167778 C148.638856,6.03167778 148.653356,6.01476111 148.654967,5.94306667 C148.658189,5.82948333 148.654161,5.7159 148.654161,5.60231667 C148.654161,5.48470556 148.654967,5.36628889 148.654967,5.24948333 C148.654967,5.1504 148.641272,5.13670556 148.545411,5.13428889 C148.149883,5.12945556 147.751133,5.12542778 147.353994,5.12059444 C146.899661,5.11334444 146.443717,5.10770556 145.988578,5.09965 L145.931383,5.09803889 C145.8613,5.08998333 145.845189,5.07628889 145.845189,5.00620556 C145.845189,4.79756667 145.852439,4.58812222 145.852439,4.3819 C145.852439,4.27476111 145.847606,4.16681667 145.847606,4.05806667 L145.845189,4.01134444 C145.847606,3.9179 145.862106,3.90420556 145.954744,3.90581667 C146.196411,3.91306667 146.440494,3.92031667 146.685383,3.92434444 C146.826356,3.92676111 146.967328,3.9179 147.109911,3.92515 C147.577939,3.95253889 148.046772,3.92031667 148.511578,3.94851111 L148.560717,3.95012222 C148.628383,3.94851111 148.648522,3.93159444 148.650939,3.86312222 C148.654967,3.75276111 148.654967,3.6424 148.654967,3.53284444 C148.654967,3.33628889 148.654161,3.14215 148.658189,2.9464 C148.661411,2.72326111 148.767744,2.54845556 148.928856,2.40667778 C149.030356,2.31806667 149.151189,2.26570556 149.280883,2.23267778 L149.329217,2.22784444 C149.505633,2.22784444 149.678828,2.23106667 149.855244,2.2359 C149.944661,2.23831667 149.947883,2.24556667 149.947883,2.34142778 C149.948689,2.7579 149.9503,3.17517778 149.9503,3.59326111 C149.9503,4.06612222 149.948689,4.5414 149.947883,5.01587222 C149.947883,5.33406667 149.948689,5.65226111 149.948689,5.97045556 L149.948689,6.27173333 L149.947883,6.27173333 Z" id="Fill-11" fill="#31699B"></path>
                    <path d="M162.904761,9.4627 L162.984511,9.5352 C163.191539,9.74142222 163.398567,9.95006111 163.607206,10.1562833 C163.730456,10.2811444 163.730456,10.2779222 163.607206,10.3987556 C163.442872,10.5638944 163.278539,10.7298389 163.112594,10.8990056 C162.849178,11.1696722 162.583344,11.4435611 162.316706,11.7134222 C162.168483,11.8672833 162.016233,12.0211444 161.8664,12.1750056 C161.811622,12.2313944 161.804372,12.2418667 161.859956,12.3055056 C161.939706,12.3941167 162.029928,12.4754778 162.1129,12.5624778 C162.260317,12.7098944 162.411761,12.8589222 162.554344,13.0127833 C162.624428,13.0885056 162.661483,13.1835611 162.682428,13.2842556 L162.702567,13.3583667 C162.730761,13.42845 162.725928,13.4969222 162.71465,13.5694222 C162.689678,13.7112 162.645372,13.8449222 162.559178,13.9641444 L162.527761,14.0028111 C162.41015,14.0922278 162.319122,14.2138667 162.22165,14.3258389 C162.164456,14.3910889 162.1419,14.3918944 162.084706,14.3347 C161.919567,14.1735889 161.756844,14.0100611 161.594122,13.8449222 C161.459594,13.7128111 161.327483,13.5774778 161.194567,13.4453667 C160.944039,13.1972556 160.695122,12.9515611 160.443789,12.70345 C160.269789,12.5302556 160.092567,12.3586722 159.91615,12.1822556 C159.736511,12.0010056 159.556067,11.81895 159.3724,11.6368944 C159.241094,11.5047833 159.110594,11.3767 158.979289,11.2462 C158.87215,11.1406722 158.765011,11.0351444 158.660289,10.9312278 C158.583761,10.8571167 158.583761,10.8321444 158.660289,10.7548111 C159.00265,10.4100333 159.35065,10.0668667 159.694622,9.71967222 C159.998317,9.41597778 160.297178,9.11067222 160.601678,8.80456111 C160.840122,8.56450556 161.07615,8.32525556 161.317817,8.08681111 C161.549817,7.85722778 161.7794,7.62764444 162.0114,7.40047778 C162.0839,7.33039444 162.087122,7.33281111 162.158817,7.40611667 C162.377122,7.62683889 162.594622,7.84433889 162.813733,8.06586667 L162.861261,8.11258889 L162.858039,8.20039444 L162.780706,8.27531111 C162.4174,8.64022778 162.057317,9.00675556 161.694817,9.36925556 C161.3879,9.67697778 161.07615,9.98228333 160.768428,10.2908111 C160.634706,10.4237278 160.501789,10.5582556 160.369678,10.6927833 C160.317317,10.7451444 160.317317,10.7652833 160.367261,10.8144222 C160.538039,10.9843944 160.708817,11.1551722 160.877178,11.3243389 C160.956122,11.3992556 160.96015,11.4016722 161.035067,11.32595 C161.259011,11.0995889 161.483761,10.8740333 161.709317,10.6484778 C161.993678,10.3600889 162.282067,10.0733111 162.570456,9.78492222 C162.658261,9.69711667 162.747678,9.60528333 162.8379,9.51667222 L162.904761,9.4627 Z" id="Fill-13" fill="#50A44C"></path>
                    <path d="M159.146764,3.266125 L159.228125,3.25404167 C159.557597,3.25565278 159.885458,3.258875 160.215736,3.26129167 L160.234264,3.26129167 C160.307569,3.266125 160.325292,3.28384722 160.325292,3.35876389 C160.325292,3.498125 160.324486,3.63829167 160.324486,3.78006944 C160.325292,4.36731944 160.326903,4.95618056 160.330125,5.54504167 C160.330125,5.66265278 160.326903,5.77945833 160.330125,5.89545833 C160.333347,5.99454167 160.340597,6.00420833 160.434847,6.00420833 C160.649931,6.00984722 160.864208,6.00984722 161.078486,6.01145833 C161.176764,6.01145833 161.276653,6.00179167 161.371708,6.01870833 C161.465153,6.035625 161.554569,6.07670833 161.644792,6.11618056 C161.834097,6.20479167 161.949292,6.36429167 162.023403,6.55359722 C162.046764,6.61240278 162.054014,6.67926389 162.057236,6.74209722 C162.063681,6.87904167 162.062875,7.01598611 162.063681,7.152125 L162.063681,7.20206944 C162.060458,7.27859722 162.046764,7.29229167 161.968625,7.29309722 C161.775292,7.29390278 161.579542,7.29390278 161.383792,7.29390278 C161.026125,7.29390278 160.669264,7.29390278 160.309986,7.29229167 C160.158542,7.29229167 160.005486,7.28584722 159.853236,7.28584722 C159.352986,7.28423611 158.851931,7.282625 158.351681,7.27859722 C158.046375,7.27859722 157.741069,7.275375 157.434153,7.27054167 C157.347153,7.27054167 157.259347,7.27779167 157.172347,7.27779167 C157.096625,7.27779167 157.081319,7.26248611 157.081319,7.18434722 C157.080514,6.89756944 157.083736,6.60998611 157.082125,6.32643056 C157.082125,6.15001389 157.078903,5.97440278 157.078097,5.79879167 C157.076486,5.11568056 157.074069,4.43176389 157.074069,3.74865278 L157.074069,2.76426389 C157.074069,2.64101389 157.067625,2.51695833 157.068431,2.39370833 C157.070847,2.31315278 157.081319,2.30348611 157.160264,2.30348611 C157.492958,2.30590278 157.824847,2.30831944 158.155931,2.31234722 C158.234875,2.31395833 158.245347,2.32604167 158.245347,2.40740278 C158.250181,2.52098611 158.245347,2.635375 158.245347,2.74976389 C158.245347,2.99626389 158.247764,3.24518056 158.247764,3.49006944 C158.247764,3.809875 158.245347,4.12806944 158.245347,4.44626389 C158.247764,4.89173611 158.254208,5.33881944 158.257431,5.78348611 L158.259042,5.90029167 C158.263875,5.99776389 158.264681,5.99776389 158.358125,5.99776389 C158.586097,5.99856944 158.812458,6.00179167 159.042042,6.00179167 C159.135486,6.00179167 159.144347,5.99615278 159.144347,5.90431944 C159.146764,5.60223611 159.149181,5.29773611 159.149181,4.99726389 C159.149181,4.57354167 159.145958,4.15223611 159.144347,3.72690278 C159.144347,3.61331944 159.140319,3.50054167 159.140319,3.38534722 L159.146764,3.266125 Z" id="Fill-15" fill="#DFA550"></path>
                    <path d="M154.907367,2.58486667 C155.069283,2.42778333 155.225561,2.27472778 155.378617,2.12167222 C155.464811,2.03708889 155.541339,1.94042222 155.638811,1.87114444 C155.722589,1.81072778 155.828117,1.78172778 155.924783,1.73903333 L155.983589,1.73178333 C156.105228,1.68667222 156.230089,1.71164444 156.349311,1.73581111 C156.422617,1.75272778 156.495922,1.78897778 156.560367,1.83086667 C156.621589,1.87114444 156.671533,1.92833889 156.725506,1.97989444 C156.802033,2.05481111 156.874533,2.13214444 156.950256,2.20867222 C157.020339,2.27795 157.021144,2.28600556 156.953478,2.35689444 C156.716644,2.59614444 156.483839,2.83700556 156.247006,3.07303333 C155.990033,3.33483889 155.728228,3.59342222 155.465617,3.85281111 C155.279533,4.0397 155.095867,4.22658889 154.907367,4.41106111 C154.73095,4.58183889 154.548894,4.7502 154.371672,4.92097778 C154.204922,5.08289444 154.043811,5.24722778 153.881894,5.41156111 C153.762672,5.52756111 153.647478,5.64436667 153.521006,5.76842222 L153.421117,5.69189444 C153.200394,5.46795 152.97645,5.2432 152.752506,5.01845 C152.578506,4.84525556 152.406922,4.66722778 152.2297,4.49161667 C151.847867,4.10656111 151.464422,3.72472778 151.080978,3.33806111 C150.851394,3.10686667 150.621006,2.87486667 150.393839,2.64367222 C150.342283,2.59292222 150.282672,2.54942222 150.246422,2.48981111 C150.194867,2.40281111 150.135256,2.33111667 150.041811,2.28761667 L149.980589,2.20142222 C150.061144,2.11603333 150.137672,2.03306111 150.219839,1.95572778 C150.390617,1.79300556 150.560589,1.63189444 150.731367,1.4732 C150.799839,1.40714444 150.812728,1.41036667 150.880394,1.48206111 C150.987533,1.59161667 151.0987,1.69472778 151.20745,1.80186667 C151.470867,2.06689444 151.735089,2.33111667 151.996894,2.59614444 C152.296561,2.89983889 152.594617,3.20514444 152.893478,3.50803333 C153.061033,3.67800556 153.231006,3.84314444 153.400978,4.0107 L153.438839,4.0397 C153.553228,3.93095 153.668422,3.82139444 153.782811,3.71103333 C153.861756,3.63450556 153.939894,3.55395 154.018033,3.4742 C154.070394,3.42425556 154.073617,3.40975556 154.019644,3.35497778 C153.912506,3.24139444 153.80295,3.13022778 153.693394,3.01986667 C153.355867,2.68153333 153.019144,2.33997778 152.682422,2.00003333 C152.5342,1.8502 152.382756,1.70197778 152.234533,1.55375556 L152.195061,1.50783889 C152.133839,1.43775556 152.132228,1.42647778 152.198283,1.35397778 C152.243394,1.30483889 152.290117,1.25972778 152.336839,1.21461667 C152.510033,1.04464444 152.684839,0.873061111 152.859644,0.703088889 C152.939394,0.625755556 152.959533,0.625755556 153.03445,0.705505556 C153.197172,0.869838889 153.355867,1.0382 153.516978,1.20253333 C153.721589,1.41036667 153.927811,1.61658889 154.134839,1.82683889 C154.3612,2.05481111 154.588367,2.28197778 154.815533,2.50833889 L154.907367,2.58486667 Z" id="Fill-17" fill="#D23B44"></path>
                    <polygon id="Fill-19" fill="#231F20" points="151.63955 9.22361111 151.596856 9.26469444 151.5743 9.24697222 151.614578 9.20025"></polygon>
                    <polygon id="Fill-21" fill="#231F20" points="155.131553 6.13905833 155.091275 6.09394722 155.100136 6.08105833 155.132358 6.097975 155.144442 6.13019722"></polygon>
                    <polygon id="Fill-23" fill="#231F20" points="147.511078 4.70573333 147.494161 4.72345556 147.472411 4.70895556 147.487717 4.69284444"></polygon>
                    <path d="M8.55669167,15.3934417 C8.55669167,12.7028861 0.726691667,13.0661917 0.726691667,7.70924722 C0.726691667,4.89785833 3.19974722,2.69144167 6.71438611,2.69144167 C9.54994167,2.69144167 11.3205528,4.00046944 11.8771917,4.72788611 L9.57491389,7.466775 C9.16246944,6.95766389 8.19338611,5.89110833 6.39941389,5.89110833 C5.18705278,5.89110833 4.508775,6.57019167 4.508775,7.41924722 C4.508775,10.1573306 12.3138028,9.74569167 12.3138028,15.1509694 C12.3138028,17.6957194 10.2048583,20.168775 5.89030278,20.168775 C2.61813611,20.168775 0.582497222,18.7139417 8.05555556e-05,18.0598306 L2.109025,15.0059694 C2.83563611,15.7325806 4.31463611,17.0416083 6.37524722,17.0416083 C7.85344167,17.0416083 8.55669167,16.290025 8.55669167,15.3934417" id="Fill-25" fill="#FFFFFF"></path>
                    <path d="M17.9149917,16.8716361 L19.2731583,16.8716361 C22.7386583,16.8716361 23.7327139,14.666025 23.7327139,11.3938583 C23.7327139,7.29680278 21.9387417,5.98858056 19.2481861,5.98858056 L17.9149917,5.98858056 L17.9149917,16.8716361 Z M14.2311861,2.93391389 L19.514825,2.93391389 C25.0417417,2.93391389 27.5381583,5.62446944 27.5381583,11.0539139 C27.5381583,15.3934417 25.8174917,19.9263028 19.5639639,19.9263028 L14.2311861,19.9263028 L14.2311861,2.93391389 Z" id="Fill-27" fill="#FFFFFF"></path>
                    <path d="M42.1815472,4.65538611 L39.8059639,7.249275 C39.1760194,6.57019167 38.2786306,5.89110833 36.7029639,5.89110833 C34.4731861,5.89110833 32.5825472,7.12763611 32.5825472,11.1513861 C32.5825472,15.3451083 33.9399083,17.1624417 36.7754639,17.1624417 C37.2853806,17.1624417 38.0361583,17.065775 38.3752972,16.920775 L38.3752972,11.1755528 L42.084075,11.1755528 L42.084075,18.6664139 C40.8483528,19.5138583 39.1510472,20.168775 35.9997139,20.168775 C31.1768528,20.168775 28.7762972,17.2591083 28.7762972,11.5871917 C28.7762972,5.45530278 32.340075,2.69144167 36.8487694,2.69144167 C40.1934361,2.69144167 41.7207694,4.12210833 42.1815472,4.65538611" id="Fill-29" fill="#FFFFFF"></path>
                    <polygon id="Fill-31" fill="#FFFFFF" points="50.7901167 19.9263028 50.7901167 2.93391389 59.4433944 2.93391389 59.4433944 4.29208056 52.2924778 4.29208056 52.2924778 11.0305528 58.6193111 11.0305528 58.6193111 12.3879139 52.2924778 12.3879139 52.2924778 19.9263028"></polygon>
                    <path d="M71.4443194,14.3755417 L71.4443194,2.93423611 L72.8983472,2.93423611 L72.8983472,14.2297361 C72.8983472,18.0118194 70.7410694,20.1682917 66.9348194,20.1682917 C63.2510139,20.1682917 61.1420694,18.0843194 61.1420694,14.3755417 L61.1420694,2.93423611 L62.5969028,2.93423611 L62.5969028,14.2055694 C62.5969028,17.4052361 64.4142361,18.7875694 67.080625,18.7875694 C69.7228472,18.7875694 71.4443194,17.599375 71.4443194,14.3755417" id="Fill-33" fill="#FFFFFF"></path>
                    <polygon id="Fill-35" fill="#FFFFFF" points="79.1788611 4.29191944 74.5485278 4.29191944 74.5485278 2.93375278 85.23825 2.93375278 85.23825 4.29191944 80.6328889 4.29191944 80.6328889 19.9261417 79.1788611 19.9261417"></polygon>
                    <path d="M97.1906,14.3755417 L97.1906,2.93423611 L98.6446278,2.93423611 L98.6446278,14.2297361 C98.6446278,18.0118194 96.48735,20.1682917 92.6811,20.1682917 C88.9972944,20.1682917 86.88835,18.0843194 86.88835,14.3755417 L86.88835,2.93423611 L88.3431833,2.93423611 L88.3431833,14.2055694 C88.3431833,17.4052361 90.1605167,18.7875694 92.8269056,18.7875694 C95.4691278,18.7875694 97.1906,17.599375 97.1906,14.3755417" id="Fill-37" fill="#FFFFFF"></path>
                    <path d="M103.785281,11.3452833 L106.185031,11.3452833 C108.633919,11.3452833 110.354586,10.3995611 110.354586,7.83064444 C110.354586,5.23675556 108.827253,4.29183889 106.015864,4.29183889 L103.785281,4.29183889 L103.785281,11.3452833 Z M106.257531,2.93447778 C109.723836,2.93447778 111.857753,4.31600556 111.857753,7.66147778 C111.857753,10.3995611 110.014642,12.0727 107.954836,12.2668389 L107.954836,12.3635056 C108.584781,12.6301444 109.214725,13.1634222 109.967114,14.4482833 L113.238475,19.9260611 L111.493642,19.9260611 L108.342308,14.5207833 C107.615697,13.2842556 106.766642,12.6784778 105.410086,12.6784778 L103.785281,12.6784778 L103.785281,19.9260611 L102.331253,19.9260611 L102.331253,2.93447778 L106.257531,2.93447778 Z" id="Fill-39" fill="#FFFFFF"></path>
                    <polygon id="Fill-41" fill="#FFFFFF" points="115.641286 19.9263028 115.641286 2.93391389 124.367064 2.93391389 124.367064 4.29208056 117.095314 4.29208056 117.095314 10.6430806 123.518814 10.6430806 123.518814 11.9996361 117.095314 11.9996361 117.095314 18.5681361 124.730369 18.5681361 124.730369 19.9263028"></polygon>
                    <path d="M134.767753,15.6357528 C134.767753,11.4903639 126.598614,12.4844194 126.598614,7.127475 C126.598614,4.60689167 128.708364,2.69208611 131.664753,2.69208611 C133.312919,2.69208611 134.767753,3.12869722 135.834308,3.951975 L134.937725,5.14016944 C133.967836,4.41275278 132.902086,4.07280833 131.593058,4.07280833 C129.386642,4.07280833 128.077614,5.31014167 128.077614,7.054975 C128.077614,11.2970306 136.246753,10.3513083 136.246753,15.5632528 C136.246753,18.132975 134.234475,20.1686139 130.768169,20.1686139 C128.392586,20.1686139 126.696086,19.3928639 125.605364,18.4721139 L126.501947,17.3080861 C127.496003,18.0838361 128.829197,18.7870861 130.864836,18.7870861 C133.386225,18.7870861 134.767753,17.4047528 134.767753,15.6357528" id="Fill-43" fill="#FFFFFF"></path>
                </g>
                <g id="Group-48" transform="translate(196.555556, 8.325497)">
                    <mask id="mask-2" fill="white">
                        <use xlink:href="#path-1"></use>
                    </mask>
                    <g id="Clip-47"></g>
                    <polygon id="Fill-46" fill="#41C6F1" mask="url(#mask-2)" points="-2.77997222 20.9444444 21.3029167 20.9444444 21.3029167 -3.13763889 -2.77997222 -3.13763889"></polygon>
                </g>
                <g id="Group-51" transform="translate(170.777778, 8.325497)">
                    <mask id="mask-4" fill="white">
                        <use xlink:href="#path-3"></use>
                    </mask>
                    <g id="Clip-50"></g>
                    <polygon id="Fill-49" fill="#41C6F1" mask="url(#mask-4)" points="-2.98458333 20.9444444 9.68922222 20.9444444 9.68922222 -3.13763889 -2.98458333 -3.13763889"></polygon>
                </g>
                <g id="Group-54" transform="translate(178.027778, 8.325497)">
                    <mask id="mask-6" fill="white">
                        <use xlink:href="#path-5"></use>
                    </mask>
                    <g id="Clip-53"></g>
                    <polygon id="Fill-52" fill="#41C6F1" mask="url(#mask-6)" points="-2.63013889 20.9444444 21.4519444 20.9444444 21.4519444 -3.13763889 -2.63013889 -3.13763889"></polygon>
                </g>
                <g id="Group-57" transform="translate(170.777778, 0.269942)">
                    <mask id="mask-8" fill="white">
                        <use xlink:href="#path-7"></use>
                    </mask>
                    <g id="Clip-56"></g>
                    <polygon id="Fill-55" fill="#41C6F1" mask="url(#mask-8)" points="-2.98458333 9.98808333 9.68922222 9.98808333 9.68922222 -2.68652778 -2.98458333 -2.68652778"></polygon>
                </g>
            </g>
        </g>
    </g>
</svg>