<?xml version="1.0" encoding="UTF-8"?>
<svg width="210px" height="27px" viewBox="0 0 210 27" version="1.1" xmlns="http://www.w3.org/2000/svg" xmlns:xlink="http://www.w3.org/1999/xlink">
    <!-- Generator: Sketch 51.3 (57544) - http://www.bohemiancoding.com/sketch -->
    <title>Group 58</title>
    <desc>Created with Sketch.</desc>
    <defs>
        <polygon id="path-1" points="0.695747368 0.601815789 9.47556104 0.601815789 9.47556104 7.00543421 0.695747368 7.00543421"></polygon>
        <polygon id="path-3" points="0.414521053 0.0198947368 13.7174211 0.0198947368 13.7174211 21.8678684 0.414521053 21.8678684"></polygon>
    </defs>
    <g id="SDG-Futures-Flow" stroke="none" stroke-width="1" fill="none" fill-rule="evenodd">
        <g id="Projects-Public-" transform="translate(-27.000000, -27.000000)">
            <g id="Group-8" transform="translate(27.000000, 0.000000)">
                <g id="Group-58" transform="translate(0.000000, 27.000000)">
                    <g id="Group-51">
                        <path d="M14.9503974,7.57811842 L14.9667395,7.56746053 L14.9518184,7.52696053 L14.9113184,7.50493421 L14.9006605,7.52127632 L14.9503974,7.57811842 Z M10.5856342,11.4334342 L10.5536605,11.4035921 L10.5039237,11.4632763 L10.5316342,11.4845921 L10.5856342,11.4334342 Z M8.53150263,11.5904605 L8.61605526,11.6956184 C8.79226579,11.8725395 8.97487105,12.04875 9.15321316,12.2270921 C9.45305526,12.5319079 9.75360789,12.8353026 10.0513184,13.1401184 C10.1287658,13.2168553 10.2055026,13.2950132 10.2801079,13.3760132 L10.2687395,13.5103026 C10.17495,13.5969868 10.0861342,13.6829605 9.99873947,13.7731974 C9.81400263,13.9572237 9.63139737,14.1426711 9.44879211,14.3259868 C9.16884474,14.5995395 8.88889737,14.8716711 8.61108158,15.1466447 L8.54287105,15.2518026 C8.60681842,15.2546447 8.64589737,15.2574868 8.68497632,15.2574868 C8.91589737,15.2610395 9.14823947,15.2624605 9.38058158,15.2638816 C9.51273947,15.2674342 9.64773947,15.2674342 9.78060789,15.2674342 C10.1706868,15.2667237 10.5614763,15.2610395 10.9522658,15.2610395 C11.1071605,15.2624605 11.1220816,15.2873289 11.1220816,15.4450658 C11.1206605,16.0191711 11.1192395,16.5911447 11.1192395,17.16525 C11.1192395,17.3478553 11.1206605,17.5325921 11.1220816,17.7151974 C11.1220816,17.7471711 11.1291868,17.7805658 11.1412658,17.8409605 C11.7565816,17.2434079 12.3321079,16.6430132 12.9381868,16.0625132 L13.0589763,16.1641184 C13.2181342,16.3360658 13.3701868,16.5151184 13.5385816,16.6799605 C13.6778447,16.8206447 13.8405553,16.9385921 13.9812395,17.0757237 C14.2128711,17.2974079 14.4395289,17.5290395 14.6647658,17.7535658 L14.7777395,17.8501974 L14.7940816,17.7329605 C14.7940816,17.3514079 14.7955026,16.9684342 14.7940816,16.5883026 C14.7940816,16.1968026 14.7926605,15.8060132 14.7926605,15.4166447 C14.7926605,15.2951447 14.8132658,15.2759605 14.9354763,15.2830658 L15.0058184,15.3008289 L15.0598184,15.3050921 L15.2140026,15.28875 C15.5003447,15.28875 15.7845553,15.2923026 16.0680553,15.2923026 C16.2471079,15.2923026 16.4240289,15.2873289 16.6045026,15.2873289 C16.8240553,15.2873289 17.0407658,15.2923026 17.2603184,15.2923026 L17.3470026,15.2667237 L17.2837658,15.1914079 C17.1693711,15.0734605 17.0507132,14.9555132 16.9320553,14.8396974 C16.5718184,14.4780395 16.20945,14.1213553 15.8527658,13.7618289 C15.7675026,13.6808289 15.6850816,13.5969868 15.6040816,13.5103026 C15.5529237,13.4499079 15.5607395,13.4158026 15.6161605,13.3625132 L15.6985816,13.2893289 C15.9088974,13.0797237 16.1156605,12.8701184 16.3281079,12.6598026 L16.4588447,12.53475 C16.5476605,12.4430921 16.6315026,12.3521447 16.7174763,12.2611974 L16.7743184,12.2945921 L16.8254763,12.1652763 C16.8943974,12.0814342 16.9768184,12.0061184 17.0507132,11.92725 C17.1359763,11.8320395 17.22195,11.7354079 17.3171605,11.6330921 L17.1835816,11.61675 C16.7593974,11.6124868 16.3330816,11.6124868 15.9046342,11.6096447 C15.5721079,11.6096447 15.23745,11.6124868 14.9070553,11.6096447 C14.7912395,11.6096447 14.7805816,11.5954342 14.7777395,11.48175 C14.7777395,11.1620132 14.7805816,10.8401447 14.7777395,10.5189868 C14.7756079,10.0585658 14.7727658,9.60027632 14.7699237,9.13914474 C14.7699237,9.11214474 14.7613974,9.08230263 14.75145,9.02190789 C14.1418184,9.63722368 13.5556342,10.2298026 12.9630553,10.8309079 L12.8586079,10.7449342 C12.72645,10.6149079 12.5942921,10.4855921 12.4635553,10.3520132 C12.1615816,10.0500395 11.8603184,9.74522368 11.5576342,9.44467105 C11.4496342,9.33596053 11.3402132,9.22653947 11.2286605,9.11640789 C11.2016605,9.08798684 11.1760816,9.05032895 11.1114237,9.09153947 C11.1114237,9.34235526 11.1085816,9.60027632 11.1085816,9.86103947 C11.1100026,10.3854079 11.1114237,10.9083553 11.1156868,11.4320132 C11.1163974,11.5535132 11.1050289,11.5869079 10.9735816,11.5869079 C10.67445,11.5840658 10.3717658,11.5869079 10.0705026,11.5840658 C9.59800263,11.5840658 9.11981842,11.5798026 8.64376579,11.5790921 L8.53150263,11.5904605 Z M20.5791868,10.3008553 L20.4761605,10.4202237 C20.1670816,10.7307237 19.8501868,11.0383816 19.5389763,11.3488816 C19.2114237,11.6757237 18.88245,12.0004342 18.5548974,12.3308289 C18.2124237,12.6718816 17.8742132,13.0186184 17.5360026,13.3639342 C17.4535816,13.4470658 17.4535816,13.4591447 17.5360026,13.5408553 C17.8209237,13.8271974 18.1101079,14.1128289 18.39645,14.39775 C18.4930816,14.4943816 18.5833184,14.5903026 18.6792395,14.6819605 C19.0750026,15.0684868 19.4714763,15.4535921 19.8672395,15.84225 C20.0882132,16.0610921 20.3113184,16.2820658 20.5315816,16.5073026 L20.6203974,16.6153026 C20.5457921,16.6216974 20.5010289,16.6309342 20.4534237,16.6309342 C19.8196342,16.6309342 19.1858447,16.6280921 18.5520553,16.6266711 C17.8450816,16.6238289 17.1359763,16.6231184 16.4297132,16.6231184 L16.2591868,16.6295132 C16.1625553,16.6380395 16.1490553,16.6536711 16.1490553,16.7524342 C16.1490553,17.0636447 16.1490553,17.3713026 16.1511868,17.6803816 C16.1568711,18.5003289 16.1625553,19.3231184 16.16895,20.1437763 C16.1703711,20.4230132 16.1774763,20.7065132 16.1788974,20.9864605 C16.1788974,21.0326447 16.1732132,21.0795395 16.16895,21.1441974 L16.0836868,21.0887763 C15.9550816,20.9672763 15.8236342,20.8408026 15.6971605,20.7164605 C15.4051342,20.4258553 15.1145289,20.1359605 14.8260553,19.8467763 C14.5475289,19.5668289 14.2718447,19.2826184 13.9918974,19.0040921 C13.7425026,18.7539868 13.4923974,18.5045921 13.2401605,18.2544868 C13.14495,18.1621184 13.0497395,18.0683289 12.9445816,17.9667237 C12.8628711,18.0448816 12.7854237,18.1095395 12.7143711,18.1813026 C12.3470289,18.5486447 11.9782658,18.9159868 11.6151868,19.2890132 C11.1000553,19.8148026 10.5870553,20.3420132 10.0747658,20.8706447 C9.99802895,20.9473816 9.92413421,21.0283816 9.84597632,21.1058289 L9.76213421,21.1662237 C9.75645,21.09375 9.75005526,21.0440132 9.75005526,20.9949868 C9.75218684,20.3491184 9.75360789,19.7011184 9.75360789,19.0538289 C9.75645,18.3795395 9.75360789,17.7038289 9.75360789,17.0274079 C9.75360789,16.9250921 9.75645,16.8249079 9.75360789,16.7233026 C9.75360789,16.6394605 9.73797632,16.6266711 9.65129211,16.6266711 C9.04521316,16.6238289 8.43913421,16.6266711 7.83518684,16.6238289 C7.34918684,16.6238289 6.86816053,16.6202763 6.38500263,16.6181447 C6.06313421,16.6181447 5.74339737,16.6238289 5.42010789,16.6238289 C5.36184474,16.6238289 5.29931842,16.6337763 5.23750263,16.5783553 C5.37108158,16.4113816 5.53592368,16.2806447 5.68158158,16.1285921 C5.83008158,15.9715658 5.98497632,15.8223553 6.13916053,15.6710132 C6.28979211,15.5218026 6.44113421,15.3761447 6.59176579,15.2290658 C6.74452895,15.0812763 6.90013421,14.9384605 7.05289737,14.7906711 C7.20352895,14.6428816 7.34918684,14.4915395 7.50123947,14.3423289 C7.65258158,14.1895658 7.80818684,14.0389342 7.96095,13.8875921 C8.11087105,13.7383816 8.25795,13.5870395 8.41071316,13.4314342 C8.29631842,13.2736974 8.14852895,13.1585921 8.01921316,13.0257237 C7.89060789,12.8878816 7.75916053,12.7571447 7.62700263,12.6235658 C7.49484474,12.4914079 7.36126579,12.3620921 7.22768684,12.2299342 C7.09766053,12.0963553 6.96763421,11.9592237 6.83689737,11.8277763 C6.70473947,11.6956184 6.56618684,11.5684342 6.43473947,11.4348553 C6.30045,11.3041184 6.17397632,11.1691184 6.04181842,11.0383816 C5.91179211,10.9048026 5.77181842,10.7754868 5.64321316,10.6411974 C5.52242368,10.5061974 5.36895,10.3967763 5.26166053,10.21275 C5.32702895,10.2091974 5.37108158,10.1985395 5.41371316,10.1985395 C5.69366053,10.2056447 5.97147632,10.2141711 6.25213421,10.2212763 C6.41058158,10.2234079 6.56973947,10.2234079 6.72605526,10.2234079 L7.53250263,10.2234079 C7.84939737,10.2234079 8.16558158,10.2234079 8.48247632,10.2269605 C8.63808158,10.2298026 8.79652895,10.2425921 8.95426579,10.2468553 C9.08002895,10.2468553 9.20508158,10.2319342 9.33084474,10.2312237 C9.42889737,10.2298026 9.53263421,10.2312237 9.63423947,10.2319342 C9.73158158,10.2319342 9.76995,10.1999605 9.76995,10.1054605 C9.76497632,9.51075 9.75645,8.91035526 9.75645,8.31422368 C9.75645,7.67048684 9.75929211,7.02817105 9.75929211,6.38443421 C9.76213421,6.23025 9.75645,6.07464474 9.75645,5.92117105 L9.76639737,5.78688158 C9.83958158,5.79185526 9.86871316,5.84088158 9.90495,5.87427632 C10.2133184,6.18690789 10.5238184,6.50096053 10.8300553,6.80932895 C10.9920553,6.97701316 11.1526342,7.14540789 11.3174763,7.30811842 C11.6052395,7.59943421 11.8986868,7.88861842 12.1892921,8.17922368 C12.4152395,8.40588158 12.6411868,8.63538158 12.8678447,8.86417105 L12.9339237,8.92314474 C13.0589763,8.84925 13.14495,8.74267105 13.2430026,8.64532895 C13.4717921,8.42080263 13.6963184,8.19272368 13.9236868,7.96748684 C14.2171342,7.67190789 14.5098711,7.37846053 14.8033184,7.08714474 C14.9553711,6.93793421 15.1067132,6.79227632 15.2566342,6.64235526 C15.4420816,6.45619737 15.62895,6.27003947 15.8158184,6.08388158 C15.8975289,6.00359211 15.9792395,5.93111842 16.0836868,5.83164474 C16.10145,5.91406579 16.1199237,5.96806579 16.1199237,6.01993421 C16.1156605,6.51019737 16.1106868,6.99619737 16.1078447,7.48503947 C16.1071342,7.74509211 16.1042921,8.00301316 16.1042921,8.26377632 C16.10145,8.43501316 16.1078447,8.60553947 16.1106868,8.77535526 C16.1106868,9.05388158 16.1135289,9.33596053 16.11495,9.61448684 C16.1156605,9.79851316 16.1156605,9.98182895 16.1206342,10.1658553 C16.1206342,10.2496974 16.14195,10.2695921 16.2314763,10.2738553 C16.3572395,10.2738553 16.4844237,10.2695921 16.6101868,10.2695921 C17.1182132,10.2724342 17.6262395,10.2738553 18.1356868,10.2738553 C18.5271868,10.2759868 18.9215289,10.2823816 19.3172921,10.2823816 C19.6860553,10.2823816 20.0576605,10.2795395 20.4271342,10.2795395 C20.4690553,10.2795395 20.5109763,10.2930395 20.5791868,10.3008553 Z" id="Fill-1" fill="#202020"></path>
                        <path d="M8.43906316,24.3149921 L8.29127368,24.3327553 C7.8813,24.3355974 7.46848421,24.3370184 7.06064211,24.3384395 C6.93843158,24.3384395 6.93345789,24.3292026 6.93487895,24.2062816 C6.93701053,23.3799395 6.93843158,22.5535974 6.94269474,21.7286763 C6.94553684,21.1055447 6.95122105,20.4852553 6.95619474,19.8607026 C6.95619474,19.7924921 6.95477368,19.7242816 6.95477368,19.65465 C6.95122105,19.5779132 6.93701053,19.5651237 6.86027368,19.5594395 L6.71390526,19.5594395 C6.46593158,19.5594395 6.21866842,19.5608605 5.96927368,19.5622816 L5.90745789,19.5658342 C5.84777368,19.5686763 5.82148421,19.5999395 5.82077368,19.6589132 C5.81722105,19.8067026 5.81153684,19.95165 5.81153684,20.0980184 C5.80798421,20.5072816 5.81011579,20.9115711 5.80798421,21.3158605 C5.80656316,21.8466237 5.80158947,22.3766763 5.79874737,22.9038868 L5.79732632,23.0253868 C5.79235263,23.0879132 5.75895789,23.1220184 5.69572105,23.1291237 L5.66090526,23.1305447 C5.43282632,23.1291237 5.20545789,23.12415 4.97737895,23.1277026 C4.79548421,23.1277026 4.61287895,23.1383605 4.42885263,23.1447553 L4.38195789,23.1461763 C4.27751053,23.1447553 4.2633,23.1291237 4.2633,23.0225447 C4.2633,22.8157816 4.26685263,22.6075974 4.26685263,22.4008342 C4.26969474,22.1393605 4.26685263,21.8793079 4.26969474,21.6178342 C4.27395789,21.2533342 4.28177368,20.8895447 4.28674737,20.5222026 C4.29172105,20.2429658 4.29172105,19.9608868 4.29172105,19.6809395 C4.29172105,19.5772026 4.28390526,19.5672553 4.17945789,19.5672553 C3.87322105,19.5658342 3.56343158,19.5686763 3.25222105,19.5686763 C3.14848421,19.5686763 3.04332632,19.5793342 2.93745789,19.5672553 C2.84651053,19.5565974 2.75201053,19.53315 2.66958947,19.4919395 C2.44577368,19.3761237 2.25890526,19.2183868 2.14806316,18.9824921 C2.09335263,18.8652553 2.05995789,18.75015 2.06564211,18.6194132 C2.07416842,18.4353868 2.06564211,18.2534921 2.06564211,18.0680447 C2.06564211,17.9422816 2.10614211,17.9181237 2.21556316,17.9195447 C2.55590526,17.9216763 2.90051053,17.9181237 3.23943158,17.9167026 C3.69132632,17.91315 4.14464211,17.9117289 4.59582632,17.9103079 C5.03777368,17.9103079 5.47972105,17.9167026 5.92308947,17.9167026 C6.42543158,17.91315 6.92564211,17.9067553 7.42372105,17.9067553 C7.66032632,17.9053342 7.89408947,17.9117289 8.13211579,17.91315 C8.20885263,17.9167026 8.2863,17.91315 8.36374737,17.9167026 C8.45256316,17.9195447 8.46890526,17.9387289 8.46890526,18.0268342 C8.46464211,18.3032289 8.4618,18.5796237 8.4618,18.85815 C8.46108947,19.2233605 8.4618,19.58715 8.4618,19.9530711 C8.46108947,20.3573605 8.46108947,20.7602289 8.46108947,21.1623868 C8.45824737,21.8380974 8.45824737,22.5123868 8.45824737,23.1880974 L8.45824737,24.2005974 L8.43906316,24.3149921 Z" id="Fill-3" fill="#CE3481"></path>
                        <path d="M16.4022868,25.3520053 C16.2431289,25.1964 16.0974711,25.0542947 15.9546553,24.9107684 C15.2803658,24.2329263 14.6067868,23.5557947 13.9310763,22.8758211 C13.6916289,22.6342421 13.4543132,22.3905316 13.2120237,22.1475316 L13.1445237,22.0779 C13.0812868,22.0253211 13.0436289,22.0224789 12.9860763,22.0814526 C12.8432605,22.2192947 12.7018658,22.3621105 12.5633132,22.5035053 C12.4837342,22.5880579 12.4013132,22.6754526 12.3231553,22.7649789 C12.2677342,22.8282158 12.2677342,22.8452684 12.32955,22.9070842 C12.5618921,23.1358737 12.7921026,23.3646632 13.0201816,23.5927421 C13.4187868,23.9941895 13.81455,24.3977684 14.2131553,24.7992158 C14.3602342,24.9448737 14.5080237,25.0898211 14.6522605,25.2397421 C14.7318395,25.3214526 14.7318395,25.3370842 14.6551026,25.4202158 C14.5598921,25.5218211 14.4611289,25.6191632 14.3659184,25.7200579 C14.1811816,25.9182947 13.9957342,26.1193737 13.8117079,26.3197421 C13.7157868,26.4234789 13.6845237,26.4234789 13.58505,26.3247158 C13.2397342,25.9758474 12.8922868,25.6255579 12.5469711,25.2738474 C12.2449974,24.9640579 11.9430237,24.6492947 11.6424711,24.3352421 C11.5266553,24.2144526 11.4108395,24.0950842 11.2921816,23.9785579 C11.2218395,23.9082158 11.1919974,23.9053737 11.1202342,23.9792684 C10.8736816,24.2272421 10.62855,24.4759263 10.3848395,24.7267421 L10.2711553,24.8382947 C10.0992079,25.0137947 9.87255,25.0834263 9.64162895,25.0862684 C9.48176053,25.0876895 9.31265526,25.0457684 9.15989211,24.9690316 C9.01068158,24.8986895 8.90765526,24.7828737 8.80391842,24.6642158 C8.73073421,24.5810842 8.65257632,24.5043474 8.57655,24.4254789 C8.49341842,24.3423474 8.49341842,24.3174789 8.57370789,24.2343474 C8.78331316,24.0197684 8.99220789,23.8030579 9.20536579,23.5891895 C9.47749737,23.3113737 9.75247105,23.0314263 10.0260237,22.7543211 C10.4189447,22.3585579 10.8104447,21.9627947 11.2040763,21.5691632 C11.4591553,21.3112421 11.7128132,21.0533211 11.9657605,20.7954 C12.2073395,20.5488474 12.4474974,20.3015842 12.6926289,20.0557421 C12.7544447,19.9939263 12.8212342,19.9349526 12.8880237,19.8738474 C12.9654711,19.8020842 12.9946026,19.8013737 13.0713395,19.8802421 C13.1708132,19.9811368 13.2646026,20.0855842 13.3676289,20.1864789 C13.5630237,20.3818737 13.76055,20.5744263 13.9573658,20.7705316 C14.4312868,21.2444526 14.9016553,21.7197947 15.3769974,22.1965579 C15.7365237,22.5603474 16.1017342,22.9212947 16.4626816,23.2829526 C16.7646553,23.5849263 17.0666289,23.8897421 17.3686026,24.1902947 C17.4481816,24.2734263 17.4524447,24.2947421 17.3657605,24.3785842 C17.1973658,24.5498211 17.0239974,24.7182158 16.8541816,24.8894526 C16.7476026,24.9974526 16.6438658,25.1132684 16.5358658,25.2248211 L16.4022868,25.3520053 Z" id="Fill-5" fill="#962B45"></path>
                        <path d="M4.38025263,13.4943868 C4.10812105,13.2222553 3.84664737,12.9607816 3.57309474,12.6858079 L3.44093684,12.7980711 C3.20646316,13.0282816 2.96914737,13.2577816 2.73467368,13.4879921 C2.38509474,13.8276237 2.04048947,14.1615711 1.69517368,14.5004921 C1.51043684,14.6802553 1.32854211,14.8600184 1.14806842,15.0419132 C1.04148947,15.1470711 1.03509474,15.1499132 0.921410526,15.0447553 C0.781436842,14.9154395 0.647857895,14.7804395 0.511436842,14.6433079 C0.361515789,14.4940974 0.210884211,14.3448868 0.0623842105,14.1956763 C-0.0200368421,14.1146763 -0.0221684211,14.0933605 0.0645157895,14.0095184 C0.264173684,13.8141237 0.466673684,13.6215711 0.668463158,13.4254658 C1.11538421,12.9906237 1.56301579,12.5579132 2.00993684,12.1252026 C2.14493684,11.9916237 2.28348947,11.8580447 2.41848947,11.7230447 L2.50659474,11.6299658 C2.40285789,11.5248079 2.30835789,11.4253342 2.20888421,11.3294132 C2.01633158,11.1368605 1.82448947,10.9443079 1.62767368,10.7567289 C1.54241053,10.6728868 1.48485789,10.5805184 1.43796316,10.47465 C1.29017368,10.1421237 1.33280526,9.82238684 1.52038421,9.52183421 C1.59783158,9.39962368 1.71648947,9.30583421 1.81951579,9.20209737 C1.90691053,9.11328158 2.0007,9.02943947 2.11296316,8.92286053 C2.16554211,8.98822895 2.20462105,9.04222895 2.25435789,9.09338684 C2.3787,9.22270263 2.49735789,9.35628158 2.63448947,9.47280789 C2.97341053,9.76057105 3.2697,10.0881237 3.58091053,10.4007553 C3.99585789,10.8157026 4.41648947,11.2242553 4.82859474,11.6377816 C5.06804211,11.8772289 5.29825263,12.1252026 5.53556842,12.3639395 C5.67980526,12.51315 5.82972632,12.6545447 5.97609474,12.8016237 C6.12601579,12.9494132 6.27025263,13.1035974 6.42088421,13.2542289 L6.49904211,13.3288342 C6.5772,13.4055711 6.57862105,13.43115 6.50472632,13.5093079 C6.39601579,13.6173079 6.29298947,13.7245974 6.18427895,13.8297553 C5.77146316,14.2333342 5.35651579,14.6340711 4.9437,15.0419132 C4.59341053,15.3843868 4.24951579,15.7325447 3.89851579,16.0785711 C3.42175263,16.5460974 2.94214737,17.0100711 2.46609474,17.4747553 C2.35383158,17.5870184 2.24654211,17.7021237 2.13427895,17.8165184 C2.06180526,17.8875711 2.03480526,17.88615 1.96091053,17.8165184 C1.82875263,17.6850711 1.69517368,17.5571763 1.56301579,17.4207553 C1.39462105,17.2502289 1.22977895,17.07615 1.06564737,16.9042026 C1.00241053,16.8345711 1.00098947,16.8146763 1.07630526,16.7422026 C1.28022632,16.5368605 1.48485789,16.3364921 1.69233158,16.1332816 C1.90691053,15.9236763 2.12006842,15.7133605 2.33677895,15.5030447 C2.55491053,15.2898868 2.77304211,15.0774395 2.99188421,14.8642816 C3.15885789,14.7022816 3.32441053,14.5417026 3.48925263,14.3797026 C3.75783158,14.1132553 4.02996316,13.8475184 4.29783158,13.5846237 L4.38025263,13.4943868 Z" id="Fill-7" fill="#5BBCE2"></path>
                        <path d="M19.0671158,19.4315447 C19.0671158,19.5502026 19.0671158,19.6589132 19.0692474,19.7683342 C19.0720895,19.9878868 19.0735105,20.2088605 19.0799053,20.4277026 C19.0848789,20.5570184 19.1005105,20.5662553 19.2248526,20.5662553 C19.6845632,20.5662553 20.1428526,20.5676763 20.6011421,20.5676763 C21.0359842,20.5662553 21.4722474,20.5619921 21.9049579,20.5619921 C22.0634053,20.5619921 22.2239842,20.5619921 22.3788789,20.5662553 L22.4883,20.5776237 L22.5579316,20.6678605 C22.5579316,20.9478079 22.5593526,21.2270447 22.5607737,21.5077026 C22.5621947,21.6427026 22.5707211,21.7769921 22.5735632,21.9112816 C22.5742737,22.0370447 22.5707211,22.0477026 22.4463789,22.0498342 C22.2389053,22.0533868 22.0335632,22.0498342 21.8268,22.0498342 C21.2150368,22.0477026 20.6039842,22.0434395 19.9943526,22.0434395 C19.7335895,22.0434395 19.4756684,22.0498342 19.2163263,22.0548079 C19.1054842,22.05765 19.0926947,22.0761237 19.0926947,22.1869658 C19.0955368,22.3105974 19.0955368,22.4377816 19.0955368,22.5628342 C19.0990895,22.82715 19.1047737,23.0914658 19.1033526,23.3579132 C19.1005105,23.4985974 19.0607211,23.6250711 18.9875368,23.7472816 C18.8433,23.9917026 18.6258789,24.1416237 18.3743526,24.2425184 L18.2649316,24.2652553 C18.0418263,24.2680974 17.8201421,24.2680974 17.5963263,24.2680974 C17.5110632,24.2680974 17.4854842,24.2467816 17.4805105,24.1622289 C17.4734053,24.0940184 17.4734053,24.0229658 17.4734053,23.9540447 C17.4734053,23.1724658 17.4712737,22.3915974 17.4655895,21.6114395 C17.4648789,21.2213605 17.4542211,20.8305711 17.4520895,20.4397816 C17.4478263,19.8699395 17.4464053,19.3015184 17.4414316,18.7302553 C17.4414316,18.5043079 17.4364579,18.27765 17.4343263,18.0474395 C17.4300632,17.9259395 17.4442737,17.9067553 17.5728789,17.9067553 C17.7796421,17.9067553 17.9871158,17.9095974 18.1945895,17.9095974 L19.4998263,17.9095974 C19.9879579,17.9095974 20.4768,17.9067553 20.9649316,17.9067553 C21.5752737,17.9067553 22.1849053,17.9095974 22.7931158,17.9124395 C23.0382474,17.9167026 23.2812474,17.9195447 23.5263789,17.9230974 L23.6123526,17.9259395 C23.6755895,17.9294921 23.7025895,17.9650184 23.7054316,18.0282553 C23.7068526,18.2122816 23.7118263,18.3948868 23.7139579,18.5782026 C23.7175105,18.7842553 23.7189316,18.9910184 23.7203526,19.1984921 L23.7217737,19.3342026 L23.6500105,19.4109395 C23.5718526,19.4137816 23.4929842,19.4194658 23.4169579,19.4180447 C23.1782211,19.4173342 22.9451684,19.4109395 22.7078526,19.4109395 C22.3305632,19.4095184 21.9539842,19.4109395 21.5752737,19.4109395 C21.1148526,19.4109395 20.6572737,19.4073868 20.1975632,19.4073868 C19.8764053,19.4073868 19.5538263,19.4073868 19.2326684,19.4109395 C19.1829316,19.4123605 19.1310632,19.4223079 19.0671158,19.4315447" id="Fill-9" fill="#F2C444"></path>
                        <path d="M5.42486842,5.78581579 L5.39502632,5.77089474 L5.37655263,5.78936842 L5.40284211,5.80855263 L5.42486842,5.78581579 Z M8.47160526,7.74402632 L8.47160526,8.70394737 L8.48013158,8.85244737 L8.40268421,8.94126316 L8.30534211,8.94623684 C8.09857895,8.94126316 7.89039474,8.93344737 7.68647368,8.93202632 C7.26868421,8.93060526 6.858,8.93486842 6.44092105,8.93202632 C5.95065789,8.92776316 5.45968421,8.91710526 4.96871053,8.91142105 C4.67810526,8.90644737 4.39176316,8.90786842 4.104,8.90502632 C3.73168421,8.90360526 3.35510526,8.89721053 2.98207895,8.89507895 C2.75471053,8.89152632 2.52805263,8.89507895 2.30068421,8.89294737 L2.26160526,8.89294737 C2.13939474,8.88726316 2.12234211,8.86878947 2.12234211,8.748 C2.12518421,8.36715789 2.12660526,7.98702632 2.12802632,7.60689474 L2.13157895,7.46905263 L2.20476316,7.39373684 C2.29073684,7.39302632 2.37813158,7.38947368 2.46339474,7.39373684 C2.60052632,7.40013158 2.73978947,7.43565789 2.87478947,7.41860526 C3.20731579,7.38165789 3.54055263,7.41931579 3.8745,7.41363158 C4.09263158,7.41007895 4.31147368,7.41931579 4.53102632,7.42215789 C4.91968421,7.42926316 5.31047368,7.43139474 5.70126316,7.43707895 C5.84265789,7.4385 5.98547368,7.45057895 6.12615789,7.452 C6.34002632,7.45342105 6.55034211,7.45057895 6.76065789,7.44418421 C6.83455263,7.44418421 6.85231579,7.42215789 6.85515789,7.33263158 C6.85871053,7.19052632 6.85373684,7.04842105 6.85373684,6.90702632 C6.85373684,6.75923684 6.85515789,6.61215789 6.85515789,6.46507895 C6.85515789,6.34215789 6.83810526,6.32510526 6.71731579,6.32226316 C6.22278947,6.31657895 5.724,6.31089474 5.22805263,6.3045 C4.66034211,6.29526316 4.0905,6.28815789 3.52207895,6.27892105 L3.45031579,6.27607895 C3.36292105,6.26613158 3.34231579,6.24907895 3.34231579,6.16168421 C3.34231579,5.90163158 3.35155263,5.63873684 3.35155263,5.38081579 C3.35155263,5.24794737 3.34515789,5.11294737 3.34515789,4.97723684 L3.34231579,4.91755263 C3.34515789,4.80173684 3.36434211,4.78397368 3.47944737,4.78539474 C3.78142105,4.79463158 4.08623684,4.80457895 4.39176316,4.80955263 C4.56868421,4.81239474 4.74489474,4.80173684 4.92323684,4.81097368 C5.50871053,4.84507895 6.09418421,4.80457895 6.67610526,4.83868421 L6.7365,4.84081579 C6.82105263,4.83868421 6.84663158,4.81807895 6.84947368,4.73352632 C6.85515789,4.59568421 6.85515789,4.45642105 6.85515789,4.31928947 C6.85515789,4.07415789 6.85373684,3.83115789 6.85871053,3.58744737 C6.86297368,3.30821053 6.99513158,3.09007895 7.19621053,2.91315789 C7.32410526,2.80089474 7.47544737,2.73552632 7.63744737,2.69431579 L7.69784211,2.68792105 C7.91739474,2.68792105 8.13410526,2.69218421 8.35578947,2.69857895 C8.46734211,2.70284211 8.47160526,2.71065789 8.47160526,2.83073684 C8.47302632,3.35084211 8.47373684,3.87307895 8.47373684,4.39531579 C8.47373684,4.98647368 8.47302632,5.58047368 8.47160526,6.17376316 C8.47160526,6.57165789 8.47302632,6.96955263 8.47302632,7.36744737 L8.47302632,7.74402632 L8.47160526,7.74402632 Z" id="Fill-11" fill="#31699B"></path>
                        <path d="M24.6674132,11.7329921 L24.7675974,11.8232289 C25.0269395,12.08115 25.2855711,12.3419132 25.5463342,12.5998342 C25.7005184,12.7554395 25.7005184,12.7518868 25.5463342,12.9032289 C25.3402816,13.1092816 25.1349395,13.3167553 24.9281763,13.5277816 C24.5984921,13.8667026 24.2659658,14.2091763 23.9327289,14.5466763 C23.7479921,14.7392289 23.5575711,14.9303605 23.3692816,15.1229132 C23.3003605,15.1932553 23.2925447,15.2067553 23.3621763,15.2863342 C23.4609395,15.3971763 23.5739132,15.4987816 23.67765,15.6067816 C23.8630974,15.7915184 24.0513868,15.9776763 24.2304395,16.1709395 C24.3178342,16.2647289 24.3640184,16.3833868 24.3895974,16.5098605 L24.4158868,16.6022289 C24.4499921,16.6896237 24.4450184,16.7755974 24.4300974,16.8658342 C24.3995447,17.0441763 24.3434132,17.21115 24.2361237,17.3589395 L24.1970447,17.4079658 C24.0499658,17.5202289 23.9369921,17.6722816 23.8140711,17.8129658 C23.7423079,17.8932553 23.7145974,17.8946763 23.6435447,17.8229132 C23.4367816,17.6211237 23.2335711,17.4172026 23.02965,17.21115 C22.8612553,17.0455974 22.6971237,16.8772026 22.5294395,16.71165 C22.2168079,16.40115 21.9055974,16.0934921 21.5915447,15.7837026 C21.3734132,15.5669921 21.1517289,15.3524132 20.9321763,15.1328605 C20.70765,14.9062026 20.4817026,14.6781237 20.2529132,14.4507553 C20.0887816,14.2859132 19.9253605,14.1253342 19.7605184,13.9626237 C19.6269395,13.8304658 19.4933605,13.6983079 19.3626237,13.5689921 C19.2659921,13.4766237 19.2659921,13.44465 19.3626237,13.3480184 C19.7903605,12.9167289 20.2244921,12.4882816 20.6550711,12.05415 C21.0344921,11.6747289 21.4082289,11.2924658 21.7883605,10.9094921 C22.0860711,10.60965 22.3830711,10.3112289 22.6843342,10.0128079 C22.9742289,9.72575526 23.2605711,9.43870263 23.5511763,9.15591316 C23.6421237,9.06709737 23.6463868,9.07065 23.7359132,9.16230789 C24.0080447,9.43728158 24.2808868,9.70941316 24.5544395,9.98580789 L24.6134132,10.0454921 L24.60915,10.1542026 L24.5125184,10.2487026 C24.0584921,10.7055711 23.6087289,11.1624395 23.1554132,11.6157553 C22.7724395,12.00015 22.3830711,12.3817026 21.9972553,12.7682289 C21.8295711,12.9337816 21.6640184,13.1028868 21.4984658,13.2712816 C21.4338079,13.3352289 21.4338079,13.3615184 21.4956237,13.4219132 C21.7094921,13.6350711 21.9233605,13.8482289 22.1336763,14.0592553 C22.2317289,14.1537553 22.2367026,14.1565974 22.3297816,14.0620974 C22.6104395,13.7793079 22.8918079,13.4972289 23.1731763,13.2144395 C23.52915,12.8549132 23.8886763,12.4960974 24.2496237,12.1358605 C24.3604658,12.0257289 24.4705974,11.9106237 24.5835711,11.7997816 L24.6674132,11.7329921 Z" id="Fill-13" fill="#50A44C"></path>
                        <path d="M19.9701947,3.98697632 L20.0718,3.97205526 C20.4839053,3.97347632 20.8938789,3.97773947 21.3059842,3.98058158 L21.3294316,3.98058158 C21.4218,3.98697632 21.4438263,4.00900263 21.4438263,4.10279211 C21.4438263,4.27687105 21.4424053,4.45166053 21.4424053,4.62858158 C21.4438263,5.36326579 21.4452474,6.09937105 21.4488,6.83547632 C21.4488,6.98184474 21.4452474,7.12821316 21.4488,7.27316053 C21.4530632,7.39679211 21.4637211,7.40958158 21.5802474,7.40958158 C21.8495368,7.41597632 22.1174053,7.41597632 22.3852737,7.41881842 C22.5074842,7.41881842 22.6325368,7.40602895 22.7511947,7.42734474 C22.8684316,7.44866053 22.9799842,7.49981842 23.0922474,7.54955526 C23.3295632,7.66039737 23.4738,7.85934474 23.5668789,8.09595 C23.5945895,8.16984474 23.6045368,8.25368684 23.6088,8.33184474 C23.6166158,8.50308158 23.6151947,8.67360789 23.6166158,8.84484474 L23.6166158,8.90666053 C23.6123526,9.00329211 23.5945895,9.01963421 23.4979579,9.02034474 C23.2556684,9.02176579 23.0112474,9.02176579 22.7675368,9.02176579 C22.3199053,9.02176579 21.8729842,9.02176579 21.4246421,9.01963421 C21.2342211,9.01963421 21.0445105,9.01181842 20.8533789,9.01181842 C20.2274053,9.00897632 19.6007211,9.00826579 18.9754579,9.00329211 C18.5939053,9.00329211 18.2123526,8.99760789 17.8293789,8.99192368 C17.7199579,8.99192368 17.6112474,9.00187105 17.5018263,9.00187105 C17.4073263,9.00187105 17.3874316,8.98268684 17.3874316,8.88463421 C17.3860105,8.52581842 17.3916947,8.16771316 17.3888526,7.81173947 C17.3888526,7.59147632 17.3845895,7.37192368 17.3838789,7.15237105 C17.3824579,6.29831842 17.3789053,5.44426579 17.3789053,4.58950263 L17.3789053,3.35887105 C17.3789053,3.20468684 17.3710895,3.05050263 17.3725105,2.89631842 C17.3753526,2.79542368 17.3874316,2.78334474 17.4869053,2.78334474 C17.9025632,2.78618684 18.3175105,2.78831842 18.7317474,2.79471316 C18.8305105,2.79684474 18.8433,2.81176579 18.8433,2.91266053 C18.8482737,3.05547632 18.8433,3.19829211 18.8433,3.34110789 C18.8433,3.64876579 18.8461421,3.95997632 18.8461421,4.26763421 C18.8461421,4.66695 18.8433,5.06413421 18.8433,5.46202895 C18.8461421,6.01837105 18.8539579,6.57755526 18.8582211,7.13318684 L18.8610632,7.27884474 C18.8660368,7.40034474 18.8674579,7.40034474 18.9832737,7.40034474 C19.2689053,7.40176579 19.5524053,7.40602895 19.8394579,7.40673947 C19.9559842,7.40673947 19.9673526,7.39821316 19.9673526,7.28523947 C19.9701947,6.90723947 19.9730368,6.52710789 19.9730368,6.15052895 C19.9730368,5.62118684 19.9687737,5.09326579 19.9673526,4.56250263 C19.9673526,4.41968684 19.9623789,4.27971316 19.9623789,4.13618684 L19.9701947,3.98697632 Z" id="Fill-15" fill="#DFA550"></path>
                        <g id="Group-19" transform="translate(7.815789, 0.108711)">
                            <mask id="mask-2" fill="white">
                                <use xlink:href="#path-1"></use>
                            </mask>
                            <g id="Clip-18"></g>
                            <path d="M6.85458947,3.02648684 C7.0578,2.82967105 7.25177368,2.63853947 7.44432632,2.44669737 C7.55232632,2.34153947 7.64753684,2.22075 7.76974737,2.13406579 C7.87348421,2.05875 8.00564211,2.02180263 8.12714211,1.96922368 L8.19961579,1.95998684 C8.35237895,1.90314474 8.50869474,1.93440789 8.65719474,1.96496053 C8.74885263,1.98556579 8.8398,2.03032895 8.9208,2.08432895 C8.99753684,2.13406579 9.06077368,2.20511842 9.12756316,2.26977632 C9.22277368,2.36285526 9.31443158,2.46019737 9.40893158,2.55611842 C9.49632632,2.64209211 9.49774737,2.65275 9.41319474,2.74085526 C9.11690526,3.04069737 8.82487895,3.34125 8.53001053,3.63682895 C8.20743158,3.96296053 7.87987895,4.28696053 7.55303684,4.61167105 C7.31927368,4.84472368 7.09119474,5.07848684 6.85458947,5.30798684 C6.63503684,5.52256579 6.40624737,5.73359211 6.18527368,5.94603947 C5.97708947,6.14853947 5.77458947,6.35459211 5.57208947,6.55922368 C5.4243,6.70488158 5.27935263,6.85053947 5.12232632,7.00543421 L4.99656316,6.91022368 C4.72087895,6.63027632 4.44022105,6.34890789 4.16098421,6.06896053 C3.94427368,5.85153947 3.72898421,5.62914474 3.50801053,5.40959211 C3.02982632,4.92785526 2.55022105,4.45109211 2.07132632,3.96722368 C1.78498421,3.67875 1.49651053,3.38885526 1.21301053,3.09967105 C1.14835263,3.03572368 1.07303684,2.98172368 1.02827368,2.90711842 C0.963615789,2.79911842 0.889010526,2.70817105 0.772484211,2.65417105 L0.695747368,2.54688158 C0.796642105,2.44030263 0.892563158,2.33656579 0.994878947,2.23922368 C1.20803684,2.03530263 1.42119474,1.83493421 1.63506316,1.63598684 C1.72032632,1.55427632 1.73595789,1.55853947 1.82122105,1.64735526 C1.9548,1.78377632 2.09477368,1.91309211 2.22977368,2.04738158 C2.55945789,2.37919737 2.88843158,2.70817105 3.21598421,3.04069737 C3.59114211,3.42011842 3.96345789,3.80096053 4.33790526,4.18038158 C4.5468,4.39353947 4.75853684,4.59888158 4.97098421,4.80848684 L5.01858947,4.84472368 C5.16282632,4.70830263 5.30564211,4.57188158 5.44845789,4.43475 C5.54793158,4.33811842 5.64527368,4.23793421 5.74332632,4.13846053 C5.80869474,4.07522368 5.81224737,4.05817105 5.74545789,3.98853947 C5.61045789,3.84714474 5.47474737,3.70717105 5.33690526,3.57003947 C4.91556316,3.14727632 4.49422105,2.72025 4.07358947,2.29535526 C3.88814211,2.10848684 3.69914211,1.92232895 3.51298421,1.73617105 L3.46395789,1.67932895 C3.38793158,1.59193421 3.3858,1.57701316 3.46822105,1.48677632 C3.52435263,1.42638158 3.58332632,1.36953947 3.64087895,1.31269737 C3.8583,1.10025 4.07643158,0.885671053 4.29456316,0.673934211 C4.39403684,0.577302632 4.41961579,0.577302632 4.51340526,0.676776316 C4.71661579,0.881407895 4.91556316,1.09314474 5.11735263,1.29848684 C5.37314211,1.55853947 5.63035263,1.81575 5.88969474,2.07864474 C6.17248421,2.36285526 6.45669474,2.64777632 6.74019474,2.93127632 L6.85458947,3.02648684 Z" id="Fill-17" fill="#D23B44" mask="url(#mask-2)"></path>
                        </g>
                        <polygon id="Fill-20" fill="#231F20" points="10.5859184 11.4335763 10.5319184 11.4847342 10.5034974 11.4634184 10.5539447 11.4037342"></polygon>
                        <polygon id="Fill-22" fill="#231F20" points="14.9503974 7.57811842 14.9006605 7.52127632 14.9113184 7.50493421 14.9518184 7.52696053 14.9667395 7.56746053"></polygon>
                        <polygon id="Fill-24" fill="#231F20" points="5.42486842 5.78581579 5.40284211 5.80855263 5.37655263 5.78936842 5.39502632 5.77089474"></polygon>
                        <g id="Group-29" transform="translate(29.842105, 2.240289)">
                            <path d="M0.636489474,0.164984211 L0.636489474,22.4627211" id="Fill-26" fill="#202020"></path>
                            <path d="M0.636489474,0.164984211 L0.636489474,22.4627211" id="Stroke-28" stroke="#424243"></path>
                        </g>
                        <path d="M49.4900053,18.1388132 C49.4900053,14.7751816 39.7025053,15.2299184 39.7025053,8.53249737 C39.7025053,5.01752368 42.7932947,2.25997105 47.1871895,2.25997105 C50.7327158,2.25997105 52.9445842,3.89631316 53.6416105,4.80507632 L50.7632684,8.22981316 C50.2474263,7.59318158 49.0352684,6.26023421 46.7935579,6.26023421 C45.2780053,6.26023421 44.4296368,7.10860263 44.4296368,8.16941842 C44.4296368,11.5934447 54.1872947,11.0783132 54.1872947,17.8354184 C54.1872947,21.0171553 51.5505316,24.1079447 46.1569263,24.1079447 C42.0657158,24.1079447 39.5206105,22.2904184 38.7930316,21.4718921 L41.4297947,17.6535237 C42.3385579,18.5629974 44.1873474,20.1993395 46.7630053,20.1993395 C48.6110842,20.1993395 49.4900053,19.2600237 49.4900053,18.1388132" id="Fill-30" fill="#202020"></path>
                        <path d="M61.1886789,19.9873184 L62.8854158,19.9873184 C67.2189158,19.9873184 68.4616263,17.2297658 68.4616263,13.1385553 C68.4616263,8.01779211 66.2192053,6.38145 62.8555737,6.38145 L61.1886789,6.38145 L61.1886789,19.9873184 Z M56.5830474,2.56308158 L63.1888105,2.56308158 C70.0979684,2.56308158 73.2193105,5.92671316 73.2193105,12.7143711 C73.2193105,18.1385289 71.0671263,23.8056868 63.2492053,23.8056868 L56.5830474,23.8056868 L56.5830474,2.56308158 Z" id="Fill-32" fill="#202020"></path>
                        <path d="M91.5241737,4.71448421 L88.5541737,7.95661579 C87.7662,7.10895789 86.6457,6.25987895 84.6754105,6.25987895 C81.8880158,6.25987895 79.5240947,7.80598421 79.5240947,12.8358 C79.5240947,18.0780632 81.2215421,20.3510368 84.7663579,20.3510368 C85.4029895,20.3510368 86.3423053,20.2295368 86.7664895,20.0476421 L86.7664895,12.8663526 L91.4033842,12.8663526 L91.4033842,22.2296684 C89.8572789,23.2904842 87.7363579,24.1083 83.7972,24.1083 C77.7669632,24.1083 74.7671211,20.4718263 74.7671211,13.3814842 C74.7671211,5.71490526 79.2214105,2.26032632 84.8573053,2.26032632 C89.0394632,2.26032632 90.9479368,4.04801053 91.5241737,4.71448421" id="Fill-34" fill="#202020"></path>
                        <polygon id="Fill-36" fill="#202020" points="102.284739 23.8053316 102.284739 2.56343684 113.102503 2.56343684 113.102503 4.26017368 104.163371 4.26017368 104.163371 12.6841737 112.072239 12.6841737 112.072239 14.3809105 104.163371 14.3809105 104.163371 23.8053316"></polygon>
                        <path d="M128.104129,16.8659053 L128.104129,2.56301053 L129.922366,2.56301053 L129.922366,16.6840105 C129.922366,21.4111421 127.225208,24.1083 122.467524,24.1083 C117.861892,24.1083 115.225839,21.5020895 115.225839,16.8659053 L115.225839,2.56301053 L117.043366,2.56301053 L117.043366,16.6541684 C117.043366,20.6537211 119.316339,22.3810105 122.649418,22.3810105 C125.952655,22.3810105 128.104129,20.8960105 128.104129,16.8659053" id="Fill-38" fill="#202020"></path>
                        <polygon id="Fill-40" fill="#202020" points="137.772189 4.25996053 131.984242 4.25996053 131.984242 2.56322368 145.347821 2.56322368 145.347821 4.25996053 139.590426 4.25996053 139.590426 23.8051184 137.772189 23.8051184"></polygon>
                        <path d="M160.289124,16.8659053 L160.289124,2.56301053 L162.107361,2.56301053 L162.107361,16.6840105 C162.107361,21.4111421 159.410203,24.1083 154.652518,24.1083 C150.046887,24.1083 147.410834,21.5020895 147.410834,16.8659053 L147.410834,2.56301053 L149.228361,2.56301053 L149.228361,16.6541684 C149.228361,20.6537211 151.501334,22.3810105 154.834413,22.3810105 C158.13765,22.3810105 160.289124,20.8960105 160.289124,16.8659053" id="Fill-42" fill="#202020"></path>
                        <path d="M168.533005,13.0780895 L171.532847,13.0780895 C174.593795,13.0780895 176.745268,11.8964842 176.745268,8.68419474 C176.745268,5.44206316 174.836084,4.25974737 171.321111,4.25974737 L168.533005,4.25974737 L168.533005,13.0780895 Z M171.623795,2.56301053 C175.957295,2.56301053 178.6239,4.2903 178.6239,8.47245789 C178.6239,11.8964842 176.321084,13.9875632 173.744716,14.2298526 L173.744716,14.3513526 C174.532689,14.6845895 175.320663,15.3510632 176.259979,16.9568526 L180.351189,23.8056158 L178.169874,23.8056158 L174.230005,17.0478 C173.321242,15.5024053 172.260426,14.7449842 170.562979,14.7449842 L168.533005,14.7449842 L168.533005,23.8056158 L166.714768,23.8056158 L166.714768,2.56301053 L171.623795,2.56301053 Z" id="Fill-44" fill="#202020"></path>
                        <polygon id="Fill-46" fill="#202020" points="183.353447 23.8053316 183.353447 2.56343684 194.262868 2.56343684 194.262868 4.26017368 185.171684 4.26017368 185.171684 12.1995947 193.201342 12.1995947 193.201342 13.8963316 185.171684 13.8963316 185.171684 22.1085947 194.716895 22.1085947 194.716895 23.8053316"></polygon>
                        <g id="Group-50" transform="translate(195.394737, 2.240289)">
                            <mask id="mask-4" fill="white">
                                <use xlink:href="#path-3"></use>
                            </mask>
                            <g id="Clip-49"></g>
                            <path d="M11.8689158,16.2014211 C11.8689158,11.0195526 1.65723158,12.2622632 1.65723158,5.56555263 C1.65723158,2.41365789 4.29328421,0.0198947368 7.99015263,0.0198947368 C10.0506789,0.0198947368 11.8689158,0.565578947 13.2025737,1.59513158 L12.0813632,3.08013158 C10.8692053,2.17136842 9.53625789,1.74718421 7.89920526,1.74718421 C5.14165263,1.74718421 3.50531053,3.29257895 3.50531053,5.47389474 C3.50531053,10.7772632 13.7177053,9.59565789 13.7177053,16.1104737 C13.7177053,19.3227632 11.2031526,21.8678684 6.86965263,21.8678684 C3.89965263,21.8678684 1.77873158,20.898 0.414521053,19.7469474 L1.53573158,18.2925 C2.77844211,19.2623684 4.44533684,20.1405789 6.99044211,20.1405789 C10.1416263,20.1405789 11.8689158,18.4132895 11.8689158,16.2014211" id="Fill-48" fill="#202020" mask="url(#mask-4)"></path>
                        </g>
                    </g>
                </g>
            </g>
        </g>
    </g>
</svg>