<?xml version="1.0" encoding="UTF-8"?>
<svg width="215px" height="27px" viewBox="0 0 215 27" version="1.1" xmlns="http://www.w3.org/2000/svg" xmlns:xlink="http://www.w3.org/1999/xlink">
    <!-- Generator: Sketch 51.3 (57544) - http://www.bohemiancoding.com/sketch -->
    <title>Group 40</title>
    <desc>Created with Sketch.</desc>
    <defs>
        <polygon id="path-1" points="7.2972973e-05 0.419995946 9.15818108 0.419995946 9.15818108 7.2972973 7.2972973e-05 7.2972973"></polygon>
        <polygon id="path-3" points="0 26.4344595 214.741216 26.4344595 214.741216 0 0 0"></polygon>
    </defs>
    <g id="SDG-Futures-Register" stroke="none" stroke-width="1" fill="none" fill-rule="evenodd">
        <g id="Home-:-All-SDG" transform="translate(-35.000000, -27.000000)">
            <g id="Group-8" transform="translate(35.000000, 0.000000)">
                <g id="Group-40" transform="translate(0.000000, 27.000000)">
                    <path d="M10.8547297,11.0005297 L10.7817568,11.0735027 L10.8547297,11.0005297 Z M8.73851351,11.1464757 L8.81148649,11.2194486 C8.95743243,11.3653946 9.17635135,11.5843135 9.39527027,11.7302595 L10.3439189,12.6789081 L10.5628378,12.897827 L10.5628378,13.1167459 L10.2709459,13.4086378 L9.68716216,13.9924216 L8.81148649,14.8680973 L8.73851351,14.9410703 L11.2195946,14.9410703 C11.3655405,14.9410703 11.3655405,14.9410703 11.3655405,15.1607189 L11.3655405,17.4951243 L11.3655405,17.6410703 C12.0222973,17.0572865 12.6060811,16.4005297 13.1898649,15.8167459 L13.3358108,15.8904486 C13.4817568,16.0356649 13.6277027,16.2553135 13.8466216,16.4005297 C14.0655405,16.5464757 14.1385135,16.6924216 14.2844595,16.8383676 C14.4304054,16.9850432 14.7222973,17.2762054 15.0141892,17.5680973 L15.1601351,17.6410703 L15.1601351,17.4951243 L15.1601351,15.0870162 C15.1601351,14.9410703 15.1601351,14.9410703 15.3060811,14.9410703 L15.3790541,14.9410703 L15.452027,14.9410703 L15.597973,14.9410703 L17.7141892,14.9410703 L17.7871622,14.9410703 L17.7141892,14.8680973 L17.3493243,14.5032324 L16.2547297,13.4086378 L16.0358108,13.1167459 C15.9628378,13.043773 15.9628378,13.043773 16.0358108,12.9708 L16.1087838,12.897827 L16.7655405,12.2410703 L16.9114865,12.0951243 L17.2033784,11.8032324 L17.2763514,11.8032324 L17.3493243,11.6572865 L17.5682432,11.4383676 L17.8601351,11.1464757 L17.7141892,11.1464757 L15.3060811,11.1464757 C15.1601351,11.1464757 15.1601351,11.1464757 15.1601351,11.0005297 L15.1601351,10.0518811 L15.1601351,8.66539459 L15.1601351,8.51944865 L13.3358108,10.343773 L13.2628378,10.2708 L12.825,9.83296216 L11.8763514,8.88431351 L11.5114865,8.51944865 C11.5114865,8.51944865 11.4385135,8.44647568 11.4385135,8.51944865 L11.4385135,9.32215135 L11.4385135,10.9275568 C11.4385135,11.0735027 11.4385135,11.0735027 11.2925676,11.0735027 L8.73851351,11.1464757 Z M21.1439189,9.83296216 L21.0709459,9.97890811 L20.0493243,10.9275568 L19.0277027,11.9491784 C18.6628378,12.3140432 18.297973,12.6789081 18.0060811,13.043773 C17.9331081,13.1167459 17.9331081,13.1167459 18.0060811,13.1897189 L18.8817568,14.0661243 C18.9547297,14.1383676 19.1006757,14.2843135 19.1736486,14.3572865 L20.4141892,15.5255838 L21.0709459,16.1816108 L21.1439189,16.2553135 L20.997973,16.2553135 L16.6195946,16.2553135 C16.5466216,16.2553135 16.5466216,16.2553135 16.5466216,16.4005297 L16.5466216,17.3499081 L16.5466216,19.9039622 L16.5466216,20.7789081 L16.5466216,20.9248541 L16.4736486,20.8518811 L16.1087838,20.4870162 L15.2331081,19.6113405 C14.9412162,19.3194486 14.6493243,19.0275568 14.3574324,18.7356649 C14.0655405,18.4445027 13.8466216,18.2248541 13.6277027,18.0059351 L13.3358108,17.714773 L13.1168919,17.9329622 C12.752027,18.297827 12.3871622,18.6626919 12.0222973,19.1005297 L10.4168919,20.7059351 C10.3439189,20.7789081 10.2709459,20.8518811 10.197973,20.9248541 L10.125,20.9985568 L10.125,20.8518811 L10.125,18.8816108 L10.125,16.4735027 C10.125,16.4005297 10.125,16.4005297 10.052027,16.4005297 L5.67364865,16.4005297 C5.60067568,16.4005297 5.5277027,16.4005297 5.45472973,16.3275568 C5.60067568,16.1816108 5.74662162,16.0356649 5.89256757,15.8904486 C6.03851351,15.743773 6.18445946,15.597827 6.33040541,15.4518811 L6.76824324,15.0140432 L7.20608108,14.5762054 C7.35202703,14.4309892 7.49797297,14.2843135 7.64391892,14.1383676 L8.08175676,13.7005297 L8.51959459,13.2626919 C8.37364865,13.1167459 8.2277027,12.9708 8.08175676,12.8248541 C7.93581081,12.6789081 7.78986486,12.5329622 7.64391892,12.3870162 L7.20608108,11.9491784 C7.06013514,11.8032324 6.91418919,11.6572865 6.76824324,11.5113405 L6.33040541,11.0735027 L5.89256757,10.6356649 C5.74662162,10.4897189 5.60067568,10.343773 5.45472973,10.197827 C5.30878378,10.0518811 5.16283784,9.90593514 5.08986486,9.75998919 L5.23581081,9.75998919 L6.11148649,9.75998919 L8.37364865,9.75998919 L8.88445946,9.75998919 L9.24932432,9.75998919 L9.54121622,9.75998919 C9.61418919,9.75998919 9.68716216,9.75998919 9.68716216,9.61404324 L9.68716216,7.78971892 L9.68716216,5.81944865 L9.68716216,5.30863784 L9.68716216,5.16269189 C9.76013514,5.16269189 9.76013514,5.23566486 9.83310811,5.23566486 L10.7817568,6.18431351 L11.2925676,6.69512432 C11.5844595,6.98701622 11.8763514,7.27890811 12.1682432,7.5708 L12.897973,8.30052973 L12.9709459,8.3735027 C13.1168919,8.30052973 13.1898649,8.22755676 13.2628378,8.08161081 L13.9925676,7.35188108 L15.1601351,6.54917838 L15.597973,6.11134054 L16.1817568,5.52755676 L16.4736486,5.30863784 L16.4736486,5.52755676 L16.4736486,7.05998919 L16.4736486,7.86269189 L16.4736486,8.3735027 L16.4736486,9.24917838 L16.4736486,9.83296216 C16.4736486,10.0518811 16.4736486,9.90593514 16.5466216,9.90593514 L20.852027,9.90593514 L21.1439189,9.83296216 Z" id="Fill-1" fill="#18A4DE"></path>
                    <path d="M8.66546757,24.2086378 L8.51952162,24.2086378 L7.20600811,24.2086378 C7.06006216,24.2086378 7.06006216,24.2086378 7.06006216,24.0626919 L7.06006216,21.5086378 L7.06006216,19.6113405 L7.06006216,19.3924216 C7.06006216,19.3194486 7.06006216,19.3194486 6.98708919,19.3194486 L6.03844054,19.3194486 C5.96546757,19.3194486 5.96546757,19.3194486 5.96546757,19.3924216 L5.96546757,19.8302595 L5.96546757,21.143773 L5.96546757,22.7491784 L5.96546757,22.8951243 C5.96546757,22.9680973 5.89249459,22.9680973 5.89249459,22.9680973 L5.81952162,22.9680973 L5.08979189,22.9680973 L4.50600811,22.9680973 C4.36006216,22.9680973 4.36006216,22.9680973 4.36006216,22.8228811 L4.36006216,22.1653946 L4.36006216,21.3634216 L4.36006216,20.268827 L4.36006216,19.3924216 C4.36006216,19.3194486 4.36006216,19.2464757 4.21411622,19.2464757 L3.33844054,19.2464757 L3.04654865,19.2464757 C2.97357568,19.2464757 2.82762973,19.1742324 2.75465676,19.1742324 C2.46276486,19.1005297 2.31681892,18.9545838 2.17087297,18.7356649 C2.0979,18.5897189 2.0979,18.5167459 2.0979,18.3708 L2.0979,17.7870162 C2.0979,17.5680973 2.0979,17.6410703 2.24384595,17.6410703 L6.03844054,17.6410703 L7.57087297,17.6410703 L8.51952162,17.6410703 C8.59249459,17.6410703 8.59249459,17.6410703 8.59249459,17.714773 L8.59249459,18.5897189 L8.59249459,20.9248541 L8.59249459,23.0410703 L8.59249459,24.0626919 L8.66546757,24.2086378 Z" id="Fill-3" fill="#005489"></path>
                    <g id="Group-7" transform="translate(8.756757, 19.137162)">
                        <mask id="mask-2" fill="white">
                            <use xlink:href="#path-1"></use>
                        </mask>
                        <g id="Clip-6"></g>
                        <path d="M8.08182973,6.16607027 L7.64399189,5.72823243 L5.52777568,3.61201622 C5.30885676,3.3930973 5.01696486,3.10120541 4.79804595,2.88228649 L4.72507297,2.80931351 C4.6521,2.73634054 4.6521,2.73634054 4.57912703,2.80931351 L4.14128919,3.24715135 C4.06831622,3.32085405 3.99534324,3.3930973 3.92237027,3.53904324 C3.8493973,3.68571892 3.8493973,3.61201622 3.92237027,3.68571892 L4.6521,4.41544865 C5.08993784,4.85255676 5.4548027,5.21742162 5.89264054,5.65525946 L6.33047838,6.0930973 C6.40345135,6.16607027 6.40345135,6.16607027 6.33047838,6.31201622 L6.03858649,6.60463784 L5.4548027,7.18769189 C5.38182973,7.33436757 5.30885676,7.33436757 5.23588378,7.18769189 L4.14128919,6.0930973 L3.19264054,5.14517838 C3.04669459,4.9985027 2.97372162,4.92552973 2.82777568,4.78031351 C2.68182973,4.63363784 2.7548027,4.70661081 2.68182973,4.78031351 L1.9521,5.51004324 L1.80615405,5.65525946 C1.66020811,5.80120541 1.36831622,5.87490811 1.1493973,5.87490811 C1.00345135,5.87490811 0.784532432,5.80120541 0.638586486,5.72823243 C0.492640541,5.65525946 0.346694595,5.51004324 0.273721622,5.43634054 L0.0548027027,5.21742162 C-0.0181702703,5.14517838 -0.0181702703,5.07147568 0.0548027027,4.9985027 L0.711559459,4.34174595 C1.00345135,4.05058378 1.29534324,3.75796216 1.51426216,3.46607027 L2.7548027,2.22625946 L3.55750541,1.42282703 L4.28723514,0.693097297 L4.50615405,0.474178378 C4.57912703,0.401935135 4.57912703,0.401935135 4.72507297,0.474178378 L5.01696486,0.7668 L5.60074865,1.34985405 L7.06020811,2.80931351 L8.1548027,3.90390811 L9.10345135,4.85255676 C9.17642432,4.92552973 9.17642432,4.92552973 9.10345135,5.07147568 L8.51966757,5.65525946 L8.1548027,6.02012432 L8.08182973,6.16607027 Z" id="Fill-5" fill="#DF1983" mask="url(#mask-2)"></path>
                    </g>
                    <path d="M4.50622703,13.1169649 L3.63055135,12.2412892 L3.48460541,12.3872351 L2.75487568,13.1169649 L1.66028108,14.1385865 C1.44136216,14.2845324 1.29541622,14.5034514 1.0764973,14.7223703 C0.857578378,14.9412892 0.930551351,14.7953432 0.857578378,14.7223703 C0.784605405,14.6493973 0.565686486,14.4304784 0.419740541,14.2845324 L0.0548756757,13.8466946 C-0.0180972973,13.7737216 -0.0180972973,13.7737216 0.0548756757,13.6277757 L0.711632432,13.0439919 L2.09811892,11.7304784 L2.53595676,11.2926405 L2.60892973,11.2196676 L2.24406486,10.9277757 C2.02514595,10.7088568 1.8792,10.4899378 1.66028108,10.3439919 C1.58730811,10.2710189 1.51433514,10.125073 1.44136216,10.0521 C1.29541622,9.76020811 1.36838919,9.39534324 1.51433514,9.10345135 C1.58730811,8.95750541 1.73325405,8.88453243 1.80622703,8.81155946 L2.17109189,8.44669459 C2.24406486,8.51966757 2.24406486,8.59264054 2.31703784,8.59264054 C2.46298378,8.73858649 2.60892973,8.88453243 2.6819027,8.95750541 C3.04676757,9.2493973 3.33865946,9.61426216 3.63055135,9.90615405 L4.87109189,11.1466946 L5.60082162,11.8764243 C5.81974054,12.0953432 5.96568649,12.2412892 6.11163243,12.3872351 C6.25757838,12.5331811 6.40352432,12.679127 6.54947027,12.825073 L6.62244324,12.8980459 C6.69541622,12.9710189 6.69541622,12.9710189 6.62244324,13.0439919 C6.54947027,13.1169649 6.40352432,13.2629108 6.33055135,13.4088568 L5.09001081,14.7223703 C4.72514595,15.0872351 4.36028108,15.4521 3.99541622,15.8169649 L2.53595676,17.2764243 L2.17109189,17.5683162 C2.09811892,17.6412892 2.09811892,17.6412892 2.02514595,17.5683162 L1.58730811,17.2034514 C1.44136216,16.9845324 1.22244324,16.7656135 1.0764973,16.6196676 C0.930551351,16.4737216 1.00352432,16.5466946 1.0764973,16.4737216 L1.73325405,15.8169649 C1.95217297,15.5980459 2.17109189,15.379127 2.39001081,15.1602081 L3.04676757,14.5034514 L3.55757838,13.9926405 L4.36028108,13.1899378 L4.50622703,13.1169649 Z" id="Fill-8" fill="#00ACD7"></path>
                    <path d="M19.5383676,19.1739405 L19.5383676,19.5388054 L19.5383676,20.1948324 C19.5383676,20.1948324 19.5383676,20.3415081 19.6843135,20.3415081 L23.0410703,20.3415081 L23.1140432,20.4137514 L23.1140432,21.289427 L23.1140432,21.7279946 C23.1140432,21.7279946 23.1140432,21.8732108 22.9680973,21.8732108 L20.4870162,21.8732108 L19.6843135,21.8732108 C19.5383676,21.8732108 19.5383676,21.8732108 19.5383676,22.0191568 L19.5383676,22.3840216 L19.5383676,23.1874541 C19.5383676,23.3326703 19.4653946,23.4786162 19.3924216,23.6252919 C19.2464757,23.8434811 19.0275568,24.0624 18.7356649,24.1361027 L18.6626919,24.1361027 L17.9329622,24.1361027 C17.8599892,24.1361027 17.8599892,24.1361027 17.7870162,24.0624 C17.7140432,23.9901568 17.7870162,23.9171838 17.7870162,23.8434811 L17.7870162,21.4361027 L17.7870162,20.2685351 L17.7870162,18.5171838 L17.7870162,17.7874541 C17.7870162,17.6407784 17.7870162,17.6407784 17.9329622,17.6407784 L23.3329622,17.6407784 L24.0626919,17.6407784 L24.1356649,17.6407784 C24.2086378,17.6407784 24.2086378,17.6407784 24.2086378,17.7144811 L24.2086378,18.2245622 L24.2086378,18.8820486 L24.2086378,19.0279946 L24.1356649,19.1002378 L19.6113405,19.1002378 L19.4653946,19.1002378" id="Fill-10" fill="#F26D25"></path>
                    <path d="M8.66546757,7.20608108 L8.66546757,8.2277027 L8.66546757,8.37364865 L8.59249459,8.44662162 L8.51952162,8.44662162 L7.86276486,8.44662162 L6.62222432,8.44662162 L5.08979189,8.44662162 L2.31681892,8.44662162 C2.17087297,8.44662162 2.17087297,8.44662162 2.17087297,8.30067568 L2.17087297,6.91418919 L2.24384595,6.84121622 L2.53573784,6.84121622 L2.97357568,6.84121622 L3.9951973,6.84121622 L4.65195405,6.84121622 L5.81952162,6.91418919 L6.25735946,6.91418919 L6.91411622,6.91418919 C6.98708919,6.91418919 6.98708919,6.91418919 6.98708919,6.76824324 L6.98708919,5.89256757 C6.98708919,5.74662162 6.98708919,5.74662162 6.84114324,5.74662162 L5.30871081,5.74662162 L3.63033243,5.67364865 L3.55735946,5.67364865 C3.48438649,5.67364865 3.41141351,5.67364865 3.41141351,5.5277027 L3.41141351,4.725 L3.41141351,4.28716216 C3.41141351,4.14121622 3.41141351,4.14121622 3.55735946,4.14121622 L4.50600811,4.14121622 L5.08979189,4.14121622 C5.67357568,4.21418919 6.25735946,4.14121622 6.91411622,4.14121622 L6.98708919,4.14121622 C7.06006216,4.14121622 7.13303514,4.14121622 7.13303514,3.99527027 L7.13303514,3.55743243 L7.13303514,2.90067568 C7.13303514,2.60878378 7.27898108,2.38986486 7.4979,2.17094595 C7.64384595,2.025 7.78979189,1.95202703 7.93573784,1.95202703 L8.00871081,1.95202703 L8.66546757,1.95202703 C8.81141351,1.95202703 8.81141351,1.95202703 8.81141351,2.09797297 L8.81141351,3.70337838 L8.81141351,5.5277027 L8.66546757,7.20608108 Z" id="Fill-12" fill="#F89D25"></path>
                    <path d="M25.3035243,11.2926405 L25.3764973,11.3656135 L26.1792,12.1683162 C26.3251459,12.3142622 26.3251459,12.3142622 26.1792,12.4602081 L25.5954162,13.1169649 C25.2305514,13.4818297 24.9386595,13.8466946 24.5737946,14.1385865 L23.9900108,14.7223703 C23.9170378,14.7953432 23.9170378,14.7953432 23.9900108,14.8683162 C24.0629838,14.9412892 24.2089297,15.0872351 24.2819027,15.2331811 C24.3548757,15.379127 24.6467676,15.5980459 24.8656865,15.8169649 C24.9386595,15.8899378 25.0116324,16.0358838 25.0116324,16.1818297 L25.0116324,16.2548027 L25.0116324,16.5466946 C25.0116324,16.6926405 24.9386595,16.9115595 24.7927135,17.0575054 L24.7927135,17.1304784 C24.6467676,17.2764243 24.5008216,17.4223703 24.4278486,17.5683162 C24.3548757,17.6412892 24.3548757,17.6412892 24.2819027,17.5683162 C24.0629838,17.3493973 23.8440649,17.1304784 23.6251459,16.9115595 L23.1143351,16.4007486 L22.1656865,15.4521 L21.5089297,14.7953432 L20.7792,14.0656135 L20.2683892,13.5548027 L19.9035243,13.1169649 C19.8305514,13.0439919 19.8305514,12.9710189 19.9035243,12.8980459 L21.2170378,11.6575054 L22.3846054,10.4899378 L23.3332541,9.54128919 C23.6251459,9.2493973 23.9170378,8.95750541 24.2089297,8.66561351 C24.2819027,8.59264054 24.2819027,8.59264054 24.4278486,8.66561351 L25.3035243,9.46831622 L25.3764973,9.54128919 L25.3764973,9.61426216 L25.3035243,9.68723514 L23.9170378,11.0737216 L22.6035243,12.3872351 C22.4575784,12.5331811 22.2386595,12.7521 22.0927135,12.8980459 C21.9467676,13.0439919 22.0197405,12.9710189 22.0927135,13.0439919 L22.7494703,13.7007486 C22.8224432,13.7737216 22.8224432,13.7737216 22.9683892,13.7007486 L23.8440649,12.825073 L24.9386595,11.7304784 C25.0846054,11.6575054 25.1575784,11.5115595 25.3035243,11.3656135 L25.3035243,11.2926405 Z" id="Fill-14" fill="#40AE49"></path>
                    <path d="M20.4872351,3.33865946 L20.5602081,3.33865946 L21.8737216,3.33865946 C21.9466946,3.33865946 22.0196676,3.33865946 22.0196676,3.48460541 L22.0196676,3.99541622 L22.0196676,6.25757838 L22.0196676,6.69541622 C22.0196676,6.69541622 22.0196676,6.84136216 22.1656135,6.84136216 L22.9683162,6.84136216 L23.3331811,6.84136216 C23.479127,6.84136216 23.5521,6.91433514 23.6980459,6.98730811 C23.9169649,7.13325405 24.1358838,7.2792 24.2088568,7.57109189 C24.2088568,7.64406486 24.2818297,7.71703784 24.2818297,7.79001081 L24.2818297,8.30082162 L24.2818297,8.37379459 C24.2818297,8.44676757 24.2818297,8.44676757 24.1358838,8.51974054 L18.0061541,8.51974054 C17.9331811,8.51974054 17.8602081,8.51974054 17.8602081,8.37379459 L17.8602081,7.2792 L17.8602081,6.62244324 L17.8602081,3.99541622 L17.8602081,2.6819027 L17.8602081,2.17109189 C17.8602081,1.95217297 17.8602081,2.02514595 18.0061541,2.02514595 L19.3196676,2.02514595 C19.3926405,2.02514595 19.4656135,2.02514595 19.4656135,2.17109189 L19.4656135,2.60892973 L19.4656135,4.79811892 L19.4656135,6.54947027 L19.4656135,6.69541622 C19.4656135,6.84136216 19.4656135,6.84136216 19.6115595,6.84136216 L20.4872351,6.84136216 C20.6331811,6.84136216 20.6331811,6.84136216 20.6331811,6.69541622 L20.6331811,5.52784865 L20.6331811,3.92244324 L20.4872351,3.33865946 Z" id="Fill-16" fill="#FBB615"></path>
                    <path d="M15.0142622,2.46283784 L15.5980459,1.87905405 C15.6710189,1.73310811 15.8169649,1.66013514 15.9629108,1.58716216 C16.1088568,1.51418919 16.1818297,1.44121622 16.3277757,1.44121622 L16.4007486,1.44121622 C16.6196676,1.36824324 16.9115595,1.44121622 17.1304784,1.58716216 C17.2034514,1.66013514 17.2764243,1.73310811 17.3493973,1.80608108 L17.6412892,2.09797297 C17.7142622,2.17094595 17.7142622,2.17094595 17.6412892,2.31689189 L16.7656135,3.11959459 L15.7439919,4.14121622 C15.525073,4.36013514 15.3061541,4.65202703 15.0142622,4.87094595 C14.7223703,5.08986486 14.5764243,5.30878378 14.2845324,5.5277027 L13.6277757,6.18445946 L13.2629108,6.54932432 L13.1169649,6.47635135 L12.3142622,5.60067568 L11.6575054,4.94391892 L10.1980459,3.48445946 L9.32237027,2.60878378 C9.2493973,2.53581081 9.17642432,2.46283784 9.10345135,2.38986486 C9.03047838,2.24391892 8.95750541,2.17094595 8.81155946,2.17094595 L8.73858649,1.95202703 L9.03047838,1.66013514 L9.68723514,1.07635135 C9.76020811,1.00337838 9.76020811,1.00337838 9.90615405,1.07635135 L10.3439919,1.44121622 L11.3656135,2.46283784 L12.4602081,3.63040541 L13.1169649,4.28716216 L13.1899378,4.28716216 L13.6277757,3.84932432 L13.9196676,3.63040541 C13.9926405,3.55743243 13.9926405,3.55743243 13.9196676,3.48445946 L13.4818297,3.04662162 L12.1683162,1.73310811 L11.5845324,1.14932432 L11.5115595,1.07635135 C11.4385865,1.00337838 11.4385865,1.00337838 11.5115595,0.857432432 L11.7304784,0.711486486 L12.3872351,0.0547297297 C12.4602081,-0.0182432432 12.5331811,-0.0182432432 12.6061541,0.0547297297 C12.825073,0.273648649 13.0439919,0.492567568 13.2629108,0.711486486 L14.0656135,1.51418919 L14.9412892,2.38986486 L15.0142622,2.46283784 Z" id="Fill-18" fill="#EA1D30"></path>
                    <polygon id="Fill-20" fill="#231F20" points="10.8546568 11.0008216 10.8546568 11.0008216 10.7816838 11.0008216"></polygon>
                    <path d="M31.2870892,1.73310811 L31.2870892,24.6466216" id="Fill-26" fill="#212121"></path>
                    <mask id="mask-4" fill="white">
                        <use xlink:href="#path-3"></use>
                    </mask>
                    <g id="Clip-29"></g>
                    <polygon id="Fill-28" fill="#212121" mask="url(#mask-4)" points="30.9222973 24.6466216 31.652027 24.6466216 31.652027 1.73310811 30.9222973 1.73310811"></polygon>
                    <path d="M50.8440649,17.8598432 C50.8440649,14.4308432 40.7737946,14.8679514 40.7737946,8.00849189 C40.7737946,4.43354595 43.9116324,1.58687027 48.4359568,1.58687027 C52.0846054,1.58687027 54.3467676,3.26524865 55.0764973,4.2138973 L52.0846054,7.71732973 C51.1359568,6.47605946 49.6035243,5.67335676 47.9981189,5.67335676 C46.4656865,5.67335676 45.5900108,6.54903243 45.5900108,7.64362703 C45.5900108,11.1463297 55.5873081,10.6362486 55.5873081,17.5686811 C55.5873081,20.8524649 52.8873081,23.989573 47.3413622,23.989573 C43.1089297,23.989573 40.5548757,22.0930054 39.752173,21.289573 L42.452173,17.3497622 C43.4008216,18.2984108 45.2981189,19.9760595 47.9251459,19.9760595 C49.8954162,19.9760595 50.7710919,19.0281405 50.8440649,17.8598432" id="Fill-30" fill="#212121" mask="url(#mask-4)"></path>
                    <path d="M62.8115595,19.7575784 L64.5629108,19.7575784 C69.0142622,19.7575784 70.2548027,16.9116324 70.2548027,12.752173 C70.2548027,7.49811892 67.9196676,5.81974054 64.4899378,5.81974054 L62.8115595,5.81974054 L62.8115595,19.7575784 Z M58.0683162,1.8792 L64.8548027,1.8792 C71.9331811,1.8792 75.1439919,5.30892973 75.1439919,12.3143351 C75.1439919,17.8595514 72.9548027,23.6973892 64.9277757,23.6973892 L58.0683162,23.6973892 L58.0683162,1.8792 Z" id="Fill-31" fill="#212121" mask="url(#mask-4)"></path>
                    <path d="M93.9708,4.06838919 L90.9059351,7.42514595 C89.8843135,6.25757838 88.4248541,5.60082162 86.8924216,5.67379459 C84.0464757,5.67379459 81.6383676,7.2792 81.6383676,12.4602811 C81.6383676,17.8595514 83.3897189,20.1954162 87.0383676,20.1954162 C87.7680973,20.1954162 88.4248541,20.1224432 89.0816108,19.9035243 L89.0816108,12.4602811 L93.8248541,12.4602811 L93.8248541,22.0927135 C92.2194486,23.1873081 90.0302595,23.9900108 86.0167459,23.9900108 C79.8140432,23.9900108 76.7491784,20.2683892 76.7491784,12.9710919 C76.7491784,5.09001081 81.3464757,1.58730811 87.1113405,1.58730811 C91.4167459,1.58730811 93.3870162,3.41163243 93.9708,4.06838919" id="Fill-32" fill="#212121" mask="url(#mask-4)"></path>
                    <polygon id="Fill-33" fill="#212121" mask="url(#mask-4)" points="105.062838 23.6976811 105.062838 1.87949189 116.15473 1.87949189 116.15473 3.63011351 106.960135 3.63011351 106.960135 12.3138973 115.060135 12.3138973 115.060135 14.0659784 106.960135 14.0659784 106.960135 23.7713838 105.062838 23.7713838"></polygon>
                    <path d="M131.551881,16.5464757 L131.551881,1.87890811 L133.449908,1.87890811 L133.449908,16.4005297 C133.449908,21.2167459 130.676205,24.0626919 125.787746,24.0626919 C121.044503,24.0626919 118.343773,21.3634216 118.343773,16.6201784 L118.343773,1.87890811 L120.24107,1.87890811 L120.24107,16.3275568 C120.24107,20.4140432 122.576205,22.2383676 126.005935,22.2383676 C129.436395,22.2383676 131.551881,20.7059351 131.551881,16.5464757" id="Fill-34" fill="#212121" mask="url(#mask-4)"></path>
                    <polygon id="Fill-35" fill="#212121" mask="url(#mask-4)" points="141.476643 3.63047838 135.565103 3.63047838 135.565103 1.87912703 149.284022 1.87912703 149.284022 3.63047838 143.373941 3.63047838 143.373941 23.6980459 141.476643 23.6980459"></polygon>
                    <path d="M164.608492,16.5464757 L164.608492,1.87890811 L166.506519,1.87890811 L166.506519,16.4005297 C166.506519,21.2167459 163.733546,24.0626919 158.844357,24.0626919 C154.101114,24.0626919 151.400384,21.3634216 151.400384,16.6201784 L151.400384,1.87890811 L153.224708,1.87890811 L153.224708,16.3275568 C153.224708,20.4140432 155.560573,22.2383676 158.990303,22.2383676 C162.419303,22.2383676 164.608492,20.7059351 164.608492,16.5464757" id="Fill-36" fill="#212121" mask="url(#mask-4)"></path>
                    <path d="M173.073795,12.6790541 L176.138659,12.6790541 C179.276497,12.6790541 181.465686,11.4385135 181.465686,8.15472973 C181.465686,4.87094595 179.567659,3.63040541 175.919011,3.63040541 L173.073795,3.63040541 L173.073795,12.6790541 Z M176.211632,1.87905405 C180.662254,1.87905405 183.435957,3.63040541 183.435957,7.93581081 C183.435957,11.4385135 181.100822,13.6277027 178.400822,13.8466216 L178.400822,13.9925676 C179.202795,14.3574324 180.006227,15.0141892 180.954876,16.6925676 L185.187308,23.697973 L182.925146,23.697973 L178.83793,16.7655405 C177.890011,15.1601351 176.795416,14.4304054 175.044065,14.4304054 L172.927849,14.4304054 L172.927849,23.697973 L171.030551,23.697973 L171.030551,1.87905405 L176.211632,1.87905405 Z" id="Fill-37" fill="#212121" mask="url(#mask-4)"></path>
                    <polygon id="Fill-38" fill="#212121" mask="url(#mask-4)" points="188.252027 23.6976811 188.252027 1.87949189 199.489865 1.87949189 199.489865 3.63011351 190.149324 3.63011351 190.149324 11.8030865 198.39527 11.8030865 198.39527 13.5551676 190.149324 13.5551676 190.149324 22.0193027 199.927703 22.0193027 199.927703 23.7713838"></polygon>
                    <path d="M212.844065,18.2247081 C212.844065,12.8976811 202.335957,14.2111946 202.335957,7.27876216 C202.335957,4.06868108 205.035957,1.58687027 208.830551,1.58687027 C210.727849,1.51462703 212.625146,2.09768108 214.157578,3.19227568 L213.062984,4.72470811 C211.822443,3.77605946 210.290011,3.33895135 208.756849,3.33895135 C205.911632,3.33895135 204.233254,4.94362703 204.233254,7.13281622 C204.233254,12.6057892 214.741362,11.3659784 214.741362,18.0794919 C214.741362,21.3632757 212.187308,23.989573 207.735957,23.989573 C205.327849,24.0625459 202.992714,23.3328162 201.094686,21.8003838 L202.262984,20.3409243 C203.868389,21.5821946 205.83793,22.3119243 207.881903,22.2382216 C211.092714,22.2382216 212.844065,20.4876 212.844065,18.2247081" id="Fill-39" fill="#212121" mask="url(#mask-4)"></path>
                </g>
            </g>
        </g>
    </g>
</svg>