<?xml version="1.0" encoding="UTF-8"?>
<svg width="28px" height="16px" viewBox="0 0 28 16" version="1.1" xmlns="http://www.w3.org/2000/svg" xmlns:xlink="http://www.w3.org/1999/xlink">
    <!-- Generator: Sketch 51.3 (57544) - http://www.bohemiancoding.com/sketch -->
    <title>ixo logo@2x</title>
    <desc>Created with Sketch.</desc>
    <defs></defs>
    <g id="Symbols" stroke="none" stroke-width="1" fill="none" fill-rule="evenodd">
        <g id="Footer-final" transform="translate(-170.000000, -79.000000)" fill="#00D2FF">
            <g id="ixo-logo" transform="translate(170.000000, 79.000000)">
                <path d="M22,12.379847 C20.9066868,12.379847 20.0201024,11.4934068 20.0201024,10.3999217 C20.0201024,9.30643659 20.9066868,8.41999636 22,8.41999636 C23.0934698,8.41999636 23.9798976,9.30643659 23.9798976,10.3999217 C23.9798976,11.4934068 23.0934698,12.379847 22,12.379847 M22,4.8 C18.9072126,4.8 16.4,7.30709102 16.4,10.3999217 C16.4,13.4927524 18.9072126,16 22,16 C25.0927874,16 27.6,13.4927524 27.6,10.3999217 C27.6,7.30709102 25.0927874,4.8 22,4.8" id="Fill-2"></path>
                <polygon id="Fill-4" points="0 4.8 0 16 4 16 4 4.8 3.99114064 4.8"></polygon>
                <polygon id="Fill-6" points="10.4000783 7.59996085 7.60011746 4.8 4.8 4.8 4.8 7.59996085 7.60011746 10.3999217 4.8 13.1998825 4.8 16 7.60011746 16 10.4000783 13.1998825 13.2000392 16 13.2000392 15.9998434 13.2000392 16 16 16 16 13.1998825 13.2000392 10.3999217 16 7.59996085 16 4.8 13.2000392 4.8"></polygon>
                <path d="M2,4 C0.895427939,4 0,3.10457206 0,2 C0,0.895427939 0.895427939,0 2,0 C3.10457206,0 4,0.895427939 4,2 C4,3.10457206 3.10457206,4 2,4" id="Fill-8"></path>
            </g>
        </g>
    </g>
</svg>