<svg xmlns="http://www.w3.org/2000/svg" viewBox="0 0 25.48 25.51"><defs><style>.cls-1{fill:#212121;}.cls-1,.cls-10,.cls-2,.cls-3,.cls-4,.cls-5,.cls-6,.cls-7,.cls-8,.cls-9{fill-rule:evenodd;}.cls-2{fill:#cf3582;}.cls-3{fill:#972c45;}.cls-4{fill:#5cbde3;}.cls-5{fill:#f3c444;}.cls-6{fill:#31699c;}.cls-7{fill:#50a44d;}.cls-8{fill:#e0a650;}.cls-9{fill:#d33b44;}.cls-10{fill:#231f20;}</style></defs><title>Asset 1</title><g id="Layer_2" data-name="Layer 2"><g id="Layer_1-2" data-name="Layer 1"><path class="cls-1" d="M20.44,9.52l-.11.12c-.3.31-.62.62-.93.92l-1,1-1,1c-.08.09-.08.1,0,.18l.86.85a3.7,3.7,0,0,0,.28.28L19.73,15l.66.66.09.1-.17,0H16.15c-.1,0-.11,0-.11.12v.92c0,.82,0,1.63,0,2.45,0,.28,0,.56,0,.83,0,.05,0,.1,0,.16L16,20.24l-.38-.37L14.72,19l-.83-.83-.74-.75-.3-.28-.22.21c-.37.36-.73.73-1.1,1.1L10,20a2.39,2.39,0,0,1-.22.23l-.09.06c0-.07,0-.12,0-.17,0-.64,0-1.28,0-1.92V15.9c0-.08,0-.09-.11-.09H5.38a.24.24,0,0,1-.18,0,6.25,6.25,0,0,1,.44-.45l.46-.45.45-.44L7,14l.45-.44.46-.45.44-.46a3.68,3.68,0,0,0-.39-.4,4.89,4.89,0,0,0-.39-.4l-.39-.39L6.79,11l-.4-.39L6,10.26l-.4-.4a2.61,2.61,0,0,1-.38-.42l.16,0,.83,0H8.42l.47,0,.38,0h.3c.09,0,.13,0,.13-.13,0-.59,0-1.19,0-1.78V5a.23.23,0,0,1,.14.09l.91.93.49.49.86.87c.23.22.45.45.68.68l.06.06a1.67,1.67,0,0,0,.31-.28l.68-.67.87-.88.45-.44.56-.55L16,5.09a.86.86,0,0,1,0,.18c0,.49,0,1,0,1.46,0,.26,0,.51,0,.77s0,.34,0,.51v.83c0,.18,0,.37,0,.55s0,.1.11.11h4.17l.15,0m-12,1.28.09.11.53.53.89.9.23.24v.13L9.93,13l-.55.55-.83.82-.07.1h2.4c.15,0,.16,0,.16.18v2.26a1,1,0,0,0,0,.12c.61-.59,1.19-1.19,1.79-1.76l.12.1.47.51c.14.14.3.26.44.39l.68.67.12.1V14.6c0-.12,0-.14.14-.13l.07,0h2.24l.09,0-.07-.07c-.11-.12-.23-.23-.35-.35-.35-.36-.71-.71-1.07-1.07l-.24-.25c-.06-.06-.05-.09,0-.15l.08-.07.62-.62.13-.13.26-.27.06,0,.05-.13.22-.23.27-.29-.14,0H14.8c-.11,0-.12,0-.12-.12v-1c0-.46,0-.91,0-1.37a1,1,0,0,0,0-.12l-1.78,1.8-.1-.09q-.19-.18-.39-.39l-.9-.9-.33-.32s-.05-.07-.12,0v.77c0,.52,0,1,0,1.56,0,.12,0,.15-.14.15H8.47Zm2-.15,0,0-.05.06,0,0Zm4.34-3.83h0v0l0,0h0Z"/><path class="cls-2" d="M8.38,23.44l-.15,0H7c-.12,0-.12,0-.12-.13V20.87c0-.62,0-1.23,0-1.85v-.21c0-.07,0-.09-.1-.09H5.87a.09.09,0,0,0-.09.1c0,.14,0,.29,0,.43v1.21c0,.53,0,1.06,0,1.58v.12c0,.06,0,.1-.1.1H4.94l-.54,0H4.35c-.1,0-.12,0-.12-.12s0-.42,0-.62v-.78c0-.36,0-.72,0-1.09v-.83c0-.1,0-.11-.11-.11-.3,0-.61,0-.92,0H2.92a1.2,1.2,0,0,1-.27-.08,1.07,1.07,0,0,1-.52-.51.86.86,0,0,1-.08-.36c0-.18,0-.36,0-.54s0-.15.15-.15H8.31c.08,0,.1,0,.1.11,0,.27,0,.54,0,.82v5.31Z"/><path class="cls-3" d="M16.29,24.47,15.84,24l-2-2-.71-.72-.07-.07c-.06,0-.1-.06-.15,0s-.29.28-.42.42l-.24.26c-.06.06-.06.08,0,.14l.69.68,1.18,1.2.44.44c.08.08.08.09,0,.18l-.28.3c-.19.19-.37.39-.55.59s-.13.1-.23,0l-1-1.05-.9-.93c-.11-.12-.23-.24-.35-.35s-.1-.08-.17,0l-.73.74L10.2,24a.93.93,0,0,1-.63.25,1,1,0,0,1-.47-.12,1.31,1.31,0,0,1-.36-.3c-.07-.09-.15-.16-.22-.24s-.09-.11,0-.19l.63-.64.82-.83,1.17-1.18.75-.76.72-.74.2-.18c.07-.07.1-.07.18,0l.29.3.59.58,1.41,1.42,1.08,1.08.9.9c.08.08.08.1,0,.18l-.51.51-.32.33Z"/><path class="cls-4" d="M4.35,12.7l-.8-.81L3.42,12l-.7.69-1,1-.54.54c-.11.11-.11.11-.22,0S.64,14,.51,13.84l-.45-.45c-.08-.08-.08-.1,0-.18l.6-.58L2,11.33l.4-.39.09-.1-.3-.29q-.28-.3-.57-.57a.82.82,0,0,1-.19-.28,1,1,0,0,1,.08-.95,2.24,2.24,0,0,1,.3-.32c.08-.09.18-.17.29-.27l.14.16a3.41,3.41,0,0,0,.38.38c.33.29.63.61.94.92s.83.82,1.24,1.23l.7.72.43.44.45.45.07.07c.08.08.08.1,0,.18L6.14,13l-1.23,1.2-1,1L2.45,16.65,2.12,17c-.07.07-.1.07-.17,0s-.27-.26-.4-.4l-.49-.51C1,16,1,16,1.07,15.92l.61-.6.64-.63L3,14.06l.49-.49.81-.79Z"/><path class="cls-5" d="M18.93,18.59c0,.12,0,.23,0,.34s0,.43,0,.65,0,.14.14.14h3.24l.07.09v.83c0,.14,0,.27,0,.4s0,.14-.13.14H19.86l-.78,0c-.11,0-.12,0-.12.13v.37c0,.26,0,.53,0,.79a.77.77,0,0,1-.11.39,1.22,1.22,0,0,1-.61.49l-.11,0h-.67c-.08,0-.11,0-.11-.1a1.48,1.48,0,0,1,0-.21c0-.77,0-1.55,0-2.32,0-.39,0-.78,0-1.17,0-.56,0-1.13,0-1.7,0-.22,0-.44,0-.67s0-.14.14-.14h6c.06,0,.09,0,.09.1s0,.36,0,.54,0,.41,0,.62v.13l-.07.08H19.1l-.17,0"/><path class="cls-6" d="M8.41,7V8.09l-.08.08H8.25l-.62,0H6.4l-1.47,0H3c-.22,0-.45,0-.68,0h0c-.13,0-.14,0-.14-.15V6.71l.07-.07h.26a2.68,2.68,0,0,0,.4,0,8.34,8.34,0,0,1,1,0c.21,0,.43,0,.65,0H6.71c.08,0,.09,0,.1-.11V5.71c0-.12,0-.13-.14-.14H5.19l-1.69,0H3.43c-.09,0-.11,0-.11-.12,0-.26,0-.52,0-.77s0-.27,0-.4V4.18c0-.12,0-.14.14-.13l.9,0c.18,0,.35,0,.53,0,.58,0,1.16,0,1.74,0h.06c.08,0,.11,0,.11-.11s0-.27,0-.41V2.86a.9.9,0,0,1,.34-.67A1,1,0,0,1,7.58,2H8.3c.11,0,.11,0,.11.14V7ZM5.39,5l0,0,0,0,0,0Z"/><path class="cls-7" d="M24.5,11l.1.09.77.77c.15.15.15.15,0,.3l-.62.62-1,1-.56.57c-.07.07-.08.09,0,.16l.31.32.55.56a.71.71,0,0,1,.16.34l0,.09a.46.46,0,0,1,0,.26,1.17,1.17,0,0,1-.19.49l0,0a2.4,2.4,0,0,0-.38.4c-.07.08-.1.08-.17,0l-.61-.6-.5-.5L21.44,15l-.65-.65-.68-.68-.49-.48-.39-.39c-.1-.09-.1-.12,0-.22l1.28-1.29,1.13-1.13c.29-.3.59-.6.89-.89s.57-.57.86-.85c.09-.09.09-.09.18,0l.81.82.06.06v.11l-.1.09L23,10.83,21.84,12l-.49.5c-.07.07-.07.09,0,.15l.63.64c.1.09.1.09.19,0l.84-.84c.36-.36.71-.72,1.07-1.07l.33-.34Z"/><path class="cls-8" d="M19.83,3.25h1.35c.09,0,.11,0,.11.12v.52c0,.73,0,1.46,0,2.19v.44c0,.12,0,.13.13.13h.8a2.14,2.14,0,0,1,.36,0,1.38,1.38,0,0,1,.34.12.93.93,0,0,1,.47.54.67.67,0,0,1,0,.24c0,.17,0,.34,0,.51v.06c0,.09,0,.11-.12.11H17.38c-.09,0-.11,0-.11-.11V7.05c0-.22,0-.43,0-.65V2.63c0-.15,0-.31,0-.46s0-.11.12-.11H18.6c.1,0,.11,0,.11.12s0,.28,0,.42V4.72c0,.55,0,1.11,0,1.66v.14c0,.12,0,.12.12.12h.85c.12,0,.13,0,.13-.12V3.83c0-.15,0-.29,0-.43Z"/><path class="cls-9" d="M14.57,2.41l.58-.58c.11-.1.21-.22.33-.31a1.87,1.87,0,0,1,.35-.16h.07a.8.8,0,0,1,.46,0,.88.88,0,0,1,.26.12,1.24,1.24,0,0,1,.21.19l.27.28c.09.09.09.1,0,.18-.3.3-.58.6-.88.89s-.64.65-1,1-.46.47-.69.69l-.67.64-.6.61-.45.44-.13-.1-.83-.83-.65-.66L9.82,3.34c-.29-.28-.57-.57-.85-.86a1.14,1.14,0,0,1-.19-.19A.55.55,0,0,0,8.53,2l-.08-.11.3-.3c.21-.21.42-.41.64-.6s.1-.08.18,0l.41.4,1,1,1.11,1.13c.21.22.42.42.63.63l.05,0,.42-.4.29-.3c.07-.06.07-.08,0-.15L13.06,3,11.81,1.68l-.56-.55-.05-.06c-.07-.09-.08-.1,0-.19a1.37,1.37,0,0,1,.17-.17L12,.07c.1-.09.12-.09.21,0l.6.62.77.78.84.84Z"/><polygon class="cls-10" points="10.51 10.65 10.46 10.7 10.43 10.68 10.48 10.62 10.51 10.65"/><polygon class="cls-10" points="14.85 6.82 14.8 6.76 14.81 6.75 14.85 6.77 14.86 6.81 14.85 6.82"/><polygon class="cls-10" points="5.39 5.04 5.37 5.06 5.34 5.04 5.36 5.03 5.39 5.04"/></g></g></svg>