<?xml version="1.0" encoding="UTF-8"?>
<svg width="10px" height="17px" viewBox="0 0 10 17" version="1.1" xmlns="http://www.w3.org/2000/svg" xmlns:xlink="http://www.w3.org/1999/xlink">
    <!-- Generator: Sketch 51.3 (57544) - http://www.bohemiancoding.com/sketch -->
    <title>facebook-logo@3x</title>
    <desc>Created with Sketch.</desc>
    <defs></defs>
    <g id="SDG-Futures-Register" stroke="none" stroke-width="1" fill="none" fill-rule="evenodd">
        <g id="Ventures-02" transform="translate(-1203.000000, -1499.000000)" fill="#4C4C4C" fill-rule="nonzero">
            <g id="facebook-logo" transform="translate(1203.000000, 1499.000000)">
                <path d="M8.72524261,0.00353713471 L6.55056155,0 C4.10738196,0 2.52849199,1.64211479 2.52849199,4.18372294 L2.52849199,6.11269935 L0.341947443,6.11269935 C0.153004034,6.11269935 0,6.26797957 0,6.45951541 L0,9.25438241 C0,9.44591825 0.153178497,9.60102161 0.341947443,9.60102161 L2.52849199,9.60102161 L2.52849199,16.6533608 C2.52849199,16.8448966 2.68149602,17 2.87043943,17 L5.7232581,17 C5.9122015,17 6.06520554,16.8447198 6.06520554,16.6533608 L6.06520554,9.60102161 L8.62178606,9.60102161 C8.81072947,9.60102161 8.96373351,9.44591825 8.96373351,9.25438241 L8.96478029,6.45951541 C8.96478029,6.36754991 8.92866645,6.27947526 8.86463853,6.21439198 C8.80061062,6.1493087 8.71337913,6.11269935 8.62265838,6.11269935 L6.06520554,6.11269935 L6.06520554,4.47748198 C6.06520554,3.69153064 6.24996184,3.29254185 7.25992803,3.29254185 L8.72489369,3.29201128 C8.91366263,3.29201128 9.06666667,3.13673106 9.06666667,2.94537208 L9.06666667,0.350176337 C9.06666667,0.158994205 8.9138371,0.00389084818 8.72524261,0.00353713471 Z" id="Shape"></path>
            </g>
        </g>
    </g>
</svg>