<?xml version="1.0" encoding="UTF-8"?>
<svg width="21px" height="17px" viewBox="0 0 21 17" version="1.1" xmlns="http://www.w3.org/2000/svg" xmlns:xlink="http://www.w3.org/1999/xlink">
    <!-- Generator: Sketch 51.3 (57544) - http://www.bohemiancoding.com/sketch -->
    <title>icon-github@2x</title>
    <desc>Created with Sketch.</desc>
    <defs></defs>
    <g id="SDG-Futures-Register" stroke="none" stroke-width="1" fill="none" fill-rule="evenodd">
        <g id="Ventures-02" transform="translate(-1283.000000, -1499.000000)" fill="#4C4C4C" fill-rule="nonzero">
            <path d="M1283,1507.75676 C1283,1508.70439 1283.089,1509.56182 1283.26705,1510.32893 C1283.44502,1511.09597 1283.69148,1511.76243 1284.0064,1512.32836 C1284.32132,1512.89429 1284.72179,1513.39204 1285.20787,1513.82157 C1285.69391,1514.25115 1286.22108,1514.60229 1286.78927,1514.875 C1287.35746,1515.14767 1288.00612,1515.36924 1288.73521,1515.53975 C1289.46431,1515.71021 1290.20882,1515.82953 1290.96872,1515.89775 C1291.72862,1515.96593 1292.56382,1516 1293.47432,1516 C1294.39168,1516 1295.23033,1515.96593 1295.99026,1515.89775 C1296.75008,1515.82953 1297.4964,1515.71017 1298.2289,1515.53975 C1298.96131,1515.36924 1299.61342,1515.14767 1300.18505,1514.875 C1300.75673,1514.60225 1301.28727,1514.25115 1301.77683,1513.82157 C1302.26639,1513.39204 1302.67019,1512.89421 1302.98855,1512.32836 C1303.30684,1511.76243 1303.55502,1511.09601 1303.73299,1510.32893 C1303.911,1509.5619 1304,1508.70439 1304,1507.75676 C1304,1506.06579 1303.43177,1504.60329 1302.29543,1503.36919 C1302.35704,1503.20554 1302.41352,1503.01976 1302.46487,1502.81175 C1302.51622,1502.60379 1302.56412,1502.30722 1302.60859,1501.92201 C1302.65313,1501.53672 1302.63598,1501.0919 1302.55723,1500.58733 C1302.47857,1500.08272 1302.33308,1499.56801 1302.12071,1499.04293 L1301.96673,1499.01225 C1301.85714,1498.99183 1301.67737,1498.99693 1301.42754,1499.02761 C1301.17771,1499.05829 1300.88671,1499.11965 1300.55477,1499.21172 C1300.22271,1499.30375 1299.79487,1499.48108 1299.2711,1499.74358 C1298.74733,1500.00608 1298.19453,1500.33504 1297.6126,1500.73051 C1296.61317,1500.45776 1295.2405,1500.32136 1293.49479,1500.32136 C1291.75589,1500.32136 1290.38671,1500.45776 1289.3872,1500.73051 C1288.80527,1500.335 1288.24902,1500.00608 1287.71848,1499.74358 C1287.18794,1499.48108 1286.76523,1499.30375 1286.45032,1499.21176 C1286.13544,1499.11969 1285.84103,1499.06005 1285.56721,1499.03276 C1285.29335,1499.00547 1285.12047,1498.99697 1285.04861,1499.00719 C1284.97675,1499.0174 1284.92023,1499.02937 1284.87917,1499.04297 C1284.66696,1499.56805 1284.52147,1500.08272 1284.44277,1500.58737 C1284.36406,1501.09195 1284.34691,1501.5368 1284.39141,1501.92205 C1284.43592,1502.30726 1284.48386,1502.60383 1284.53517,1502.81179 C1284.58653,1503.0198 1284.643,1503.20558 1284.70461,1503.36923 C1283.56823,1504.60329 1283,1506.06579 1283,1507.75676 Z M1285.5775,1510.32383 C1285.5775,1509.34201 1286.02593,1508.44197 1286.92273,1507.62379 C1287.18971,1507.37821 1287.50122,1507.19246 1287.85719,1507.06636 C1288.21317,1506.94018 1288.61537,1506.86861 1289.06379,1506.85153 C1289.51221,1506.8345 1289.94177,1506.83789 1290.35254,1506.86179 C1290.76327,1506.88564 1291.2699,1506.91804 1291.87234,1506.95893 C1292.47477,1506.99986 1292.9951,1507.02028 1293.43323,1507.02028 C1293.8714,1507.02028 1294.39168,1506.99986 1294.99412,1506.95893 C1295.5966,1506.91804 1296.10314,1506.88564 1296.51403,1506.86179 C1296.92476,1506.83789 1297.35428,1506.8345 1297.80274,1506.85153 C1298.25121,1506.86861 1298.65333,1506.94018 1299.00942,1507.06636 C1299.36536,1507.1925 1299.67679,1507.37825 1299.9438,1507.62379 C1300.84061,1508.42833 1301.28907,1509.32836 1301.28907,1510.32383 C1301.28907,1510.91018 1301.21545,1511.43008 1301.0682,1511.88355 C1300.92104,1512.33706 1300.73278,1512.71708 1300.50338,1513.02386 C1300.27402,1513.33068 1299.95574,1513.59151 1299.54841,1513.80625 C1299.14104,1514.02104 1298.74405,1514.18636 1298.35728,1514.30241 C1297.97042,1514.4183 1297.47409,1514.50866 1296.8682,1514.57345 C1296.26228,1514.63824 1295.72145,1514.67745 1295.24567,1514.69106 C1294.7698,1514.7047 1294.16572,1514.71152 1293.43323,1514.71152 C1292.70073,1514.71152 1292.09657,1514.7047 1291.62079,1514.69106 C1291.14501,1514.67745 1290.60413,1514.63824 1289.99829,1514.57345 C1289.39245,1514.50866 1288.89612,1514.4183 1288.5093,1514.30241 C1288.12252,1514.18636 1287.72545,1514.021 1287.31813,1513.80625 C1286.9108,1513.59151 1286.59244,1513.33072 1286.36312,1513.02386 C1286.1338,1512.71704 1285.9455,1512.33706 1285.79833,1511.88355 C1285.65109,1511.43008 1285.5775,1510.9101 1285.5775,1510.32383 Z M1296.125,1510.11766 C1296.125,1511.20058 1296.71259,1512.07844 1297.4375,1512.07844 C1298.16241,1512.07844 1298.75,1511.20058 1298.75,1510.11766 C1298.75,1509.03474 1298.16241,1508.15688 1297.4375,1508.15688 C1296.71259,1508.15688 1296.125,1509.03474 1296.125,1510.11766 Z M1288.25,1510.11766 C1288.25,1511.20058 1288.83763,1512.07844 1289.5625,1512.07844 C1290.28737,1512.07844 1290.875,1511.20058 1290.875,1510.11766 C1290.875,1509.03474 1290.28737,1508.15688 1289.5625,1508.15688 C1288.83763,1508.15688 1288.25,1509.03474 1288.25,1510.11766 Z" id="icon-github"></path>
        </g>
    </g>
</svg>