<?xml version="1.0" encoding="UTF-8"?>
<svg width="17px" height="17px" viewBox="0 0 17 17" version="1.1" xmlns="http://www.w3.org/2000/svg" xmlns:xlink="http://www.w3.org/1999/xlink">
    <!-- Generator: Sketch 51.3 (57544) - http://www.bohemiancoding.com/sketch -->
    <title>instagram-logo@3x</title>
    <desc>Created with Sketch.</desc>
    <defs></defs>
    <g id="SDG-Futures-Register" stroke="none" stroke-width="1" fill="none" fill-rule="evenodd">
        <g id="Ventures-02" transform="translate(-1105.000000, -1499.000000)" fill="#4C4C4C" fill-rule="nonzero">
            <g id="instagram-logo" transform="translate(1105.000000, 1499.000000)">
                <path d="M12.308514,0 L4.69128485,0 C2.10451195,0 0,2.10461251 0,4.69138541 L0,12.3086146 C0,14.895488 2.10451195,17 4.69128485,17 L12.308514,17 C14.895488,17 17,14.8953875 17,12.3086146 L17,4.69138541 C17.0001006,2.10461251 14.895488,0 12.308514,0 Z M15.4917782,12.3086146 C15.4917782,14.0637991 14.0637991,15.4916776 12.3086146,15.4916776 L4.69128485,15.4916776 C2.93620092,15.4917782 1.50832239,14.0637991 1.50832239,12.3086146 L1.50832239,4.69138541 C1.50832239,2.93630148 2.93620092,1.50832239 4.69128485,1.50832239 L12.308514,1.50832239 C14.0636985,1.50832239 15.4916776,2.93630148 15.4916776,4.69138541 L15.4916776,12.3086146 L15.4917782,12.3086146 Z" id="Shape"></path>
                <path d="M8.5,4 C6.01866263,4 4,6.01870897 4,8.5001033 C4,10.9813943 6.01866263,13 8.5,13 C10.9813374,13 13,10.9813943 13,8.5001033 C13,6.01870897 10.9813374,4 8.5,4 Z M8.5,11.4503811 C6.87314923,11.4503811 5.54948006,10.1268881 5.54948006,8.5 C5.54948006,6.87300859 6.87304593,5.54941233 8.5,5.54941233 C10.1269541,5.54941233 11.4505199,6.87300859 11.4505199,8.5 C11.4505199,10.1268881 10.1268508,11.4503811 8.5,11.4503811 Z" id="Shape"></path>
                <path d="M13,3 C12.7372727,3 12.4791818,3.10636364 12.2936364,3.29272727 C12.1071818,3.47818182 12,3.73636364 12,4 C12,4.26281818 12.1072727,4.52090909 12.2936364,4.70727273 C12.4790909,4.89272727 12.7372727,5 13,5 C13.2636364,5 13.5209091,4.89272727 13.7072727,4.70727273 C13.8936364,4.52090909 14,4.26272727 14,4 C14,3.73636364 13.8936364,3.47818182 13.7072727,3.29272727 C13.5218182,3.10636364 13.2636364,3 13,3 Z" id="Shape"></path>
            </g>
        </g>
    </g>
</svg>