<?xml version="1.0" encoding="UTF-8"?>
<svg width="16px" height="17px" viewBox="0 0 16 17" version="1.1" xmlns="http://www.w3.org/2000/svg" xmlns:xlink="http://www.w3.org/1999/xlink">
    <!-- Generator: Sketch 51.3 (57544) - http://www.bohemiancoding.com/sketch -->
    <title>Group 7</title>
    <desc>Created with Sketch.</desc>
    <defs>
        <polygon id="path-1" points="5.426185e-06 0.0168094502 9.98088037 0.0168094502 9.98088037 11.2 5.426185e-06 11.2"></polygon>
        <polygon id="path-3" points="0.0142646009 0.0286504298 9.96956713 0.0286504298 9.96956713 10.9808083 0.0142646009 10.9808083"></polygon>
    </defs>
    <g id="SDG-Futures-Register" stroke="none" stroke-width="1" fill="none" fill-rule="evenodd">
        <g id="Ventures-02" transform="translate(-1315.000000, -1499.000000)">
            <g id="Group-7" transform="translate(1315.000000, 1499.000000)">
                <g id="Group-3" transform="translate(0.000000, 5.000000)">
                    <mask id="mask-2" fill="white">
                        <use xlink:href="#path-1"></use>
                    </mask>
                    <g id="Clip-2"></g>
                    <path d="M9.67226625,1.14283448 C9.4844644,0.946448276 9.2762291,0.772365517 9.05143034,0.623772414 C8.45601238,0.227427586 7.76381424,0.016816092 7.05678638,0.016816092 C6.07545511,0.0149172414 5.134,0.420241379 4.4413065,1.14283448 L1.08081115,4.63894023 C0.389294118,5.35918391 0.000625386997,6.33503218 6.19195046e-06,7.35262299 C-0.00129411765,9.47611724 1.65356656,11.1986322 3.69629102,11.1999839 C4.67610526,11.2035241 5.6166935,10.8000989 6.30913932,10.079469 L9.08313313,7.1957908 C9.1335356,7.14384598 9.16167802,7.07297701 9.16127554,6.99921149 C9.16043963,6.84752874 9.0414613,6.72529425 8.89554799,6.72613103 L8.78988235,6.72613103 C8.21031579,6.72828736 7.6359195,6.61258621 7.0990774,6.3855931 C7.00016099,6.34330345 6.88647678,6.36718391 6.81112074,6.4460023 L4.81647678,8.52228276 C4.19709598,9.16615402 3.19288545,9.16615402 2.57350464,8.52228276 C1.95412384,7.87841149 1.95412384,6.83449425 2.57350464,6.19062299 L5.94721981,2.68627816 C6.56610526,2.04372644 7.56867492,2.04372644 8.18756037,2.68627816 C8.60465015,3.09433793 9.25523839,3.09433793 9.67229721,2.68627816 C9.85173994,2.49957931 9.96053251,2.25195632 9.97873684,1.98869195 C9.99802477,1.67409425 9.88644582,1.3659977 9.67226625,1.14283448" id="Fill-1" fill="#4C4C4C" mask="url(#mask-2)"></path>
                </g>
                <g id="Group-6" transform="translate(6.000000, 0.000000)">
                    <mask id="mask-4" fill="white">
                        <use xlink:href="#path-3"></use>
                    </mask>
                    <g id="Clip-5"></g>
                    <path d="M8.88955556,1.1315533 C7.44955556,-0.339011175 5.1147716,-0.339011175 3.67474074,1.1315533 L0.911932099,3.95023238 C0.836067901,4.02808338 0.814185185,4.14517507 0.856623457,4.24609771 C0.898567901,4.34730401 0.996623457,4.4122639 1.10418519,4.41015215 L1.20165432,4.41015215 C1.77872222,4.40908052 2.35045062,4.52327249 2.88458642,4.74636132 C2.9832284,4.78780831 3.09656173,4.76442149 3.17165432,4.68720086 L5.1548642,2.6646192 C5.7723642,2.03405759 6.77344444,2.03405759 7.39091358,2.6646192 C8.00838272,3.2951808 8.00838272,4.31751891 7.39091358,4.94808052 L4.92045062,7.46821519 L4.89940123,7.49242149 L4.03551235,8.36923811 C3.41853704,8.99853897 2.41906173,8.99853897 1.80208642,8.36923811 C1.38631481,7.96961347 0.737703704,7.96961347 0.321932099,8.36923811 C0.141901235,8.55349599 0.033382716,8.79808052 0.0164074074,9.05779398 C-0.00285185185,9.36585702 0.10841358,9.66758481 0.321932099,9.88616648 C0.626808642,10.1988312 0.983444444,10.4537854 1.37541975,10.639241 C1.4307284,10.6661264 1.48603704,10.6876536 1.54134568,10.7118599 C1.59665432,10.7360977 1.65458642,10.7548828 1.70989506,10.77641 C1.7652037,10.7979372 1.8231358,10.8167539 1.87844444,10.8328914 L2.03384568,10.8759143 C2.13918519,10.9028312 2.24455556,10.9243269 2.35251852,10.9431436 C2.48258025,10.9628742 2.6135679,10.9754501 2.74495679,10.9808083 L2.92933951,10.9808083 L2.94511111,10.9808083 L3.10316667,10.9620232 C3.1610679,10.9593441 3.22165432,10.9458542 3.29014198,10.9458542 L3.37967901,10.9458542 L3.56140741,10.9189688 L3.6457284,10.9028628 L3.79847531,10.8705562 L3.82742593,10.8705562 C4.47437037,10.7046421 5.06514198,10.362539 5.53671605,9.88077679 L8.88946296,6.45694011 C10.3295864,4.98637564 10.3295864,2.60211777 8.88955556,1.1315533" id="Fill-4" fill="#4C4C4C" mask="url(#mask-4)"></path>
                </g>
            </g>
        </g>
    </g>
</svg>