<?xml version="1.0" encoding="UTF-8"?>
<svg width="17px" height="17px" viewBox="0 0 17 17" version="1.1" xmlns="http://www.w3.org/2000/svg" xmlns:xlink="http://www.w3.org/1999/xlink">
    <!-- Generator: Sketch 51.3 (57544) - http://www.bohemiancoding.com/sketch -->
    <title>world-url@3x</title>
    <desc>Created with Sketch.</desc>
    <defs></defs>
    <g id="SDG-Futures-Register" stroke="none" stroke-width="1" fill="none" fill-rule="evenodd">
        <g id="Ventures-02" transform="translate(-1249.000000, -1499.000000)" fill="#4C4C4C" fill-rule="nonzero">
            <g id="world-url" transform="translate(1249.000000, 1499.000000)">
                <path d="M15.2760938,3.70175 L15.0264063,3.78090625 L13.6966875,3.899375 L13.3210937,4.49915625 L13.0485625,4.4125625 L11.9903125,3.4584375 L11.8367812,2.96225 L11.6311875,2.433125 L10.9660625,1.83653125 L10.1814062,1.683 L10.1633437,2.042125 L10.9320625,2.79225 L11.3081875,3.2353125 L10.8853125,3.4563125 L10.5410625,3.35484375 L10.0252187,3.1396875 L10.04275,2.72371875 L9.3659375,2.44534375 L9.14121875,3.423375 L8.45909375,3.57796875 L8.5265625,4.1235625 L9.41534375,4.294625 L9.568875,3.42284375 L10.3025312,3.53121875 L10.6435937,3.73096875 L11.1907813,3.73096875 L11.5653125,4.48109375 L12.5582187,5.48834375 L12.4854375,5.879875 L11.6848437,5.777875 L10.3014687,6.47646875 L9.305375,7.67125 L9.17575,8.200375 L8.81821875,8.200375 L8.15203125,7.8933125 L7.50496875,8.200375 L7.6659375,8.88303125 L7.9475,8.5584375 L8.442625,8.54303125 L8.40809375,9.15609375 L8.81821875,9.27615625 L9.2278125,9.73621875 L9.89665625,9.54815625 L10.6605937,9.66875 L11.5477812,9.90728125 L11.9908437,9.95934375 L12.7420312,10.812 L14.1918125,11.6646563 L13.2541562,13.4560313 L12.2644375,13.9160937 L11.8888437,14.9398125 L10.4565937,15.8960625 L10.304125,16.4475 C13.9655,15.565625 16.6892187,12.2766563 16.6892187,8.34434375 C16.6881562,6.6268125 16.1675313,5.02828125 15.2760938,3.70175 Z" id="Shape"></path>
                <path d="M9.30484375,12.7059063 L8.69709375,11.579125 L9.25490625,10.41675 L8.69709375,10.2499375 L8.07075,9.6209375 L6.683125,9.309625 L6.22253125,8.3459375 L6.22253125,8.91809375 L6.01959375,8.91809375 L4.82375,7.29671875 L4.82375,5.964875 L3.9471875,4.53953125 L2.5553125,4.787625 L1.61765625,4.787625 L1.14590625,4.4784375 L1.7478125,4.001375 L1.1475,4.14003125 C0.4239375,5.37571875 0.002125,6.8095625 0.002125,8.34540625 C0.002125,12.9529375 3.73734375,16.68975 8.34540625,16.68975 C8.70028125,16.68975 9.04825,16.6584063 9.3925,16.6169688 L9.305375,15.606 C9.305375,15.606 9.68840625,14.1046875 9.68840625,14.0536875 C9.687875,14.0021563 9.30484375,12.7059063 9.30484375,12.7059063 Z" id="Shape"></path>
                <path d="M3.1025,2.69078125 L4.5846875,2.484125 L5.267875,2.10959375 L6.03659375,2.331125 L7.26484375,2.263125 L7.68559375,1.60171875 L8.2991875,1.70265625 L9.78934375,1.5629375 L10.2,1.1103125 L10.7790625,0.7235625 L11.59825,0.8468125 L11.8968125,0.80165625 C10.8178437,0.29378125 9.61721875,0 8.344875,0 C5.75503125,0 3.4393125,1.1804375 1.910375,3.03396875 L1.914625,3.03396875 L3.1025,2.69078125 Z M8.697625,0.8298125 L9.54975,0.36071875 L10.0969375,0.6768125 L9.30484375,1.27978125 L8.54834375,1.35575 L8.2078125,1.13475 L8.697625,0.8298125 Z M6.17365625,0.89834375 L6.54978125,1.0550625 L7.04225,0.89834375 L7.31053125,1.3631875 L6.17365625,1.66175 L5.627,1.3419375 C5.62646875,1.3419375 6.1614375,0.9976875 6.17365625,0.89834375 Z" id="Shape"></path>
            </g>
        </g>
    </g>
</svg>