<?xml version="1.0" encoding="UTF-8"?>
<svg width="13px" height="16px" viewBox="0 0 13 16" version="1.1" xmlns="http://www.w3.org/2000/svg" xmlns:xlink="http://www.w3.org/1999/xlink">
    <!-- Generator: Sketch 51.3 (57544) - http://www.bohemiancoding.com/sketch -->
    <title>youtube-logo</title>
    <desc>Created with Sketch.</desc>
    <defs></defs>
    <g id="SDG-Futures-Register" stroke="none" stroke-width="1" fill="none" fill-rule="evenodd">
        <g id="Projects-Public-Two" transform="translate(-382.000000, -1701.000000)" fill="#4C4C4C" fill-rule="nonzero">
            <g id="youtube-logo" transform="translate(382.000000, 1701.000000)">
                <path d="M12.7533066,8.10586792 C12.6775448,7.76145991 12.5095873,7.47263915 12.2499858,7.23928302 C11.9901698,7.00592689 11.6911392,6.86875236 11.3525566,6.82788208 C10.2788302,6.71118868 8.65944104,6.65287264 6.49420519,6.65287264 C4.32903066,6.65287264 2.71252358,6.71121934 1.64453066,6.82788208 C1.3003066,6.86875236 0.999773585,7.00592689 0.742900943,7.23928302 C0.486089623,7.47273113 0.31684434,7.76158255 0.235103774,8.10586792 C0.0833962264,8.78294104 0.00751179245,9.80417689 0.00751179245,11.1697901 C0.00751179245,12.5586745 0.0833962264,13.5800024 0.235103774,14.2336816 C0.311080189,14.5778443 0.478884434,14.8669104 0.73857783,15.1001745 C0.998271226,15.3336226 1.29736321,15.4678231 1.63579245,15.5028679 C2.70970283,15.6254175 4.32921462,15.6867075 6.49426651,15.6867075 C8.65916509,15.6867075 10.2789835,15.6254175 11.3524953,15.5028679 C11.6910778,15.4678231 11.9886368,15.3336226 12.2455094,15.1001745 C12.5023514,14.866941 12.6715967,14.5778443 12.7532453,14.2336816 C12.9049528,13.5566085 12.9809292,12.5353726 12.9809292,11.1697901 C12.9808986,9.780875 12.9049222,8.75951651 12.7533066,8.10586792 Z M3.71067217,8.99017453 L2.7740283,8.99017453 L2.7740283,13.9709528 L1.89870519,13.9709528 L1.89870519,8.99017453 L0.979507075,8.99017453 L0.979507075,8.16734198 L3.71070283,8.16734198 L3.71070283,8.99017453 L3.71067217,8.99017453 Z M6.07412736,13.9709528 L5.29504717,13.9709528 L5.29504717,13.4981392 C4.97991981,13.8542594 4.68217689,14.0322123 4.40206368,14.0322123 C4.13366274,14.0322123 3.96438679,13.9241651 3.89445047,13.708316 C3.84781604,13.5682594 3.82436085,13.3551392 3.82436085,13.0692311 L3.82436085,9.64658255 L4.60344104,9.64658255 L4.60344104,12.8329316 C4.60344104,13.019592 4.60638443,13.121783 4.61227123,13.1393208 C4.6297783,13.2618703 4.69100708,13.3231297 4.79611085,13.3231297 C4.95364387,13.3231297 5.1200684,13.2005802 5.29507783,12.9554811 L5.29507783,9.64658255 L6.07415802,9.64658255 L6.07415802,13.9709528 L6.07412736,13.9709528 Z M9.05042217,12.6753373 C9.05042217,13.1013325 9.02420755,13.3933113 8.9719316,13.5509363 C8.87246934,13.8717052 8.66545047,14.0322123 8.35035377,14.0322123 C8.07020991,14.0322123 7.79889623,13.8717052 7.53613679,13.5509363 L7.53613679,13.9710448 L6.75717925,13.9710448 L6.75717925,8.16734198 L7.53613679,8.16734198 L7.53613679,10.0669057 C7.78721462,9.7519316 8.05846698,9.59433726 8.35035377,9.59433726 C8.66545047,9.59433726 8.87246934,9.75778774 8.9719316,10.0845354 C9.02417689,10.2362429 9.05042217,10.5250943 9.05042217,10.9511203 L9.05042217,12.6753373 Z M12.0092099,11.9576392 L10.442342,11.9576392 L10.442342,12.7192123 C10.442342,13.1219057 10.5764505,13.3231297 10.8449434,13.3231297 C11.0374599,13.3231297 11.1542759,13.2182099 11.1950849,13.007941 C11.2066132,12.949625 11.212592,12.7716722 11.212592,12.4740825 L12.0091792,12.4740825 L12.0091792,12.5878325 C12.0091792,12.8738632 12.0032005,13.0430165 11.9916415,13.0956604 C11.9742571,13.2530401 11.9131509,13.4106344 11.8078325,13.5682288 C11.5977476,13.8775613 11.2823443,14.0322123 10.8622358,14.0322123 C10.4597571,14.0322123 10.1445684,13.8833561 9.91688443,13.5858585 C9.74773113,13.3699175 9.66316981,13.0314269 9.66316981,12.5703868 L9.66316981,11.0558868 C9.66316981,10.5948774 9.74478774,10.2563868 9.90805425,10.0404458 C10.1357689,9.74288679 10.4479835,9.59409198 10.8449434,9.59409198 C11.2360165,9.59409198 11.545533,9.74288679 11.7728184,10.0404458 C11.9305967,10.2563868 12.0092099,10.5948774 12.0092099,11.0558868 L12.0092099,11.9576392 Z" id="Shape"></path>
                <path d="M7.92981604,10.3032052 C7.79552358,10.3032052 7.66435849,10.3676226 7.53592217,10.4958443 L7.53592217,13.1306132 C7.66432783,13.2589575 7.79552358,13.3231297 7.92981604,13.3231297 C8.15728538,13.3231297 8.27137264,13.1277618 8.27137264,12.7365967 L8.27137264,10.8897382 C8.27134198,10.4986651 8.15753066,10.3032052 7.92981604,10.3032052 Z" id="Shape"></path>
                <path d="M10.8362358,10.3032052 C10.5736297,10.3032052 10.442342,10.5017311 10.442342,10.8983231 L10.442342,11.3010165 L11.2300991,11.3010165 L11.2300991,10.8983231 C11.2300991,10.5015165 11.09875,10.3032052 10.8362358,10.3032052 Z" id="Shape"></path>
                <path d="M3.2031816,3.49273821 L3.2031816,5.86508491 L4.07850472,5.86508491 L4.07850472,3.49273821 L5.13754481,0 L4.24468396,0 L3.64956604,2.30225708 L3.02798821,0 L2.10014387,0 C2.26356368,0.490259434 2.45322877,1.03586085 2.66916981,1.63698821 C2.94348821,2.44228302 3.12137972,3.06097877 3.2031816,3.49273821 Z" id="Shape"></path>
                <path d="M6.31051887,5.926375 C6.71321226,5.926375 7.02242217,5.77754953 7.23836321,5.47992925 C7.40184434,5.26398821 7.48346226,4.91964151 7.48346226,4.44701179 L7.48346226,2.91503538 C7.48346226,2.44823113 7.40162972,2.10673585 7.23836321,1.89079481 C7.02242217,1.59317453 6.71321226,1.44434906 6.31051887,1.44434906 C5.91941509,1.44434906 5.61299528,1.59317453 5.39132075,1.89079481 C5.22799292,2.10673585 5.14628302,2.44823113 5.14628302,2.91503538 L5.14628302,4.44698113 C5.14628302,4.91378538 5.22790094,5.25816274 5.39132075,5.47989858 C5.61308726,5.77754953 5.91938443,5.926375 6.31051887,5.926375 Z M5.93404009,2.75744104 C5.93404009,2.35474764 6.05953302,2.15340094 6.31051887,2.15340094 C6.56150472,2.15340094 6.686875,2.35474764 6.686875,2.75744104 L6.686875,4.59568396 C6.686875,5.00432547 6.56150472,5.2084316 6.31051887,5.2084316 C6.05953302,5.2084316 5.93404009,5.00420283 5.93404009,4.59568396 L5.93404009,2.75744104 Z" id="Shape"></path>
                <path d="M8.71760377,5.926375 C9.00958255,5.926375 9.31020755,5.74544811 9.61941745,5.38353302 L9.61941745,5.86499292 L10.4160047,5.86499292 L10.4160047,1.49690094 L9.61941745,1.49690094 L9.61941745,4.83204481 C9.44428538,5.08303066 9.27807547,5.20840094 9.12029717,5.20840094 C9.01516274,5.20840094 8.95387264,5.14422877 8.93645755,5.01585377 C8.93060142,5.00417217 8.92765802,4.90195047 8.92765802,4.70943396 L8.92765802,1.49690094 L8.13107075,1.49690094 L8.13107075,4.94594811 C8.13107075,5.24350708 8.15458726,5.46226887 8.20116038,5.60241745 C8.27710613,5.81835849 8.44920283,5.926375 8.71760377,5.926375 Z" id="Shape"></path>
            </g>
        </g>
    </g>
</svg>